<svg width="468" height="199" viewBox="0 0 468 199" fill="none" xmlns="http://www.w3.org/2000/svg">
    <path fill-rule="evenodd" clip-rule="evenodd"
        d="M35 26C33.8954 26 33 26.8954 33 28V177.074C33 178.178 33.8954 179.074 35 179.074H77.1472C77.5471 179.074 77.9196 178.956 78.2321 178.754H128.687C128.736 178.754 128.785 178.753 128.833 178.749H179.715C179.853 178.749 179.987 178.735 180.117 178.709C180.249 178.736 180.387 178.751 180.527 178.751H231.808C232.912 178.751 233.808 177.855 233.808 176.751V73.8244C233.808 72.7199 232.912 71.8244 231.808 71.8244H180.527C179.422 71.8244 178.527 72.7199 178.527 73.8244V103.177H130.687V47.2974C130.687 46.1929 129.792 45.2974 128.687 45.2974H79.1472V28C79.1472 26.8954 78.2518 26 77.1472 26H35Z"
        fill="url(#paint0_linear_3921_1609)" />
    <rect x="184.47" y="79.5107" width="6.27189" height="7.78353" fill="white" fill-opacity="0.13" />
    <rect x="195.968" y="79.5107" width="6.27189" height="7.78353" fill="white" fill-opacity="0.13" />
    <rect x="184.47" y="93.1311" width="6.27189" height="7.78353" fill="white" fill-opacity="0.13" />
    <rect x="195.968" y="93.1311" width="6.27189" height="7.78353" fill="white" fill-opacity="0.13" />
    <rect x="207.467" y="79.5107" width="6.27189" height="7.78353" fill="white" fill-opacity="0.13" />
    <rect x="218.967" y="79.5107" width="6.27189" height="7.78353" fill="white" fill-opacity="0.13" />
    <rect x="207.467" y="93.1311" width="6.27189" height="7.78353" fill="white" fill-opacity="0.13" />
    <rect x="218.967" y="93.1311" width="6.27189" height="7.78353" fill="white" fill-opacity="0.13" />
    <rect x="184.47" y="133.992" width="6.27189" height="7.78353" fill="white" fill-opacity="0.13" />
    <rect x="195.968" y="133.992" width="6.27189" height="7.78353" fill="white" fill-opacity="0.13" />
    <rect x="207.467" y="133.992" width="6.27189" height="7.78353" fill="white" fill-opacity="0.13" />
    <rect x="218.967" y="133.992" width="6.27189" height="7.78353" fill="white" fill-opacity="0.13" />
    <rect x="184.47" y="106.753" width="6.27189" height="7.78353" fill="white" fill-opacity="0.13" />
    <rect x="195.968" y="106.753" width="6.27189" height="7.78353" fill="white" fill-opacity="0.13" />
    <rect x="184.47" y="120.377" width="6.27189" height="7.78353" fill="white" fill-opacity="0.13" />
    <rect x="195.968" y="120.377" width="6.27189" height="7.78353" fill="white" fill-opacity="0.13" />
    <rect x="207.467" y="106.753" width="6.27189" height="7.78353" fill="white" fill-opacity="0.13" />
    <rect x="218.967" y="106.753" width="6.27189" height="7.78353" fill="white" fill-opacity="0.13" />
    <rect x="207.467" y="120.377" width="6.27189" height="7.78353" fill="white" fill-opacity="0.13" />
    <rect x="218.967" y="120.377" width="6.27189" height="7.78353" fill="white" fill-opacity="0.13" />
    <rect x="83.0742" y="133.997" width="6.27189" height="7.78353" fill="white" fill-opacity="0.13" />
    <rect x="94.5723" y="133.997" width="6.27189" height="7.78353" fill="white" fill-opacity="0.13" />
    <rect x="83.0742" y="147.623" width="6.27189" height="7.78353" fill="white" fill-opacity="0.13" />
    <rect x="94.5723" y="147.623" width="6.27189" height="7.78353" fill="white" fill-opacity="0.13" />
    <rect x="106.073" y="133.997" width="6.27189" height="7.78353" fill="white" fill-opacity="0.13" />
    <rect x="117.568" y="133.997" width="6.27189" height="7.78353" fill="white" fill-opacity="0.13" />
    <rect x="106.073" y="147.623" width="6.27189" height="7.78353" fill="white" fill-opacity="0.13" />
    <rect x="117.568" y="147.623" width="6.27189" height="7.78353" fill="white" fill-opacity="0.13" />
    <rect x="83.0742" y="52.2727" width="6.27189" height="7.78353" fill="white" fill-opacity="0.13" />
    <rect x="94.5723" y="52.2727" width="6.27189" height="7.78353" fill="white" fill-opacity="0.13" />
    <rect x="83.0742" y="65.8931" width="6.27189" height="7.78353" fill="white" fill-opacity="0.13" />
    <rect x="94.5723" y="65.8931" width="6.27189" height="7.78353" fill="white" fill-opacity="0.13" />
    <rect x="106.073" y="52.2727" width="6.27189" height="7.78353" fill="white" fill-opacity="0.13" />
    <rect x="117.568" y="52.2727" width="6.27189" height="7.78353" fill="white" fill-opacity="0.13" />
    <rect x="106.073" y="65.8931" width="6.27189" height="7.78353" fill="white" fill-opacity="0.13" />
    <rect x="117.568" y="65.8931" width="6.27189" height="7.78353" fill="white" fill-opacity="0.13" />
    <rect x="83.0742" y="79.5154" width="6.27189" height="7.78353" fill="white" fill-opacity="0.13" />
    <rect x="94.5723" y="79.5154" width="6.27189" height="7.78353" fill="white" fill-opacity="0.13" />
    <rect x="83.0742" y="93.1394" width="6.27189" height="7.78353" fill="white" fill-opacity="0.13" />
    <rect x="94.5723" y="93.1394" width="6.27189" height="7.78353" fill="white" fill-opacity="0.13" />
    <rect x="106.073" y="79.5154" width="6.27189" height="7.78353" fill="white" fill-opacity="0.13" />
    <rect x="117.568" y="79.5154" width="6.27189" height="7.78353" fill="white" fill-opacity="0.13" />
    <rect x="106.073" y="93.1394" width="6.27189" height="7.78353" fill="white" fill-opacity="0.13" />
    <rect x="117.568" y="93.1394" width="6.27189" height="7.78353" fill="white" fill-opacity="0.13" />
    <rect x="83.0742" y="106.754" width="6.27189" height="7.78353" fill="white" fill-opacity="0.13" />
    <rect x="94.5723" y="106.754" width="6.27189" height="7.78353" fill="white" fill-opacity="0.13" />
    <rect x="83.0742" y="120.38" width="6.27189" height="7.78353" fill="white" fill-opacity="0.13" />
    <rect x="94.5723" y="120.38" width="6.27189" height="7.78353" fill="white" fill-opacity="0.13" />
    <rect x="106.073" y="106.754" width="6.27189" height="7.78353" fill="white" fill-opacity="0.13" />
    <rect x="117.568" y="106.754" width="6.27189" height="7.78353" fill="white" fill-opacity="0.13" />
    <rect x="106.073" y="120.38" width="6.27189" height="7.78353" fill="white" fill-opacity="0.13" />
    <rect x="117.568" y="120.38" width="6.27189" height="7.78353" fill="white" fill-opacity="0.13" />
    <rect x="43.7207" y="38.6445" width="8.82284" height="7.78353" fill="white" fill-opacity="0.13" />
    <rect x="59.6006" y="38.6445" width="8.82284" height="7.78353" fill="white" fill-opacity="0.13" />
    <rect x="43.7207" y="52.2649" width="8.82284" height="7.78353" fill="white" fill-opacity="0.13" />
    <rect x="59.6006" y="52.2649" width="8.82284" height="7.78353" fill="white" fill-opacity="0.13" />
    <rect x="43.7207" y="120.369" width="8.82284" height="7.78353" fill="white" fill-opacity="0.13" />
    <rect x="59.6006" y="120.369" width="8.82284" height="7.78353" fill="white" fill-opacity="0.13" />
    <rect x="59.6006" y="133.995" width="8.82284" height="7.78353" fill="white" fill-opacity="0.13" />
    <rect x="43.7207" y="133.995" width="8.82284" height="7.78353" fill="white" fill-opacity="0.13" />
    <rect x="43.7207" y="65.8872" width="8.82284" height="7.78353" fill="white" fill-opacity="0.13" />
    <rect x="59.6006" y="65.8872" width="8.82284" height="7.78353" fill="white" fill-opacity="0.13" />
    <rect x="43.7207" y="79.5112" width="8.82284" height="7.78353" fill="white" fill-opacity="0.13" />
    <rect x="59.6006" y="79.5112" width="8.82284" height="7.78353" fill="white" fill-opacity="0.13" />
    <rect x="43.7207" y="93.1262" width="8.82284" height="7.78353" fill="white" fill-opacity="0.13" />
    <rect x="59.6006" y="93.1262" width="8.82284" height="7.78353" fill="white" fill-opacity="0.13" />
    <rect x="43.7207" y="106.752" width="8.82284" height="7.78353" fill="white" fill-opacity="0.13" />
    <rect x="59.6006" y="106.752" width="8.82284" height="7.78353" fill="white" fill-opacity="0.13" />
    <rect x="149.059" y="110.648" width="9.1465" height="7.78353" fill="white" fill-opacity="0.13" />
    <rect x="162.778" y="110.648" width="9.1465" height="7.78353" fill="white" fill-opacity="0.13" />
    <rect x="135.34" y="110.648" width="9.1465" height="7.78353" fill="white" fill-opacity="0.13" />
    <rect x="149.059" y="124.268" width="9.1465" height="7.78353" fill="white" fill-opacity="0.13" />
    <rect x="162.778" y="124.268" width="9.1465" height="7.78353" fill="white" fill-opacity="0.13" />
    <rect x="135.34" y="124.268" width="9.1465" height="7.78353" fill="white" fill-opacity="0.13" />
    <rect x="149.059" y="137.894" width="9.1465" height="7.78353" fill="white" fill-opacity="0.13" />
    <rect x="162.778" y="137.894" width="9.1465" height="7.78353" fill="white" fill-opacity="0.13" />
    <rect x="135.34" y="137.894" width="9.1465" height="7.78353" fill="white" fill-opacity="0.13" />
    <path fill-rule="evenodd" clip-rule="evenodd"
        d="M235.808 26.9258C234.703 26.9258 233.808 27.8212 233.808 28.9258V178C233.808 179.104 234.703 180 235.808 180H277.955C278.355 180 278.727 179.882 279.04 179.68H329.495C329.544 179.68 329.592 179.678 329.64 179.675H380.523C380.661 179.675 380.795 179.661 380.925 179.634C381.057 179.662 381.194 179.676 381.335 179.676H432.615C433.72 179.676 434.615 178.781 434.615 177.676V74.7502C434.615 73.6456 433.72 72.7502 432.615 72.7502H381.335C380.23 72.7502 379.335 73.6456 379.335 74.7502V104.103H331.495V48.2232C331.495 47.1187 330.6 46.2232 329.495 46.2232H279.955V28.9258C279.955 27.8212 279.059 26.9258 277.955 26.9258H235.808Z"
        fill="url(#paint1_linear_3921_1609)" />
    <rect x="385.277" y="80.4365" width="6.27189" height="7.78353" fill="white" fill-opacity="0.13" />
    <rect x="396.775" y="80.4365" width="6.27189" height="7.78353" fill="white" fill-opacity="0.13" />
    <rect x="385.277" y="94.0569" width="6.27189" height="7.78353" fill="white" fill-opacity="0.13" />
    <rect x="396.775" y="94.0569" width="6.27189" height="7.78353" fill="white" fill-opacity="0.13" />
    <rect x="408.274" y="80.4365" width="6.27189" height="7.78353" fill="white" fill-opacity="0.13" />
    <rect x="419.774" y="80.4365" width="6.27189" height="7.78353" fill="white" fill-opacity="0.13" />
    <rect x="408.274" y="94.0569" width="6.27189" height="7.78353" fill="white" fill-opacity="0.13" />
    <rect x="419.774" y="94.0569" width="6.27189" height="7.78353" fill="white" fill-opacity="0.13" />
    <rect x="385.277" y="134.918" width="6.27189" height="7.78353" fill="white" fill-opacity="0.13" />
    <rect x="396.775" y="134.918" width="6.27189" height="7.78353" fill="white" fill-opacity="0.13" />
    <rect x="408.274" y="134.918" width="6.27189" height="7.78353" fill="white" fill-opacity="0.13" />
    <rect x="419.774" y="134.918" width="6.27189" height="7.78353" fill="white" fill-opacity="0.13" />
    <rect x="385.277" y="107.679" width="6.27189" height="7.78353" fill="white" fill-opacity="0.13" />
    <rect x="396.775" y="107.679" width="6.27189" height="7.78353" fill="white" fill-opacity="0.13" />
    <rect x="385.277" y="121.303" width="6.27189" height="7.78353" fill="white" fill-opacity="0.13" />
    <rect x="396.775" y="121.303" width="6.27189" height="7.78353" fill="white" fill-opacity="0.13" />
    <rect x="408.274" y="107.679" width="6.27189" height="7.78353" fill="white" fill-opacity="0.13" />
    <rect x="419.774" y="107.679" width="6.27189" height="7.78353" fill="white" fill-opacity="0.13" />
    <rect x="408.274" y="121.303" width="6.27189" height="7.78353" fill="white" fill-opacity="0.13" />
    <rect x="419.774" y="121.303" width="6.27189" height="7.78353" fill="white" fill-opacity="0.13" />
    <rect x="283.882" y="134.923" width="6.27189" height="7.78353" fill="white" fill-opacity="0.13" />
    <rect x="295.38" y="134.923" width="6.27189" height="7.78353" fill="white" fill-opacity="0.13" />
    <rect x="283.882" y="148.549" width="6.27189" height="7.78353" fill="white" fill-opacity="0.13" />
    <rect x="295.38" y="148.549" width="6.27189" height="7.78353" fill="white" fill-opacity="0.13" />
    <rect x="306.881" y="134.923" width="6.27189" height="7.78353" fill="white" fill-opacity="0.13" />
    <rect x="318.376" y="134.923" width="6.27189" height="7.78353" fill="white" fill-opacity="0.13" />
    <rect x="306.881" y="148.549" width="6.27189" height="7.78353" fill="white" fill-opacity="0.13" />
    <rect x="318.376" y="148.549" width="6.27189" height="7.78353" fill="white" fill-opacity="0.13" />
    <rect x="283.882" y="53.1985" width="6.27189" height="7.78353" fill="white" fill-opacity="0.13" />
    <rect x="295.38" y="53.1985" width="6.27189" height="7.78353" fill="white" fill-opacity="0.13" />
    <rect x="283.882" y="66.8188" width="6.27189" height="7.78353" fill="white" fill-opacity="0.13" />
    <rect x="295.38" y="66.8188" width="6.27189" height="7.78353" fill="white" fill-opacity="0.13" />
    <rect x="306.881" y="53.1985" width="6.27189" height="7.78353" fill="white" fill-opacity="0.13" />
    <rect x="318.376" y="53.1985" width="6.27189" height="7.78353" fill="white" fill-opacity="0.13" />
    <rect x="306.881" y="66.8188" width="6.27189" height="7.78353" fill="white" fill-opacity="0.13" />
    <rect x="318.376" y="66.8188" width="6.27189" height="7.78353" fill="white" fill-opacity="0.13" />
    <rect x="283.882" y="80.4412" width="6.27189" height="7.78353" fill="white" fill-opacity="0.13" />
    <rect x="295.38" y="80.4412" width="6.27189" height="7.78353" fill="white" fill-opacity="0.13" />
    <rect x="283.882" y="94.0652" width="6.27189" height="7.78353" fill="white" fill-opacity="0.13" />
    <rect x="295.38" y="94.0652" width="6.27189" height="7.78353" fill="white" fill-opacity="0.13" />
    <rect x="306.881" y="80.4412" width="6.27189" height="7.78353" fill="white" fill-opacity="0.13" />
    <rect x="318.376" y="80.4412" width="6.27189" height="7.78353" fill="white" fill-opacity="0.13" />
    <rect x="306.881" y="94.0652" width="6.27189" height="7.78353" fill="white" fill-opacity="0.13" />
    <rect x="318.376" y="94.0652" width="6.27189" height="7.78353" fill="white" fill-opacity="0.13" />
    <rect x="283.882" y="107.68" width="6.27189" height="7.78353" fill="white" fill-opacity="0.13" />
    <rect x="295.38" y="107.68" width="6.27189" height="7.78353" fill="white" fill-opacity="0.13" />
    <rect x="283.882" y="121.306" width="6.27189" height="7.78353" fill="white" fill-opacity="0.13" />
    <rect x="295.38" y="121.306" width="6.27189" height="7.78353" fill="white" fill-opacity="0.13" />
    <rect x="306.881" y="107.68" width="6.27189" height="7.78353" fill="white" fill-opacity="0.13" />
    <rect x="318.376" y="107.68" width="6.27189" height="7.78353" fill="white" fill-opacity="0.13" />
    <rect x="306.881" y="121.306" width="6.27189" height="7.78353" fill="white" fill-opacity="0.13" />
    <rect x="318.376" y="121.306" width="6.27189" height="7.78353" fill="white" fill-opacity="0.13" />
    <rect x="244.528" y="39.5701" width="8.82284" height="7.78353" fill="white" fill-opacity="0.13" />
    <rect x="260.408" y="39.5701" width="8.82284" height="7.78353" fill="white" fill-opacity="0.13" />
    <rect x="244.528" y="53.1904" width="8.82284" height="7.78353" fill="white" fill-opacity="0.13" />
    <rect x="260.408" y="53.1904" width="8.82284" height="7.78353" fill="white" fill-opacity="0.13" />
    <rect x="244.528" y="121.295" width="8.82284" height="7.78353" fill="white" fill-opacity="0.13" />
    <rect x="260.408" y="121.295" width="8.82284" height="7.78353" fill="white" fill-opacity="0.13" />
    <rect x="260.408" y="134.92" width="8.82284" height="7.78353" fill="white" fill-opacity="0.13" />
    <rect x="244.528" y="134.92" width="8.82284" height="7.78353" fill="white" fill-opacity="0.13" />
    <rect x="244.528" y="66.8127" width="8.82284" height="7.78353" fill="white" fill-opacity="0.13" />
    <rect x="260.408" y="66.8127" width="8.82284" height="7.78353" fill="white" fill-opacity="0.13" />
    <rect x="244.528" y="80.4368" width="8.82284" height="7.78353" fill="white" fill-opacity="0.13" />
    <rect x="260.408" y="80.4368" width="8.82284" height="7.78353" fill="white" fill-opacity="0.13" />
    <rect x="244.528" y="94.0518" width="8.82284" height="7.78353" fill="white" fill-opacity="0.13" />
    <rect x="260.408" y="94.0518" width="8.82284" height="7.78353" fill="white" fill-opacity="0.13" />
    <rect x="244.528" y="107.678" width="8.82284" height="7.78353" fill="white" fill-opacity="0.13" />
    <rect x="260.408" y="107.678" width="8.82284" height="7.78353" fill="white" fill-opacity="0.13" />
    <rect x="349.866" y="111.573" width="9.1465" height="7.78353" fill="white" fill-opacity="0.13" />
    <rect x="363.586" y="111.573" width="9.1465" height="7.78353" fill="white" fill-opacity="0.13" />
    <rect x="336.147" y="111.573" width="9.1465" height="7.78353" fill="white" fill-opacity="0.13" />
    <rect x="349.866" y="125.194" width="9.1465" height="7.78353" fill="white" fill-opacity="0.13" />
    <rect x="363.586" y="125.194" width="9.1465" height="7.78353" fill="white" fill-opacity="0.13" />
    <rect x="336.147" y="125.194" width="9.1465" height="7.78353" fill="white" fill-opacity="0.13" />
    <rect x="349.866" y="138.82" width="9.1465" height="7.78353" fill="white" fill-opacity="0.13" />
    <rect x="363.586" y="138.82" width="9.1465" height="7.78353" fill="white" fill-opacity="0.13" />
    <rect x="336.147" y="138.82" width="9.1465" height="7.78353" fill="white" fill-opacity="0.13" />
    <g filter="url(#filter0_b_3921_1609)">
        <path
            d="M0 4.10976C0 1.84 1.84 0 4.10976 0H179.89C182.16 0 184 1.84 184 4.10976V76.734C184 77.6963 183.662 78.6282 183.046 79.3671L177.693 85.7819C176.218 87.5489 173.58 87.7608 171.843 86.2519L163.757 79.2301C163.009 78.5809 162.052 78.2234 161.062 78.2234H4.10976C1.84 78.2234 0 76.3834 0 74.1137V4.10976Z"
            fill="url(#paint2_linear_3921_1609)" />
        <path
            d="M0.5 4.10976C0.5 2.11614 2.11614 0.5 4.10976 0.5H179.89C181.884 0.5 183.5 2.11614 183.5 4.10976V76.734C183.5 77.5792 183.203 78.3977 182.662 79.0467L177.309 85.4615C176.014 87.0135 173.697 87.1997 172.171 85.8744L164.084 78.8526C163.246 78.1244 162.173 77.7234 161.062 77.7234H4.10976C2.11615 77.7234 0.5 76.1073 0.5 74.1137V4.10976Z"
            stroke="white" />
    </g>
    <g filter="url(#filter1_b_3921_1609)">
        <path
            d="M468 16.1098C468 13.84 466.16 12 463.89 12H291.11C288.84 12 287 13.84 287 16.1098V85.1843C287 86.1673 287.352 87.1177 287.993 87.8631L293.192 93.9127C294.662 95.6225 297.235 95.8292 298.958 94.376L306.906 87.6754C307.647 87.0505 308.586 86.7078 309.555 86.7078H463.89C466.16 86.7078 468 84.8678 468 82.598V16.1098Z"
            fill="url(#paint3_linear_3921_1609)" />
        <path
            d="M467.5 16.1098C467.5 14.1161 465.884 12.5 463.89 12.5H291.11C289.116 12.5 287.5 14.1161 287.5 16.1098V85.1843C287.5 86.0477 287.809 86.8825 288.372 87.5372L293.572 93.5868C294.862 95.0886 297.122 95.2702 298.636 93.9938L306.584 87.2932C307.415 86.5922 308.468 86.2078 309.555 86.2078H463.89C465.884 86.2078 467.5 84.5916 467.5 82.598V16.1098Z"
            stroke="white" />
    </g>
    <path
        d="M315.735 52.128C314.882 52.128 314.092 51.9893 313.367 51.712C312.652 51.424 312.028 51.024 311.495 50.512C310.972 49.9893 310.562 49.3813 310.263 48.688C309.964 47.9947 309.815 47.232 309.815 46.4C309.815 45.568 309.964 44.8053 310.263 44.112C310.562 43.4187 310.978 42.816 311.511 42.304C312.044 41.7813 312.668 41.3813 313.383 41.104C314.108 40.816 314.898 40.672 315.751 40.672C316.615 40.672 317.41 40.8213 318.135 41.12C318.871 41.408 319.495 41.84 320.007 42.416L318.967 43.424C318.54 42.976 318.06 42.6453 317.527 42.432C316.994 42.208 316.423 42.096 315.815 42.096C315.186 42.096 314.599 42.2027 314.055 42.416C313.522 42.6293 313.058 42.928 312.663 43.312C312.268 43.696 311.959 44.1547 311.735 44.688C311.522 45.2107 311.415 45.7813 311.415 46.4C311.415 47.0187 311.522 47.5947 311.735 48.128C311.959 48.6507 312.268 49.104 312.663 49.488C313.058 49.872 313.522 50.1707 314.055 50.384C314.599 50.5973 315.186 50.704 315.815 50.704C316.423 50.704 316.994 50.5973 317.527 50.384C318.06 50.16 318.54 49.8187 318.967 49.36L320.007 50.368C319.495 50.944 318.871 51.3813 318.135 51.68C317.41 51.9787 316.61 52.128 315.735 52.128ZM325.338 52.096C324.485 52.096 323.727 51.9093 323.066 51.536C322.405 51.1627 321.882 50.6507 321.498 50C321.114 49.3387 320.922 48.592 320.922 47.76C320.922 46.9173 321.114 46.1707 321.498 45.52C321.882 44.8693 322.405 44.3627 323.066 44C323.727 43.6267 324.485 43.44 325.338 43.44C326.181 43.44 326.933 43.6267 327.594 44C328.266 44.3627 328.789 44.8693 329.162 45.52C329.546 46.16 329.738 46.9067 329.738 47.76C329.738 48.6027 329.546 49.3493 329.162 50C328.789 50.6507 328.266 51.1627 327.594 51.536C326.933 51.9093 326.181 52.096 325.338 52.096ZM325.338 50.752C325.882 50.752 326.367 50.6293 326.794 50.384C327.231 50.1387 327.573 49.792 327.818 49.344C328.063 48.8853 328.186 48.3573 328.186 47.76C328.186 47.152 328.063 46.6293 327.818 46.192C327.573 45.744 327.231 45.3973 326.794 45.152C326.367 44.9067 325.882 44.784 325.338 44.784C324.794 44.784 324.309 44.9067 323.882 45.152C323.455 45.3973 323.114 45.744 322.858 46.192C322.602 46.6293 322.474 47.152 322.474 47.76C322.474 48.3573 322.602 48.8853 322.858 49.344C323.114 49.792 323.455 50.1387 323.882 50.384C324.309 50.6293 324.794 50.752 325.338 50.752ZM336.39 43.44C337.084 43.44 337.692 43.5733 338.214 43.84C338.748 44.1067 339.164 44.512 339.462 45.056C339.761 45.6 339.91 46.288 339.91 47.12V52H338.374V47.296C338.374 46.4747 338.172 45.856 337.766 45.44C337.372 45.024 336.812 44.816 336.086 44.816C335.542 44.816 335.068 44.9227 334.662 45.136C334.257 45.3493 333.942 45.664 333.718 46.08C333.505 46.496 333.398 47.0133 333.398 47.632V52H331.862V43.52H333.334V45.808L333.094 45.2C333.372 44.6453 333.798 44.2133 334.374 43.904C334.95 43.5947 335.622 43.44 336.39 43.44ZM347.281 43.44C347.974 43.44 348.582 43.5733 349.105 43.84C349.638 44.1067 350.054 44.512 350.353 45.056C350.652 45.6 350.801 46.288 350.801 47.12V52H349.265V47.296C349.265 46.4747 349.062 45.856 348.657 45.44C348.262 45.024 347.702 44.816 346.977 44.816C346.433 44.816 345.958 44.9227 345.553 45.136C345.148 45.3493 344.833 45.664 344.609 46.08C344.396 46.496 344.289 47.0133 344.289 47.632V52H342.753V43.52H344.225V45.808L343.985 45.2C344.262 44.6453 344.689 44.2133 345.265 43.904C345.841 43.5947 346.513 43.44 347.281 43.44ZM357.42 52.096C356.513 52.096 355.713 51.9093 355.02 51.536C354.337 51.1627 353.804 50.6507 353.42 50C353.046 49.3493 352.86 48.6027 352.86 47.76C352.86 46.9173 353.041 46.1707 353.404 45.52C353.777 44.8693 354.284 44.3627 354.924 44C355.574 43.6267 356.305 43.44 357.116 43.44C357.937 43.44 358.662 43.6213 359.292 43.984C359.921 44.3467 360.412 44.8587 360.764 45.52C361.126 46.1707 361.308 46.9333 361.308 47.808C361.308 47.872 361.302 47.9467 361.292 48.032C361.292 48.1173 361.286 48.1973 361.276 48.272H354.06V47.168H360.476L359.852 47.552C359.862 47.008 359.75 46.5227 359.516 46.096C359.281 45.6693 358.956 45.3387 358.54 45.104C358.134 44.8587 357.66 44.736 357.116 44.736C356.582 44.736 356.108 44.8587 355.692 45.104C355.276 45.3387 354.95 45.6747 354.716 46.112C354.481 46.5387 354.364 47.0293 354.364 47.584V47.84C354.364 48.4053 354.492 48.912 354.748 49.36C355.014 49.7973 355.382 50.1387 355.852 50.384C356.321 50.6293 356.86 50.752 357.468 50.752C357.969 50.752 358.422 50.6667 358.828 50.496C359.244 50.3253 359.606 50.0693 359.916 49.728L360.764 50.72C360.38 51.168 359.9 51.5093 359.324 51.744C358.758 51.9787 358.124 52.096 357.42 52.096ZM367.136 52.096C366.272 52.096 365.499 51.9093 364.816 51.536C364.144 51.1627 363.616 50.6507 363.232 50C362.848 49.3493 362.656 48.6027 362.656 47.76C362.656 46.9173 362.848 46.1707 363.232 45.52C363.616 44.8693 364.144 44.3627 364.816 44C365.499 43.6267 366.272 43.44 367.136 43.44C367.904 43.44 368.587 43.5947 369.184 43.904C369.792 44.2027 370.262 44.6507 370.592 45.248L369.424 46C369.147 45.584 368.806 45.28 368.4 45.088C368.006 44.8853 367.579 44.784 367.12 44.784C366.566 44.784 366.07 44.9067 365.632 45.152C365.195 45.3973 364.848 45.744 364.592 46.192C364.336 46.6293 364.208 47.152 364.208 47.76C364.208 48.368 364.336 48.896 364.592 49.344C364.848 49.792 365.195 50.1387 365.632 50.384C366.07 50.6293 366.566 50.752 367.12 50.752C367.579 50.752 368.006 50.656 368.4 50.464C368.806 50.2613 369.147 49.952 369.424 49.536L370.592 50.272C370.262 50.8587 369.792 51.312 369.184 51.632C368.587 51.9413 367.904 52.096 367.136 52.096ZM375.602 52.096C374.749 52.096 374.088 51.8667 373.618 51.408C373.149 50.9493 372.914 50.2933 372.914 49.44V41.664H374.45V49.376C374.45 49.8347 374.562 50.1867 374.786 50.432C375.021 50.6773 375.352 50.8 375.778 50.8C376.258 50.8 376.658 50.6667 376.978 50.4L377.458 51.504C377.224 51.7067 376.941 51.856 376.61 51.952C376.29 52.048 375.954 52.096 375.602 52.096ZM371.474 44.784V43.52H376.882V44.784H371.474ZM385.404 52L382.252 43.52H383.708L386.508 51.2H385.82L388.732 43.52H390.028L392.876 51.2H392.204L395.068 43.52H396.444L393.276 52H391.804L389.132 44.992H389.58L386.876 52H385.404ZM398.003 52V43.52H399.539V52H398.003ZM398.771 41.888C398.472 41.888 398.222 41.792 398.019 41.6C397.827 41.408 397.731 41.1733 397.731 40.896C397.731 40.608 397.827 40.368 398.019 40.176C398.222 39.984 398.472 39.888 398.771 39.888C399.07 39.888 399.315 39.984 399.507 40.176C399.71 40.3573 399.811 40.5867 399.811 40.864C399.811 41.152 399.715 41.3973 399.523 41.6C399.331 41.792 399.08 41.888 398.771 41.888ZM405.384 52.096C404.53 52.096 403.869 51.8667 403.4 51.408C402.93 50.9493 402.696 50.2933 402.696 49.44V41.664H404.232V49.376C404.232 49.8347 404.344 50.1867 404.568 50.432C404.802 50.6773 405.133 50.8 405.56 50.8C406.04 50.8 406.44 50.6667 406.76 50.4L407.24 51.504C407.005 51.7067 406.722 51.856 406.392 51.952C406.072 52.048 405.736 52.096 405.384 52.096ZM401.256 44.784V43.52H406.664V44.784H401.256ZM413.625 43.44C414.318 43.44 414.926 43.5733 415.449 43.84C415.982 44.1067 416.398 44.512 416.697 45.056C416.995 45.6 417.145 46.288 417.145 47.12V52H415.609V47.296C415.609 46.4747 415.406 45.856 415.001 45.44C414.606 45.024 414.046 44.816 413.321 44.816C412.777 44.816 412.302 44.9227 411.897 45.136C411.491 45.3493 411.177 45.664 410.953 46.08C410.739 46.496 410.633 47.0133 410.633 47.632V52H409.097V40.128H410.633V45.808L410.329 45.2C410.606 44.6453 411.033 44.2133 411.609 43.904C412.185 43.5947 412.857 43.44 413.625 43.44ZM427.852 52.096C427.127 52.096 426.487 51.9627 425.932 51.696C425.388 51.4293 424.961 51.024 424.652 50.48C424.353 49.9253 424.204 49.232 424.204 48.4V43.52H425.74V48.224C425.74 49.056 425.937 49.68 426.332 50.096C426.737 50.512 427.303 50.72 428.028 50.72C428.561 50.72 429.025 50.6133 429.42 50.4C429.815 50.176 430.119 49.856 430.332 49.44C430.545 49.0133 430.652 48.5013 430.652 47.904V43.52H432.188V52H430.732V49.712L430.972 50.32C430.695 50.8853 430.279 51.3227 429.724 51.632C429.169 51.9413 428.545 52.096 427.852 52.096ZM437.544 52.096C436.84 52.096 436.168 52 435.528 51.808C434.899 51.616 434.403 51.3813 434.04 51.104L434.68 49.888C435.043 50.1333 435.491 50.3413 436.024 50.512C436.558 50.6827 437.102 50.768 437.656 50.768C438.371 50.768 438.883 50.6667 439.192 50.464C439.512 50.2613 439.672 49.9787 439.672 49.616C439.672 49.3493 439.576 49.1413 439.384 48.992C439.192 48.8427 438.936 48.7307 438.616 48.656C438.307 48.5813 437.96 48.5173 437.576 48.464C437.192 48.4 436.808 48.3253 436.424 48.24C436.04 48.144 435.688 48.016 435.368 47.856C435.048 47.6853 434.792 47.456 434.6 47.168C434.408 46.8693 434.312 46.4747 434.312 45.984C434.312 45.472 434.456 45.024 434.744 44.64C435.032 44.256 435.438 43.9627 435.96 43.76C436.494 43.5467 437.123 43.44 437.848 43.44C438.403 43.44 438.963 43.5093 439.528 43.648C440.104 43.776 440.574 43.9627 440.936 44.208L440.28 45.424C439.896 45.168 439.496 44.992 439.08 44.896C438.664 44.8 438.248 44.752 437.832 44.752C437.16 44.752 436.659 44.864 436.328 45.088C435.998 45.3013 435.832 45.5787 435.832 45.92C435.832 46.208 435.928 46.432 436.12 46.592C436.323 46.7413 436.579 46.8587 436.888 46.944C437.208 47.0293 437.56 47.104 437.944 47.168C438.328 47.2213 438.712 47.296 439.096 47.392C439.48 47.4773 439.827 47.6 440.136 47.76C440.456 47.92 440.712 48.144 440.904 48.432C441.107 48.72 441.208 49.104 441.208 49.584C441.208 50.096 441.059 50.5387 440.76 50.912C440.462 51.2853 440.04 51.5787 439.496 51.792C438.952 51.9947 438.302 52.096 437.544 52.096ZM443.208 48.464L442.92 40.8H444.728L444.424 48.464H443.208ZM443.832 52.096C443.533 52.096 443.283 51.9947 443.08 51.792C442.877 51.5893 442.776 51.3493 442.776 51.072C442.776 50.7733 442.877 50.528 443.08 50.336C443.283 50.144 443.533 50.048 443.832 50.048C444.131 50.048 444.376 50.144 444.568 50.336C444.76 50.528 444.856 50.7733 444.856 51.072C444.856 51.3493 444.76 51.5893 444.568 51.792C444.376 51.9947 444.131 52.096 443.832 52.096Z"
        fill="#FFEEED" />
    <path
        d="M33.6339 30.8H35.2339V42H33.6339V30.8ZM27.2019 42H25.6019V30.8H27.2019V42ZM33.7779 37.008H27.0419V35.616H33.7779V37.008ZM43.6263 42V40.208L43.5463 39.872V36.816C43.5463 36.1653 43.3543 35.664 42.9703 35.312C42.5969 34.9493 42.0316 34.768 41.2743 34.768C40.7729 34.768 40.2823 34.8533 39.8023 35.024C39.3223 35.184 38.9169 35.4027 38.5863 35.68L37.9463 34.528C38.3836 34.176 38.9063 33.9093 39.5143 33.728C40.1329 33.536 40.7783 33.44 41.4503 33.44C42.6129 33.44 43.5089 33.7227 44.1383 34.288C44.7676 34.8533 45.0823 35.7173 45.0823 36.88V42H43.6263ZM40.8423 42.096C40.2129 42.096 39.6583 41.9893 39.1783 41.776C38.7089 41.5627 38.3463 41.2693 38.0903 40.896C37.8343 40.512 37.7063 40.08 37.7063 39.6C37.7063 39.1413 37.8129 38.7253 38.0263 38.352C38.2503 37.9787 38.6076 37.68 39.0983 37.456C39.5996 37.232 40.2716 37.12 41.1143 37.12H43.8023V38.224H41.1783C40.4103 38.224 39.8929 38.352 39.6263 38.608C39.3596 38.864 39.2263 39.1733 39.2263 39.536C39.2263 39.952 39.3916 40.288 39.7223 40.544C40.0529 40.7893 40.5116 40.912 41.0983 40.912C41.6743 40.912 42.1756 40.784 42.6023 40.528C43.0396 40.272 43.3543 39.8987 43.5463 39.408L43.8503 40.464C43.6476 40.9653 43.2903 41.3653 42.7783 41.664C42.2663 41.952 41.6209 42.096 40.8423 42.096ZM49.9925 42L46.2805 33.52H47.8805L51.1765 41.2H50.4085L53.7685 33.52H55.2725L51.5605 42H49.9925ZM60.2476 42.096C59.341 42.096 58.541 41.9093 57.8476 41.536C57.165 41.1627 56.6316 40.6507 56.2476 40C55.8743 39.3493 55.6876 38.6027 55.6876 37.76C55.6876 36.9173 55.869 36.1707 56.2316 35.52C56.605 34.8693 57.1116 34.3627 57.7516 34C58.4023 33.6267 59.133 33.44 59.9436 33.44C60.765 33.44 61.4903 33.6213 62.1196 33.984C62.749 34.3467 63.2396 34.8587 63.5916 35.52C63.9543 36.1707 64.1356 36.9333 64.1356 37.808C64.1356 37.872 64.1303 37.9467 64.1196 38.032C64.1196 38.1173 64.1143 38.1973 64.1036 38.272H56.8876V37.168H63.3036L62.6796 37.552C62.6903 37.008 62.5783 36.5227 62.3436 36.096C62.109 35.6693 61.7836 35.3387 61.3676 35.104C60.9623 34.8587 60.4876 34.736 59.9436 34.736C59.4103 34.736 58.9356 34.8587 58.5196 35.104C58.1036 35.3387 57.7783 35.6747 57.5436 36.112C57.309 36.5387 57.1916 37.0293 57.1916 37.584V37.84C57.1916 38.4053 57.3196 38.912 57.5756 39.36C57.8423 39.7973 58.2103 40.1387 58.6796 40.384C59.149 40.6293 59.6876 40.752 60.2956 40.752C60.797 40.752 61.2503 40.6667 61.6556 40.496C62.0716 40.3253 62.4343 40.0693 62.7436 39.728L63.5916 40.72C63.2076 41.168 62.7276 41.5093 62.1516 41.744C61.5863 41.9787 60.9516 42.096 60.2476 42.096ZM75.8294 42V40.208L75.7494 39.872V36.816C75.7494 36.1653 75.5574 35.664 75.1734 35.312C74.8 34.9493 74.2347 34.768 73.4774 34.768C72.976 34.768 72.4854 34.8533 72.0054 35.024C71.5254 35.184 71.12 35.4027 70.7894 35.68L70.1494 34.528C70.5867 34.176 71.1094 33.9093 71.7174 33.728C72.336 33.536 72.9814 33.44 73.6534 33.44C74.816 33.44 75.712 33.7227 76.3414 34.288C76.9707 34.8533 77.2854 35.7173 77.2854 36.88V42H75.8294ZM73.0454 42.096C72.416 42.096 71.8614 41.9893 71.3814 41.776C70.912 41.5627 70.5494 41.2693 70.2934 40.896C70.0374 40.512 69.9094 40.08 69.9094 39.6C69.9094 39.1413 70.016 38.7253 70.2294 38.352C70.4534 37.9787 70.8107 37.68 71.3014 37.456C71.8027 37.232 72.4747 37.12 73.3174 37.12H76.0054V38.224H73.3814C72.6134 38.224 72.096 38.352 71.8294 38.608C71.5627 38.864 71.4294 39.1733 71.4294 39.536C71.4294 39.952 71.5947 40.288 71.9254 40.544C72.256 40.7893 72.7147 40.912 73.3014 40.912C73.8774 40.912 74.3787 40.784 74.8054 40.528C75.2427 40.272 75.5574 39.8987 75.7494 39.408L76.0534 40.464C75.8507 40.9653 75.4934 41.3653 74.9814 41.664C74.4694 41.952 73.824 42.096 73.0454 42.096ZM87.9288 42.096C87.1074 42.096 86.3714 41.9147 85.7208 41.552C85.0808 41.1893 84.5741 40.6827 84.2008 40.032C83.8274 39.3813 83.6408 38.624 83.6408 37.76C83.6408 36.896 83.8274 36.144 84.2008 35.504C84.5741 34.8533 85.0808 34.3467 85.7208 33.984C86.3714 33.6213 87.1074 33.44 87.9288 33.44C88.6648 33.44 89.3208 33.6 89.8968 33.92C90.4728 34.24 90.9261 34.72 91.2568 35.36C91.5981 36 91.7688 36.8 91.7688 37.76C91.7688 38.72 91.5928 39.52 91.2408 40.16C90.8994 40.8 90.4408 41.2853 89.8648 41.616C89.2888 41.936 88.6434 42.096 87.9288 42.096ZM88.0568 40.752C88.5901 40.752 89.0701 40.6293 89.4968 40.384C89.9341 40.1387 90.2754 39.792 90.5208 39.344C90.7768 38.8853 90.9048 38.3573 90.9048 37.76C90.9048 37.152 90.7768 36.6293 90.5208 36.192C90.2754 35.744 89.9341 35.3973 89.4968 35.152C89.0701 34.9067 88.5901 34.784 88.0568 34.784C87.5128 34.784 87.0274 34.9067 86.6008 35.152C86.1741 35.3973 85.8328 35.744 85.5768 36.192C85.3208 36.6293 85.1928 37.152 85.1928 37.76C85.1928 38.3573 85.3208 38.8853 85.5768 39.344C85.8328 39.792 86.1741 40.1387 86.6008 40.384C87.0274 40.6293 87.5128 40.752 88.0568 40.752ZM90.8888 45.104V39.744L91.0487 37.776L90.9528 35.808V33.52H92.4248V45.104H90.8888ZM98.899 42.096C98.1737 42.096 97.5337 41.9627 96.979 41.696C96.435 41.4293 96.0083 41.024 95.699 40.48C95.4003 39.9253 95.251 39.232 95.251 38.4V33.52H96.787V38.224C96.787 39.056 96.9843 39.68 97.379 40.096C97.7843 40.512 98.3497 40.72 99.075 40.72C99.6083 40.72 100.072 40.6133 100.467 40.4C100.862 40.176 101.166 39.856 101.379 39.44C101.592 39.0133 101.699 38.5013 101.699 37.904V33.52H103.235V42H101.779V39.712L102.019 40.32C101.742 40.8853 101.326 41.3227 100.771 41.632C100.216 41.9413 99.5923 42.096 98.899 42.096ZM109.935 42.096C109.028 42.096 108.228 41.9093 107.535 41.536C106.852 41.1627 106.319 40.6507 105.935 40C105.562 39.3493 105.375 38.6027 105.375 37.76C105.375 36.9173 105.556 36.1707 105.919 35.52C106.292 34.8693 106.799 34.3627 107.439 34C108.09 33.6267 108.82 33.44 109.631 33.44C110.452 33.44 111.178 33.6213 111.807 33.984C112.436 34.3467 112.927 34.8587 113.279 35.52C113.642 36.1707 113.823 36.9333 113.823 37.808C113.823 37.872 113.818 37.9467 113.807 38.032C113.807 38.1173 113.802 38.1973 113.791 38.272H106.575V37.168H112.991L112.367 37.552C112.378 37.008 112.266 36.5227 112.031 36.096C111.796 35.6693 111.471 35.3387 111.055 35.104C110.65 34.8587 110.175 34.736 109.631 34.736C109.098 34.736 108.623 34.8587 108.207 35.104C107.791 35.3387 107.466 35.6747 107.231 36.112C106.996 36.5387 106.879 37.0293 106.879 37.584V37.84C106.879 38.4053 107.007 38.912 107.263 39.36C107.53 39.7973 107.898 40.1387 108.367 40.384C108.836 40.6293 109.375 40.752 109.983 40.752C110.484 40.752 110.938 40.6667 111.343 40.496C111.759 40.3253 112.122 40.0693 112.431 39.728L113.279 40.72C112.895 41.168 112.415 41.5093 111.839 41.744C111.274 41.9787 110.639 42.096 109.935 42.096ZM118.388 42.096C117.684 42.096 117.012 42 116.372 41.808C115.743 41.616 115.247 41.3813 114.884 41.104L115.524 39.888C115.887 40.1333 116.335 40.3413 116.868 40.512C117.401 40.6827 117.945 40.768 118.5 40.768C119.215 40.768 119.727 40.6667 120.036 40.464C120.356 40.2613 120.516 39.9787 120.516 39.616C120.516 39.3493 120.42 39.1413 120.228 38.992C120.036 38.8427 119.78 38.7307 119.46 38.656C119.151 38.5813 118.804 38.5173 118.42 38.464C118.036 38.4 117.652 38.3253 117.268 38.24C116.884 38.144 116.532 38.016 116.212 37.856C115.892 37.6853 115.636 37.456 115.444 37.168C115.252 36.8693 115.156 36.4747 115.156 35.984C115.156 35.472 115.3 35.024 115.588 34.64C115.876 34.256 116.281 33.9627 116.804 33.76C117.337 33.5467 117.967 33.44 118.692 33.44C119.247 33.44 119.807 33.5093 120.372 33.648C120.948 33.776 121.417 33.9627 121.78 34.208L121.124 35.424C120.74 35.168 120.34 34.992 119.924 34.896C119.508 34.8 119.092 34.752 118.676 34.752C118.004 34.752 117.503 34.864 117.172 35.088C116.841 35.3013 116.676 35.5787 116.676 35.92C116.676 36.208 116.772 36.432 116.964 36.592C117.167 36.7413 117.423 36.8587 117.732 36.944C118.052 37.0293 118.404 37.104 118.788 37.168C119.172 37.2213 119.556 37.296 119.94 37.392C120.324 37.4773 120.671 37.6 120.98 37.76C121.3 37.92 121.556 38.144 121.748 38.432C121.951 38.72 122.052 39.104 122.052 39.584C122.052 40.096 121.903 40.5387 121.604 40.912C121.305 41.2853 120.884 41.5787 120.34 41.792C119.796 41.9947 119.145 42.096 118.388 42.096ZM126.884 42.096C126.03 42.096 125.369 41.8667 124.9 41.408C124.43 40.9493 124.196 40.2933 124.196 39.44V31.664H125.732V39.376C125.732 39.8347 125.844 40.1867 126.068 40.432C126.302 40.6773 126.633 40.8 127.06 40.8C127.54 40.8 127.94 40.6667 128.26 40.4L128.74 41.504C128.505 41.7067 128.222 41.856 127.892 41.952C127.572 42.048 127.236 42.096 126.884 42.096ZM122.756 34.784V33.52H128.164V34.784H122.756ZM130.597 42V33.52H132.133V42H130.597ZM131.365 31.888C131.066 31.888 130.815 31.792 130.613 31.6C130.421 31.408 130.325 31.1733 130.325 30.896C130.325 30.608 130.421 30.368 130.613 30.176C130.815 29.984 131.066 29.888 131.365 29.888C131.663 29.888 131.909 29.984 132.101 30.176C132.303 30.3573 132.405 30.5867 132.405 30.864C132.405 31.152 132.309 31.3973 132.117 31.6C131.925 31.792 131.674 31.888 131.365 31.888ZM138.697 42.096C137.844 42.096 137.087 41.9093 136.425 41.536C135.764 41.1627 135.241 40.6507 134.857 40C134.473 39.3387 134.281 38.592 134.281 37.76C134.281 36.9173 134.473 36.1707 134.857 35.52C135.241 34.8693 135.764 34.3627 136.425 34C137.087 33.6267 137.844 33.44 138.697 33.44C139.54 33.44 140.292 33.6267 140.953 34C141.625 34.3627 142.148 34.8693 142.521 35.52C142.905 36.16 143.097 36.9067 143.097 37.76C143.097 38.6027 142.905 39.3493 142.521 40C142.148 40.6507 141.625 41.1627 140.953 41.536C140.292 41.9093 139.54 42.096 138.697 42.096ZM138.697 40.752C139.241 40.752 139.727 40.6293 140.153 40.384C140.591 40.1387 140.932 39.792 141.177 39.344C141.423 38.8853 141.545 38.3573 141.545 37.76C141.545 37.152 141.423 36.6293 141.177 36.192C140.932 35.744 140.591 35.3973 140.153 35.152C139.727 34.9067 139.241 34.784 138.697 34.784C138.153 34.784 137.668 34.9067 137.241 35.152C136.815 35.3973 136.473 35.744 136.217 36.192C135.961 36.6293 135.833 37.152 135.833 37.76C135.833 38.3573 135.961 38.8853 136.217 39.344C136.473 39.792 136.815 40.1387 137.241 40.384C137.668 40.6293 138.153 40.752 138.697 40.752ZM149.75 33.44C150.443 33.44 151.051 33.5733 151.574 33.84C152.107 34.1067 152.523 34.512 152.822 35.056C153.12 35.6 153.27 36.288 153.27 37.12V42H151.734V37.296C151.734 36.4747 151.531 35.856 151.126 35.44C150.731 35.024 150.171 34.816 149.446 34.816C148.902 34.816 148.427 34.9227 148.022 35.136C147.616 35.3493 147.302 35.664 147.078 36.08C146.864 36.496 146.758 37.0133 146.758 37.632V42H145.222V33.52H146.694V35.808L146.454 35.2C146.731 34.6453 147.158 34.2133 147.734 33.904C148.31 33.5947 148.982 33.44 149.75 33.44ZM157.554 38.464C157.554 38.048 157.624 37.6853 157.762 37.376C157.901 37.0667 158.072 36.7893 158.274 36.544C158.488 36.2987 158.717 36.0747 158.962 35.872C159.208 35.6587 159.437 35.4507 159.65 35.248C159.864 35.0347 160.034 34.8107 160.162 34.576C160.301 34.3413 160.37 34.0693 160.37 33.76C160.37 33.248 160.168 32.832 159.762 32.512C159.357 32.192 158.797 32.032 158.082 32.032C157.442 32.032 156.888 32.1387 156.418 32.352C155.949 32.5653 155.549 32.88 155.218 33.296L154.05 32.464C154.498 31.8987 155.069 31.4613 155.762 31.152C156.456 30.832 157.266 30.672 158.194 30.672C158.962 30.672 159.629 30.7893 160.194 31.024C160.76 31.248 161.197 31.5733 161.506 32C161.826 32.416 161.986 32.9227 161.986 33.52C161.986 33.968 161.917 34.352 161.778 34.672C161.64 34.992 161.464 35.2747 161.25 35.52C161.037 35.7653 160.808 35.9947 160.562 36.208C160.328 36.4213 160.104 36.6347 159.89 36.848C159.677 37.0613 159.501 37.296 159.362 37.552C159.224 37.808 159.154 38.112 159.154 38.464H157.554ZM158.37 42.096C158.072 42.096 157.821 41.9947 157.618 41.792C157.426 41.5893 157.33 41.3493 157.33 41.072C157.33 40.7733 157.426 40.528 157.618 40.336C157.821 40.144 158.072 40.048 158.37 40.048C158.669 40.048 158.914 40.144 159.106 40.336C159.298 40.528 159.394 40.7733 159.394 41.072C159.394 41.3493 159.298 41.5893 159.106 41.792C158.914 41.9947 158.669 42.096 158.37 42.096Z"
        fill="#FFEEED" />
    <rect x="112.975" y="190.828" width="19.6573" height="6.41023" rx="3.20512" fill="#F9858E" />
    <rect x="143.57" y="190.828" width="19.6573" height="6.41023" rx="3.20512" fill="#F9858E" />
    <path
        d="M105.762 159.815C104.672 157.93 104.672 155.606 105.762 153.72L119.242 130.401C120.33 128.518 122.339 127.359 124.514 127.359H151.486C153.661 127.359 155.67 128.518 156.758 130.401L170.238 153.72C171.328 155.606 171.328 157.93 170.238 159.815L156.758 183.135C155.67 185.017 153.661 186.177 151.486 186.177H124.514C122.339 186.177 120.33 185.017 119.242 183.135L105.762 159.815Z"
        fill="#F9858E" />
    <path
        d="M138.004 164.368C145.567 164.368 151.698 158.237 151.698 150.674C151.698 143.111 145.567 136.979 138.004 136.979C130.441 136.979 124.311 143.111 124.311 150.674C124.311 158.237 130.441 164.368 138.004 164.368Z"
        fill="white" />
    <path
        d="M134.958 156.687C138.751 156.687 141.826 153.65 141.826 149.903C141.826 146.157 138.751 143.12 134.958 143.12C131.165 143.12 128.09 146.157 128.09 149.903C128.09 153.65 131.165 156.687 134.958 156.687Z"
        fill="#570029" />
    <rect x="122.893" y="117.613" width="30.703" height="9.91942" fill="#782E2E" />
    <path
        d="M137.684 111.076C137.898 111.026 138.12 111.026 138.333 111.076L164.266 117.178C165.723 117.521 165.723 119.594 164.266 119.937L138.333 126.039C138.12 126.089 137.898 126.089 137.684 126.039L111.751 119.937C110.294 119.594 110.294 117.521 111.751 117.178L137.684 111.076Z"
        fill="#371616" />
    <path d="M118.171 127.06L118.171 119.975L137.537 115.487" stroke="#782E2E"
        stroke-width="2.36177" stroke-linecap="round" stroke-linejoin="round" />
    <rect x="245.998" y="192.144" width="19.7091" height="6.42712" rx="3.21356" fill="#EB9413" />
    <rect x="276.676" y="192.144" width="19.7091" height="6.42712" rx="3.21356" fill="#EB9413" />
    <path
        d="M238.736 160.997C237.662 159.139 237.662 156.849 238.736 154.991L252.312 131.504C253.384 129.65 255.364 128.507 257.507 128.507H284.672C286.815 128.507 288.795 129.65 289.867 131.504L303.443 154.991C304.517 156.849 304.517 159.139 303.443 160.997L289.867 184.483C288.795 186.338 286.815 187.48 284.672 187.48H257.507C255.364 187.48 253.384 186.338 252.312 184.483L238.736 160.997Z"
        fill="#EB9413" />
    <path
        d="M271.095 165.614C278.678 165.614 284.825 159.467 284.825 151.884C284.825 144.301 278.678 138.153 271.095 138.153C263.512 138.153 257.365 144.301 257.365 151.884C257.365 159.467 263.512 165.614 271.095 165.614Z"
        fill="white" />
    <path
        d="M268.041 157.913C271.844 157.913 274.927 154.868 274.927 151.112C274.927 147.355 271.844 144.311 268.041 144.311C264.237 144.311 261.154 147.355 261.154 151.112C261.154 154.868 264.237 157.913 268.041 157.913Z"
        fill="#570029" />
    <ellipse cx="290.019" cy="121.578" rx="7.57758" ry="7.57757" fill="#3C1717" />
    <ellipse cx="290.019" cy="136.733" rx="7.57758" ry="7.57757" fill="#3C1717" />
    <ellipse cx="297.621" cy="129.18" rx="7.57757" ry="7.57757" fill="#3C1717" />
    <ellipse cx="282.466" cy="129.18" rx="7.57757" ry="7.57757" fill="#3C1717" />
    <ellipse cx="290.016" cy="129.183" rx="4.78142" ry="4.78142" fill="#FFEEED" />
    <defs>
        <filter id="filter0_b_3921_1609" x="-40" y="-40" width="264" height="167.259"
            filterUnits="userSpaceOnUse" color-interpolation-filters="sRGB">
            <feFlood flood-opacity="0" result="BackgroundImageFix" />
            <feGaussianBlur in="BackgroundImageFix" stdDeviation="20" />
            <feComposite in2="SourceAlpha" operator="in" result="effect1_backgroundBlur_3921_1609" />
            <feBlend mode="normal" in="SourceGraphic" in2="effect1_backgroundBlur_3921_1609"
                result="shape" />
        </filter>
        <filter id="filter1_b_3921_1609" x="247" y="-28" width="261" height="163.344"
            filterUnits="userSpaceOnUse" color-interpolation-filters="sRGB">
            <feFlood flood-opacity="0" result="BackgroundImageFix" />
            <feGaussianBlur in="BackgroundImageFix" stdDeviation="20" />
            <feComposite in2="SourceAlpha" operator="in" result="effect1_backgroundBlur_3921_1609" />
            <feBlend mode="normal" in="SourceGraphic" in2="effect1_backgroundBlur_3921_1609"
                result="shape" />
        </filter>
        <linearGradient id="paint0_linear_3921_1609" x1="125.941" y1="36.7024" x2="131.343"
            y2="184.982" gradientUnits="userSpaceOnUse">
            <stop stop-color="white" stop-opacity="0.15" />
            <stop offset="1" stop-color="white" stop-opacity="0" />
        </linearGradient>
        <linearGradient id="paint1_linear_3921_1609" x1="326.749" y1="37.6282" x2="332.151"
            y2="185.908" gradientUnits="userSpaceOnUse">
            <stop stop-color="white" stop-opacity="0.15" />
            <stop offset="1" stop-color="white" stop-opacity="0" />
        </linearGradient>
        <linearGradient id="paint2_linear_3921_1609" x1="91.9834" y1="-27.4203" x2="91.9834"
            y2="58.4106" gradientUnits="userSpaceOnUse">
            <stop stop-color="white" stop-opacity="0.15" />
            <stop offset="1" stop-color="white" stop-opacity="0.05" />
        </linearGradient>
        <linearGradient id="paint3_linear_3921_1609" x1="377.516" y1="-14.188" x2="377.516"
            y2="67.7854" gradientUnits="userSpaceOnUse">
            <stop stop-color="white" stop-opacity="0.15" />
            <stop offset="1" stop-color="white" stop-opacity="0.05" />
        </linearGradient>
    </defs>
</svg>
    