<svg width="166" height="166" viewBox="0 0 166 166" fill="none" xmlns="http://www.w3.org/2000/svg">
<mask id="path-1-inside-1_3761_269" fill="white">
<path fill-rule="evenodd" clip-rule="evenodd" d="M50.8858 74.7122L62.0084 55.4474C62.159 55.1865 62.4374 55.0258 62.7386 55.0258H84.9838C85.285 55.0258 85.5634 55.1865 85.714 55.4474L92.7741 67.6758H79.598C78.393 67.6758 77.2795 68.3186 76.677 69.3622L65.5544 88.6271C64.9519 89.6707 64.9519 90.9564 65.5544 92L67.4262 95.2419H62.7386C62.4374 95.2419 62.159 95.0812 62.0084 94.8203L50.8858 75.5554C50.7352 75.2946 50.7352 74.9731 50.8858 74.7122ZM68.8867 97.7716H62.7386C61.5336 97.7716 60.4201 97.1287 59.8176 96.0851L48.695 76.8203C48.0925 75.7767 48.0925 74.491 48.695 73.4474L59.8176 54.1825C60.4201 53.139 61.5336 52.4961 62.7386 52.4961H84.9838C86.1888 52.4961 87.3023 53.139 87.9048 54.1825L95.6951 67.6758H92.7741L96.8366 74.7122C96.9872 74.9731 96.9872 75.2945 96.8366 75.5554L85.714 94.8203C85.5634 95.0812 85.285 95.2419 84.9838 95.2419H67.4262L68.8867 97.7716ZM68.8867 97.7716L76.677 111.265C77.2795 112.308 78.393 112.951 79.598 112.951H101.843C103.048 112.951 104.162 112.308 104.764 111.265L115.887 92C116.489 90.9564 116.489 89.6707 115.887 88.6271L104.764 69.3622C104.162 68.3186 103.048 67.6758 101.843 67.6758H95.6951L99.0273 73.4474C99.6298 74.491 99.6298 75.7767 99.0273 76.8203L87.9048 96.0851C87.3023 97.1287 86.1888 97.7716 84.9838 97.7716H68.8867Z"/>
</mask>
<path fill-rule="evenodd" clip-rule="evenodd" d="M50.8858 74.7122L62.0084 55.4474C62.159 55.1865 62.4374 55.0258 62.7386 55.0258H84.9838C85.285 55.0258 85.5634 55.1865 85.714 55.4474L92.7741 67.6758H79.598C78.393 67.6758 77.2795 68.3186 76.677 69.3622L65.5544 88.6271C64.9519 89.6707 64.9519 90.9564 65.5544 92L67.4262 95.2419H62.7386C62.4374 95.2419 62.159 95.0812 62.0084 94.8203L50.8858 75.5554C50.7352 75.2946 50.7352 74.9731 50.8858 74.7122ZM68.8867 97.7716H62.7386C61.5336 97.7716 60.4201 97.1287 59.8176 96.0851L48.695 76.8203C48.0925 75.7767 48.0925 74.491 48.695 73.4474L59.8176 54.1825C60.4201 53.139 61.5336 52.4961 62.7386 52.4961H84.9838C86.1888 52.4961 87.3023 53.139 87.9048 54.1825L95.6951 67.6758H92.7741L96.8366 74.7122C96.9872 74.9731 96.9872 75.2945 96.8366 75.5554L85.714 94.8203C85.5634 95.0812 85.285 95.2419 84.9838 95.2419H67.4262L68.8867 97.7716ZM68.8867 97.7716L76.677 111.265C77.2795 112.308 78.393 112.951 79.598 112.951H101.843C103.048 112.951 104.162 112.308 104.764 111.265L115.887 92C116.489 90.9564 116.489 89.6707 115.887 88.6271L104.764 69.3622C104.162 68.3186 103.048 67.6758 101.843 67.6758H95.6951L99.0273 73.4474C99.6298 74.491 99.6298 75.7767 99.0273 76.8203L87.9048 96.0851C87.3023 97.1287 86.1888 97.7716 84.9838 97.7716H68.8867Z" fill="#F05C5B"/>
<path d="M62.0084 55.4474L59.0874 53.7609L59.0874 53.7609L62.0084 55.4474ZM50.8858 74.7122L47.9648 73.0258L47.9648 73.0258L50.8858 74.7122ZM85.714 55.4474L82.793 57.1338L82.793 57.1338L85.714 55.4474ZM76.677 69.3622L79.598 71.0487L79.598 71.0487L76.677 69.3622ZM65.5544 88.6271L68.4754 90.3135L68.4754 90.3135L65.5544 88.6271ZM65.5544 92L68.4754 90.3135L68.4754 90.3135L65.5544 92ZM62.0084 94.8203L64.9294 93.1339L64.9294 93.1339L62.0084 94.8203ZM50.8858 75.5554L53.8068 73.869L53.8068 73.869L50.8858 75.5554ZM59.8176 96.0851L56.8966 97.7716L56.8966 97.7716L59.8176 96.0851ZM48.695 76.8203L51.616 75.1338L51.616 75.1338L48.695 76.8203ZM48.695 73.4474L51.616 75.1338L51.616 75.1338L48.695 73.4474ZM59.8176 54.1825L62.7386 55.869L62.7386 55.869L59.8176 54.1825ZM87.9048 54.1825L90.8258 52.4961L90.8258 52.4961L87.9048 54.1825ZM96.8366 74.7122L99.7576 73.0258L99.7576 73.0258L96.8366 74.7122ZM96.8366 75.5554L93.9156 73.869L93.9156 73.869L96.8366 75.5554ZM85.714 94.8203L88.635 96.5068L88.635 96.5067L85.714 94.8203ZM76.677 111.265L79.598 109.578L79.598 109.578L76.677 111.265ZM104.764 111.265L107.685 112.951L107.685 112.951L104.764 111.265ZM115.887 92L112.966 90.3135L112.966 90.3135L115.887 92ZM115.887 88.6271L112.966 90.3135L112.966 90.3135L115.887 88.6271ZM104.764 69.3622L107.685 67.6758L107.685 67.6758L104.764 69.3622ZM99.0273 73.4474L96.1063 75.1338L96.1063 75.1338L99.0273 73.4474ZM99.0273 76.8203L96.1063 75.1338L96.1063 75.1338L99.0273 76.8203ZM87.9048 96.0851L90.8258 97.7716L90.8258 97.7716L87.9048 96.0851ZM59.0874 53.7609L47.9648 73.0258L53.8068 76.3987L64.9294 57.1338L59.0874 53.7609ZM62.7386 51.6529C61.2323 51.6529 59.8405 52.4565 59.0874 53.7609L64.9294 57.1338C64.4775 57.9165 63.6424 58.3986 62.7386 58.3986V51.6529ZM84.9838 51.6529H62.7386V58.3986H84.9838V51.6529ZM88.635 53.7609C87.8819 52.4565 86.49 51.6529 84.9838 51.6529V58.3986C84.08 58.3986 83.2449 57.9165 82.793 57.1338L88.635 53.7609ZM95.6951 65.9893L88.635 53.7609L82.793 57.1338L89.8531 69.3622L95.6951 65.9893ZM79.598 71.0487H92.7741V64.3029H79.598V71.0487ZM79.598 71.0487L79.598 71.0487V64.3029C77.188 64.3029 74.961 65.5886 73.756 67.6758L79.598 71.0487ZM68.4754 90.3135L79.598 71.0487L73.756 67.6758L62.6334 86.9406L68.4754 90.3135ZM68.4754 90.3135L68.4754 90.3135L62.6334 86.9406C61.4284 89.0278 61.4284 91.5993 62.6334 93.6864L68.4754 90.3135ZM70.3472 93.5555L68.4754 90.3135L62.6334 93.6864L64.5052 96.9284L70.3472 93.5555ZM62.7386 98.6148H67.4262V91.869H62.7386V98.6148ZM59.0874 96.5067C59.8405 97.8112 61.2323 98.6148 62.7386 98.6148V91.869C63.6424 91.869 64.4775 92.3512 64.9294 93.1339L59.0874 96.5067ZM47.9648 77.2419L59.0874 96.5067L64.9294 93.1339L53.8068 73.869L47.9648 77.2419ZM47.9648 73.0258C47.2117 74.3302 47.2117 75.9374 47.9648 77.2419L53.8068 73.869C54.2587 74.6517 54.2587 75.616 53.8068 76.3987L47.9648 73.0258ZM62.7386 101.144H68.8867V94.3987H62.7386V101.144ZM56.8966 97.7716C58.1016 99.8587 60.3286 101.144 62.7386 101.144V94.3987L62.7386 94.3987L56.8966 97.7716ZM45.774 78.5067L56.8966 97.7716L62.7386 94.3987L51.616 75.1338L45.774 78.5067ZM45.774 71.761C44.569 73.8481 44.569 76.4196 45.774 78.5067L51.616 75.1338L51.616 75.1338L45.774 71.761ZM56.8966 52.4961L45.774 71.761L51.616 75.1338L62.7386 55.869L56.8966 52.4961ZM62.7386 49.1232C60.3286 49.1232 58.1016 50.4089 56.8966 52.4961L62.7386 55.869L62.7386 55.869V49.1232ZM84.9838 49.1232H62.7386V55.869H84.9838V49.1232ZM90.8258 52.4961C89.6207 50.409 87.3938 49.1232 84.9838 49.1232V55.869L84.9838 55.869L90.8258 52.4961ZM98.6161 65.9893L90.8258 52.4961L84.9838 55.869L92.7741 69.3622L98.6161 65.9893ZM92.7741 71.0487H95.6951V64.3029H92.7741V71.0487ZM99.7576 73.0258L95.6951 65.9893L89.8531 69.3622L93.9156 76.3987L99.7576 73.0258ZM99.7576 77.2419C100.511 75.9374 100.511 74.3302 99.7576 73.0258L93.9156 76.3986C93.4637 75.616 93.4637 74.6517 93.9156 73.869L99.7576 77.2419ZM88.635 96.5067L99.7576 77.2419L93.9156 73.869L82.793 93.1339L88.635 96.5067ZM84.9838 98.6148C86.49 98.6148 87.8819 97.8112 88.635 96.5068L82.793 93.1339C83.2449 92.3512 84.08 91.869 84.9838 91.869V98.6148ZM67.4262 98.6148H84.9838V91.869H67.4262V98.6148ZM71.8077 96.0851L70.3472 93.5555L64.5052 96.9284L65.9657 99.458L71.8077 96.0851ZM79.598 109.578L71.8077 96.0851L65.9657 99.458L73.756 112.951L79.598 109.578ZM79.598 109.578L79.598 109.578L73.756 112.951C74.961 115.038 77.188 116.324 79.598 116.324V109.578ZM101.843 109.578H79.598V116.324H101.843V109.578ZM101.843 109.578L101.843 109.578V116.324C104.253 116.324 106.48 115.038 107.685 112.951L101.843 109.578ZM112.966 90.3135L101.843 109.578L107.685 112.951L118.808 93.6864L112.966 90.3135ZM112.966 90.3135V90.3135L118.808 93.6864C120.013 91.5993 120.013 89.0278 118.808 86.9406L112.966 90.3135ZM101.843 71.0487L112.966 90.3135L118.808 86.9406L107.685 67.6758L101.843 71.0487ZM101.843 71.0487L101.843 71.0487L107.685 67.6758C106.48 65.5886 104.253 64.3029 101.843 64.3029V71.0487ZM95.6951 71.0487H101.843V64.3029H95.6951V71.0487ZM101.948 71.761L98.6161 65.9893L92.7741 69.3622L96.1063 75.1338L101.948 71.761ZM101.948 78.5067C103.153 76.4196 103.153 73.8481 101.948 71.761L96.1063 75.1338V75.1338L101.948 78.5067ZM90.8258 97.7716L101.948 78.5067L96.1063 75.1338L84.9838 94.3987L90.8258 97.7716ZM84.9838 101.144C87.3938 101.144 89.6207 99.8587 90.8258 97.7716L84.9838 94.3987L84.9838 94.3987V101.144ZM68.8867 101.144H84.9838V94.3987H68.8867V101.144Z" fill="#F05C5B" mask="url(#path-1-inside-1_3761_269)"/>
<path d="M153.527 86.4256L162.502 83.5381L162.143 86.1817L154.065 88.5511L154.165 87.7118L161.358 91.9664L160.978 94.7671L152.912 96.9515L153.038 96.1157L160.194 100.552L159.84 103.156L151.954 98.0211L152.371 94.9455L160.021 92.7846L159.906 93.6353L153.109 89.5011L153.527 86.4256Z" fill="#F05C5B"/>
<path d="M153.323 105.816L151.75 105.233L148.966 112.737L147.196 112.08L150.811 102.335L158.785 105.293L155.175 115.026L153.404 114.369L156.183 106.877L154.598 106.289L152.324 112.419L151.049 111.946L153.323 105.816Z" fill="#F05C5B"/>
<path d="M145.551 118.598L146.963 119.503L143.162 125.428L141.751 124.523L145.551 118.598ZM145.517 115.642L150.145 124.18L148.726 126.393L139.007 125.791L140.419 123.59L149.059 124.284L148.36 125.373L144.105 117.843L145.517 115.642Z" fill="#F05C5B"/>
<path d="M138.6 126.251L144.871 131.997L139.731 137.606C139.243 138.138 138.747 138.543 138.242 138.821C137.737 139.111 137.231 139.232 136.725 139.186C136.218 139.152 135.725 138.915 135.245 138.475C134.927 138.183 134.711 137.878 134.597 137.559C134.478 137.246 134.448 136.927 134.509 136.6C134.563 136.28 134.677 135.96 134.85 135.641C135.029 135.328 135.243 135.016 135.492 134.706L135.928 134.425C135.386 135.004 134.925 135.435 134.545 135.72C134.171 136.01 133.832 136.153 133.526 136.147C133.214 136.148 132.896 136 132.572 135.703L131.14 134.391L132.755 132.629L134.012 133.78C134.239 133.988 134.446 134.107 134.635 134.136C134.823 134.165 135.047 134.084 135.306 133.892C135.573 133.705 135.914 133.385 136.33 132.931L139.078 129.932L136.985 128.013L138.6 126.251ZM140.344 131.092L136.82 134.938C136.552 135.23 136.406 135.52 136.381 135.808C136.356 136.096 136.467 136.352 136.714 136.578C136.954 136.799 137.206 136.875 137.471 136.807C137.743 136.745 138.013 136.569 138.28 136.276L141.805 132.43L140.344 131.092Z" fill="#F05C5B"/>
<path d="M130.309 139.667L129.283 138.34L122.951 143.235L121.796 141.741L130.019 135.384L135.221 142.113L127.008 148.462L125.853 146.968L132.175 142.081L131.141 140.744L125.969 144.742L125.137 143.666L130.309 139.667Z" fill="#F05C5B"/>
<path d="M111.071 152.018L112.895 155.918L110.729 156.931L108.76 152.72C108.488 152.138 108.348 151.59 108.342 151.078C108.34 150.574 108.443 150.098 108.651 149.65C108.864 149.211 109.158 148.801 109.535 148.421C109.907 148.053 110.339 147.709 110.832 147.391C111.325 147.074 111.85 146.784 112.409 146.523C112.991 146.251 113.57 146.024 114.146 145.842C114.714 145.664 115.262 145.548 115.792 145.495C116.317 145.454 116.812 145.494 117.277 145.617C117.739 145.751 118.162 145.981 118.547 146.306C118.928 146.643 119.255 147.102 119.527 147.685L121.497 151.896L119.331 152.909L117.507 149.008C117.22 148.394 116.869 147.985 116.452 147.781C116.032 147.589 115.551 147.547 115.008 147.655C114.466 147.763 113.871 147.968 113.225 148.27C112.595 148.564 112.069 148.883 111.646 149.227C111.216 149.574 110.94 149.97 110.818 150.416C110.699 150.87 110.784 151.404 111.071 152.018Z" fill="#F05C5B"/>
<path d="M102.894 150.594L108.599 158.1L105.986 158.64L101.068 151.807L101.893 151.623L100.269 159.821L97.5012 160.393L92.7614 153.51L93.5919 153.352L91.7843 161.574L89.2105 162.106L91.4343 152.961L94.4738 152.333L99.0532 158.832L98.2125 159.005L99.8544 151.222L102.894 150.594Z" fill="#F05C5B"/>
<path d="M84.4066 155.813L84.3725 157.583L79.3678 157.486C78.9805 157.478 78.6707 157.561 78.4384 157.732C78.1971 157.912 78.0729 158.192 78.0655 158.57C78.0581 158.958 78.1715 159.242 78.4058 159.422C78.6311 159.612 78.9374 159.71 79.3247 159.718L84.1181 159.81L84.2443 153.274L86.6343 153.32L86.4702 161.824L79.5905 161.691C79.0359 161.68 78.5175 161.617 78.0354 161.502C77.5532 161.387 77.134 161.208 76.7776 160.963C76.4213 160.718 76.1457 160.396 75.9509 159.996C75.7561 159.596 75.6643 159.105 75.6755 158.524C75.6867 157.943 75.7972 157.465 76.007 157.091C76.2166 156.725 76.5039 156.44 76.8689 156.236C77.2339 156.031 77.6593 155.89 78.1452 155.811C78.6309 155.741 79.1511 155.712 79.7057 155.722L84.4066 155.813Z" fill="#F05C5B"/>
<path d="M66.5996 152.311L67.863 152.592L60.5049 158.721L58.1714 158.202L60.0194 149.899L62.3528 150.419L61.0443 156.297L60.4514 155.922L66.0527 151.242L68.7729 151.848L71.8793 158.438L71.183 158.527L72.4857 152.674L74.8192 153.193L72.9712 161.496L70.6378 160.976L66.5996 152.311Z" fill="#F05C5B"/>
<path d="M53.5215 152.668L50.1848 151.168L51.6796 147.843L55.0163 149.344L53.5215 152.668Z" fill="#F05C5B"/>
<path d="M44.9009 142.45L43.0182 151.689L40.8897 150.08L42.7845 141.877L43.4668 142.376L36.2324 146.56L33.9775 144.856L36.0278 136.755L36.6942 137.275L29.3202 141.337L27.2234 139.752L35.5652 135.395L38.0414 137.266L36.1747 144.994L35.4898 144.476L42.4247 140.579L44.9009 142.45Z" fill="#F05C5B"/>
<path d="M28.045 132.675L29.326 131.592L24.1589 125.479L25.6013 124.26L32.3116 132.198L25.8161 137.689L19.1143 129.761L20.5566 128.542L25.7151 134.644L27.0061 133.553L22.7856 128.56L23.8244 127.682L28.045 132.675Z" fill="#F05C5B"/>
<path d="M20.7755 119.726L19.295 120.515L15.9862 114.301L17.4667 113.513L20.7755 119.726ZM23.3702 121.143L13.659 121.002L12.4237 118.682L17.7025 110.5L18.9316 112.808L14.1002 120.004L13.4918 118.862L22.141 118.835L23.3702 121.143Z" fill="#F05C5B"/>
<path d="M17.5361 110.021L9.45595 112.677L7.08034 105.45C6.85488 104.764 6.74474 104.133 6.74992 103.556C6.74399 102.974 6.88529 102.474 7.17383 102.054C7.45125 101.63 7.89945 101.315 8.51843 101.112C8.92829 100.977 9.30016 100.938 9.63405 100.996C9.96519 101.044 10.2584 101.175 10.5137 101.388C10.7662 101.592 10.9893 101.848 11.1829 102.155C11.3682 102.465 11.5352 102.804 11.684 103.172L11.7153 103.69C11.4762 102.934 11.3256 102.321 11.2635 101.85C11.1931 101.382 11.235 101.016 11.3892 100.752C11.5407 100.48 11.8256 100.275 12.2438 100.138L14.0882 99.5314L14.8347 101.802L13.2161 102.334C12.9234 102.431 12.7182 102.554 12.6006 102.704C12.4831 102.853 12.4445 103.089 12.4849 103.409C12.517 103.732 12.6293 104.186 12.8217 104.772L14.092 108.636L16.7896 107.75L17.5361 110.021ZM12.4609 109.172L10.8318 104.216C10.7081 103.84 10.5269 103.571 10.2881 103.408C10.0493 103.246 9.77098 103.217 9.45313 103.321C9.14364 103.423 8.95354 103.606 8.88283 103.87C8.80376 104.137 8.82609 104.459 8.94982 104.835L10.5789 109.791L12.4609 109.172Z" fill="#F05C5B"/>
<path d="M9.88678 96.1705L11.5471 95.9323L10.4103 88.0098L12.2798 87.7416L13.7561 98.0303L5.33686 99.2384L3.86243 88.9627L5.73192 88.6944L6.86682 96.6038L8.54022 96.3637L7.61167 89.8924L8.95823 89.6992L9.88678 96.1705Z" fill="#F05C5B"/>
<path d="M8.6219 73.0329L4.33044 72.6845L4.52386 70.3018L9.15758 70.678C9.79823 70.73 10.3426 70.8802 10.7906 71.1285C11.2299 71.3762 11.5921 71.7016 11.8774 72.1046C12.154 72.5069 12.3641 72.9656 12.5078 73.4808C12.6434 73.9865 12.7272 74.5322 12.7591 75.1178C12.7911 75.7034 12.7822 76.3034 12.7323 76.9177C12.6803 77.5584 12.5906 78.1739 12.4631 78.7642C12.3364 79.3458 12.165 79.8796 11.9489 80.3656C11.7247 80.8421 11.4441 81.2522 11.107 81.5958C10.7618 81.93 10.3525 82.1839 9.87909 82.3574C9.39757 82.5215 8.83649 82.5776 8.19585 82.5256L3.56212 82.1494L3.75553 79.7667L8.047 80.1151C8.72275 80.17 9.25229 80.0672 9.63561 79.8068C10.0109 79.5369 10.2861 79.1396 10.4612 78.615C10.6362 78.0903 10.7526 77.4726 10.8104 76.7617C10.8666 76.0684 10.8503 75.4531 10.7614 74.9159C10.6732 74.3699 10.4657 73.9334 10.1389 73.6065C9.80333 73.2789 9.29766 73.0877 8.6219 73.0329Z" fill="#F05C5B"/>
<path d="M13.8189 66.816L4.47781 68.0949L5.29178 65.5542L13.6596 64.6292L13.4143 65.4382L7.07283 59.9949L7.93516 57.3033L16.2592 56.5585L15.9887 57.3594L9.71621 51.744L10.5181 49.2411L17.389 55.6723L16.4421 58.628L8.53219 59.4223L8.79411 58.6048L14.7658 63.8603L13.8189 66.816Z" fill="#F05C5B"/>
<path d="M18.2416 48.3189L16.7178 47.4187L19.2638 43.109C19.4608 42.7754 19.5418 42.4653 19.5066 42.1787C19.4683 41.8799 19.2862 41.6343 18.9602 41.4417C18.6266 41.2447 18.3236 41.2037 18.0511 41.3188C17.7754 41.4219 17.5391 41.6402 17.342 41.9737L14.9036 46.1015L20.5324 49.4267L19.3165 51.4849L11.9934 47.1588L15.4932 41.2344C15.7753 40.7568 16.085 40.3364 16.4223 39.9732C16.7596 39.6099 17.1224 39.3334 17.5107 39.1435C17.899 38.9536 18.3152 38.8722 18.7593 38.8994C19.2035 38.9266 19.6757 39.0879 20.1761 39.3835C20.6764 39.6791 21.0381 40.0103 21.261 40.3772C21.4764 40.7397 21.5833 41.1301 21.5816 41.5484C21.58 41.9667 21.4939 42.4067 21.3234 42.8684C21.1453 43.3257 20.9152 43.7931 20.633 44.2707L18.2416 48.3189Z" fill="#F05C5B"/>
<path d="M29.9277 34.6357L29.0637 35.5995L27.3246 26.1825L28.9204 24.4026L35.2534 30.0802L33.6577 31.8602L29.1734 27.84L29.7912 27.507L31.1274 34.6825L29.2671 36.7575L21.9997 36.2374L22.2635 35.587L26.7281 39.5896L25.1323 41.3696L18.7993 35.6919L20.395 33.912L29.9277 34.6357Z" fill="#F05C5B"/>
<path d="M36.1106 22.9193L39.0533 20.7456L41.219 23.6777L38.2763 25.8513L36.1106 22.9193Z" fill="#F05C5B"/>
<path d="M49.1037 20.4144L41.9743 14.2449L44.4196 13.1781L50.6405 18.8506L49.871 19.2007L49.7703 10.844L52.3609 9.71393L58.4176 15.4724L57.6376 15.7983L57.7116 7.37982L60.1206 6.32894L59.8293 15.7356L56.9844 16.9766L51.1641 11.5617L51.9509 11.2184L51.9485 19.1734L49.1037 20.4144Z" fill="#F05C5B"/>
<path d="M65.8562 10.4652L66.1705 12.1128L74.0323 10.6133L74.3862 12.4685L64.1761 14.4159L62.5825 6.06103L72.7796 4.11606L73.1335 5.97126L65.2846 7.46834L65.6013 9.12894L72.0232 7.90405L72.278 9.24032L65.8562 10.4652Z" fill="#F05C5B"/>
<path d="M81.1049 10.4434L81.1502 8.76672L88.1871 8.95689L88.1418 10.6336L81.1049 10.4434ZM78.5921 12.0006L83.5088 3.62488L86.1361 3.69588L90.646 12.3264L88.0319 12.2557L84.1589 4.50124L85.4527 4.5362L81.2062 12.0713L78.5921 12.0006Z" fill="#F05C5B"/>
<path d="M91.3793 12.4258L93.0685 4.08969L100.524 5.60056C101.232 5.74395 101.835 5.96047 102.333 6.25011C102.842 6.53286 103.207 6.90332 103.429 7.36148C103.661 7.81276 103.712 8.35769 103.583 8.99627C103.497 9.41912 103.347 9.7615 103.132 10.0234C102.926 10.2871 102.667 10.4773 102.356 10.5939C102.053 10.7123 101.721 10.7796 101.358 10.796C100.997 10.8037 100.62 10.7812 100.226 10.7283L99.7608 10.4992C100.536 10.6652 101.143 10.8377 101.583 11.0167C102.025 11.1871 102.322 11.4045 102.475 11.6691C102.637 11.9354 102.674 12.2843 102.586 12.7158L102.201 14.6186L99.8578 14.1438L100.196 12.474C100.257 12.172 100.252 11.9328 100.18 11.7565C100.108 11.5802 99.9225 11.4304 99.6241 11.307C99.3274 11.175 98.877 11.0478 98.273 10.9254L94.2862 10.1175L93.7222 12.9005L91.3793 12.4258ZM94.6271 8.43478L99.7401 9.47088C100.128 9.54957 100.452 9.52535 100.712 9.39823C100.971 9.27111 101.134 9.04359 101.2 8.71567C101.265 8.39638 101.2 8.14065 101.005 7.94848C100.812 7.74768 100.522 7.60794 100.134 7.52925L95.0206 6.49315L94.6271 8.43478Z" fill="#F05C5B"/>
<path d="M107.174 12.6039L106.561 14.1653L114.012 17.0891L113.322 18.8472L103.646 15.0501L106.753 7.13247L116.417 10.9247L115.727 12.6828L108.289 9.76386L107.671 11.3376L113.757 13.7258L113.26 14.9921L107.174 12.6039Z" fill="#F05C5B"/>
<path d="M127.663 22.7688L130.08 19.2056L132.059 20.5474L129.449 24.3949C129.088 24.9268 128.689 25.3266 128.253 25.5942C127.821 25.8545 127.359 26.0095 126.868 26.0593C126.382 26.1019 125.879 26.0588 125.36 25.9301C124.853 25.799 124.337 25.6032 123.811 25.3426C123.286 25.082 122.768 24.7787 122.258 24.4327C121.726 24.0719 121.235 23.6907 120.783 23.2891C120.34 22.8923 119.96 22.4802 119.643 22.0528C119.339 21.623 119.12 21.1768 118.987 20.7142C118.866 20.2492 118.847 19.768 118.929 19.2704C119.023 18.7705 119.251 18.2546 119.612 17.7227L122.221 13.8752L124.2 15.2171L121.783 18.7803C121.402 19.3414 121.231 19.8529 121.269 20.3148C121.319 20.7743 121.529 21.2094 121.899 21.6202C122.27 22.031 122.75 22.4366 123.34 22.8369C123.916 23.2274 124.46 23.5162 124.971 23.7034C125.489 23.8956 125.972 23.93 126.417 23.8066C126.867 23.6758 127.283 23.3299 127.663 22.7688Z" fill="#F05C5B"/>
<path d="M130.377 30.2159L133.836 21.4451L135.652 23.3989L132.361 31.1478L131.776 30.5378L139.627 27.6739L141.552 29.7437L138.126 37.3663L137.56 36.7383L145.527 34.0188L147.317 35.9435L138.345 38.7854L136.232 36.5125L139.412 29.2267L139.997 29.8554L132.49 32.4889L130.377 30.2159Z" fill="#F05C5B"/>
<path d="M144.478 43.2874L146.009 42.3985L148.523 46.7268C148.717 47.0618 148.948 47.2841 149.215 47.3936C149.495 47.5063 149.798 47.4676 150.125 47.2774C150.46 47.0828 150.644 46.8385 150.677 46.5445C150.722 46.2537 150.647 45.9408 150.453 45.6058L148.045 41.4601L142.392 44.7438L141.191 42.6766L148.546 38.4046L152.002 44.3547C152.28 44.8343 152.496 45.3101 152.648 45.7819C152.799 46.2537 152.863 46.7054 152.839 47.137C152.815 47.5686 152.682 47.9714 152.441 48.3455C152.2 48.7196 151.829 49.0526 151.326 49.3445C150.824 49.6364 150.358 49.7899 149.929 49.8049C149.507 49.8155 149.114 49.7178 148.75 49.5118C148.386 49.3058 148.045 49.0155 147.725 48.641C147.414 48.262 147.118 47.8327 146.84 47.3531L144.478 43.2874Z" fill="#F05C5B"/>
<path d="M150.656 60.0816L150.238 58.8567L159.303 61.9453L160.075 64.2077L152.025 66.9549L151.253 64.6925L156.953 62.7473L156.941 63.449L150.029 61.1052L149.129 58.4678L153.136 52.3831L153.575 52.9313L147.9 54.868L147.128 52.6056L155.177 49.8583L155.95 52.1207L150.656 60.0816Z" fill="#F05C5B"/>
<path d="M157.823 71.196L158.273 74.8266L154.655 75.275L154.205 71.6444L157.823 71.196Z" fill="#F05C5B"/>
</svg>
