<svg width="560" height="230" viewBox="0 0 560 230" fill="none" xmlns="http://www.w3.org/2000/svg">
<path d="M10.272 35.352V29.592H26.448C27.984 29.592 29.216 29.208 30.144 28.44C31.072 27.64 31.536 26.488 31.536 24.984C31.536 23.416 31.072 22.248 30.144 21.48C29.216 20.712 27.984 20.328 26.448 20.328H11.04V45H3.552V13.992H25.584C27.44 13.992 29.184 14.2 30.816 14.616C32.48 15 33.92 15.624 35.136 16.488C36.352 17.352 37.296 18.488 37.968 19.896C38.672 21.272 39.024 22.968 39.024 24.984C39.024 26.968 38.672 28.632 37.968 29.976C37.296 31.288 36.352 32.344 35.136 33.144C33.92 33.944 32.48 34.52 30.816 34.872C29.184 35.192 27.44 35.352 25.584 35.352H10.272ZM72.0135 41.736H68.1255L87.6615 13.992H95.1975V45H87.6615V22.776L89.6295 23.4L74.4135 45H65.8215L50.6055 23.496L52.5735 22.872V45H45.0855V13.992H52.5735L72.0135 41.736ZM135.767 32.136V13.992H143.303V32.76C143.303 34.424 142.983 36.024 142.343 37.56C141.703 39.096 140.743 40.456 139.463 41.64C138.183 42.824 136.583 43.768 134.663 44.472C132.743 45.144 130.487 45.48 127.895 45.48C125.975 45.48 124.087 45.256 122.231 44.808C120.407 44.328 118.759 43.624 117.287 42.696C115.815 41.736 114.631 40.52 113.735 39.048C112.871 37.544 112.407 35.752 112.343 33.672H119.495C119.847 35.528 120.759 36.92 122.231 37.848C123.735 38.776 125.623 39.24 127.895 39.24C129.847 39.24 131.383 38.936 132.503 38.328C133.655 37.688 134.487 36.84 134.999 35.784C135.511 34.696 135.767 33.48 135.767 32.136ZM165.338 45.624C161.914 45.624 158.954 45.16 156.458 44.232C153.962 43.272 152.026 41.88 150.65 40.056C149.306 38.2 148.634 35.912 148.634 33.192C148.634 30.44 149.306 28.136 150.65 26.28C152.026 24.392 153.962 22.984 156.458 22.056C158.954 21.128 161.914 20.664 165.338 20.664C168.762 20.664 171.706 21.128 174.17 22.056C176.666 22.984 178.586 24.392 179.93 26.28C181.306 28.136 181.994 30.44 181.994 33.192C181.994 35.912 181.306 38.2 179.93 40.056C178.586 41.88 176.666 43.272 174.17 44.232C171.706 45.16 168.762 45.624 165.338 45.624ZM165.338 40.392C167.162 40.392 168.762 40.12 170.138 39.576C171.514 39 172.586 38.184 173.354 37.128C174.154 36.04 174.554 34.728 174.554 33.192C174.554 31.624 174.154 30.296 173.354 29.208C172.586 28.088 171.514 27.256 170.138 26.712C168.794 26.136 167.194 25.848 165.338 25.848C163.546 25.848 161.946 26.136 160.538 26.712C159.13 27.256 158.026 28.072 157.226 29.16C156.426 30.248 156.026 31.592 156.026 33.192C156.026 34.728 156.41 36.04 157.178 37.128C157.978 38.184 159.082 39 160.49 39.576C161.898 40.12 163.514 40.392 165.338 40.392ZM207.272 45.576C205.032 45.576 203.08 45.224 201.416 44.52C199.752 43.784 198.376 42.808 197.288 41.592C196.232 40.376 195.432 39.032 194.888 37.56C194.376 36.088 194.12 34.616 194.12 33.144C194.12 31.352 194.376 29.704 194.888 28.2C195.4 26.696 196.184 25.384 197.24 24.264C198.328 23.112 199.704 22.232 201.368 21.624C203.032 20.984 205 20.664 207.272 20.664C209.96 20.664 212.328 21.176 214.376 22.2C216.456 23.192 218.088 24.616 219.272 26.472C220.456 28.328 221.048 30.552 221.048 33.144C221.048 35.64 220.44 37.816 219.224 39.672C218.04 41.528 216.408 42.984 214.328 44.04C212.248 45.064 209.896 45.576 207.272 45.576ZM204.824 40.248C206.616 40.248 208.152 39.96 209.432 39.384C210.744 38.776 211.752 37.944 212.456 36.888C213.192 35.832 213.56 34.584 213.56 33.144C213.56 30.936 212.792 29.192 211.256 27.912C209.752 26.6 207.608 25.944 204.824 25.944C202.84 25.944 201.096 26.216 199.592 26.76C198.088 27.304 196.904 28.104 196.04 29.16C195.208 30.216 194.792 31.544 194.792 33.144C194.792 34.616 195.208 35.88 196.04 36.936C196.872 37.992 198.04 38.808 199.544 39.384C201.048 39.96 202.808 40.248 204.824 40.248ZM194.792 11.592V38.28C194.792 39.496 194.728 40.744 194.6 42.024C194.504 43.272 194.408 44.264 194.312 45H187.496V11.592H194.792ZM224.717 36.984H231.437C231.821 38.008 232.573 38.84 233.693 39.48C234.845 40.088 236.365 40.392 238.253 40.392C239.597 40.392 240.621 40.28 241.325 40.056C242.061 39.832 242.557 39.512 242.813 39.096C243.069 38.68 243.197 38.232 243.197 37.752C243.197 37.08 242.973 36.584 242.525 36.264C242.077 35.912 241.357 35.656 240.365 35.496C239.405 35.304 238.141 35.128 236.573 34.968C235.037 34.776 233.581 34.536 232.205 34.248C230.829 33.96 229.629 33.56 228.605 33.048C227.581 32.504 226.781 31.832 226.205 31.032C225.629 30.2 225.341 29.192 225.341 28.008C225.341 26.76 225.661 25.688 226.301 24.792C226.941 23.864 227.837 23.096 228.989 22.488C230.141 21.88 231.485 21.432 233.021 21.144C234.557 20.824 236.189 20.664 237.917 20.664C240.637 20.664 242.877 21.016 244.637 21.72C246.397 22.424 247.709 23.416 248.573 24.696C249.437 25.944 249.869 27.384 249.869 29.016H243.389C243.133 27.896 242.589 27.096 241.757 26.616C240.957 26.136 239.677 25.896 237.917 25.896C236.221 25.896 234.941 26.12 234.077 26.568C233.245 27.016 232.829 27.64 232.829 28.44C232.829 29.08 233.069 29.576 233.549 29.928C234.061 30.248 234.845 30.52 235.901 30.744C236.989 30.936 238.381 31.128 240.077 31.32C241.453 31.544 242.765 31.8 244.013 32.088C245.293 32.344 246.429 32.712 247.421 33.192C248.445 33.672 249.245 34.328 249.821 35.16C250.397 35.992 250.685 37.048 250.685 38.328C250.685 39.928 250.189 41.272 249.197 42.36C248.205 43.416 246.781 44.232 244.925 44.808C243.069 45.352 240.861 45.624 238.301 45.624C236.061 45.624 234.125 45.416 232.493 45C230.893 44.552 229.565 43.992 228.509 43.32C227.453 42.616 226.637 41.864 226.061 41.064C225.517 40.264 225.133 39.512 224.909 38.808C224.717 38.072 224.653 37.464 224.717 36.984ZM278.573 45.576C276.941 45.576 275.389 45.384 273.917 45C272.477 44.616 271.197 44.072 270.077 43.368C268.989 42.664 268.125 41.8 267.485 40.776C266.845 39.752 266.525 38.584 266.525 37.272C266.525 35.704 266.925 34.392 267.725 33.336C268.525 32.28 269.629 31.432 271.037 30.792C272.445 30.152 274.093 29.688 275.981 29.4C277.869 29.08 279.885 28.888 282.029 28.824L282.173 29.112C280.125 29.048 278.221 28.904 276.461 28.68C274.701 28.456 273.165 28.072 271.853 27.528C270.573 26.984 269.565 26.264 268.829 25.368C268.093 24.472 267.725 23.336 267.725 21.96C267.725 20.168 268.333 18.632 269.549 17.352C270.797 16.04 272.573 15.048 274.877 14.376C277.181 13.672 279.917 13.32 283.085 13.32C285.325 13.32 287.373 13.528 289.229 13.944C291.085 14.328 292.685 14.936 294.029 15.768C295.405 16.6 296.461 17.64 297.197 18.888C297.965 20.136 298.349 21.592 298.349 23.256H291.389C291.325 22.008 290.573 21.064 289.133 20.424C287.693 19.752 285.741 19.416 283.277 19.416C280.685 19.416 278.733 19.752 277.421 20.424C276.109 21.096 275.453 22.072 275.453 23.352C275.453 24.216 275.757 24.968 276.365 25.608C277.005 26.216 277.981 26.68 279.293 27C280.605 27.32 282.317 27.48 284.429 27.48H305.357V31.032H298.685V45H291.869C291.741 44.136 291.629 43.256 291.533 42.36C291.469 41.432 291.421 40.392 291.389 39.24C291.389 38.056 291.389 36.68 291.389 35.112L291.869 36.264C291.613 37.32 291.197 38.392 290.621 39.48C290.045 40.568 289.245 41.576 288.221 42.504C287.197 43.432 285.901 44.184 284.333 44.76C282.765 45.304 280.845 45.576 278.573 45.576ZM281.837 40.248C284.013 40.248 285.789 39.928 287.165 39.288C288.573 38.648 289.629 37.816 290.333 36.792C291.037 35.768 291.389 34.696 291.389 33.576V31.032H284.429C281.325 31.032 278.861 31.4 277.037 32.136C275.245 32.84 274.349 34.04 274.349 35.736C274.349 37.048 274.973 38.136 276.221 39C277.501 39.832 279.373 40.248 281.837 40.248ZM24.144 103.672C19.44 103.672 15.488 103.032 12.288 101.752C9.088 100.472 6.672 98.632 5.04 96.232C3.408 93.832 2.592 90.936 2.592 87.544C2.592 84.088 3.408 81.16 5.04 78.76C6.672 76.36 9.088 74.52 12.288 73.24C15.488 71.96 19.44 71.32 24.144 71.32C28.848 71.32 32.784 71.96 35.952 73.24C39.152 74.52 41.568 76.36 43.2 78.76C44.832 81.16 45.648 84.088 45.648 87.544C45.648 90.936 44.832 93.832 43.2 96.232C41.568 98.632 39.152 100.472 35.952 101.752C32.784 103.032 28.848 103.672 24.144 103.672ZM24.144 97.432C26.832 97.432 29.184 97.096 31.2 96.424C33.248 95.72 34.848 94.648 36 93.208C37.152 91.736 37.728 89.848 37.728 87.544C37.728 85.24 37.152 83.352 36 81.88C34.848 80.408 33.248 79.32 31.2 78.616C29.184 77.912 26.832 77.56 24.144 77.56C21.456 77.56 19.072 77.912 16.992 78.616C14.912 79.32 13.28 80.408 12.096 81.88C10.912 83.352 10.32 85.24 10.32 87.544C10.32 89.848 10.912 91.736 12.096 93.208C13.28 94.648 14.912 95.72 16.992 96.424C19.072 97.096 21.456 97.432 24.144 97.432ZM70.7464 103.624C68.4744 103.624 66.5064 103.272 64.8424 102.568C63.2104 101.832 61.8504 100.856 60.7624 99.64C59.7064 98.424 58.9064 97.08 58.3624 95.608C57.8504 94.104 57.5944 92.616 57.5944 91.144C57.5944 89.352 57.8504 87.704 58.3624 86.2C58.8744 84.696 59.6584 83.384 60.7144 82.264C61.8024 81.112 63.1624 80.232 64.7944 79.624C66.4584 78.984 68.4424 78.664 70.7464 78.664C73.3384 78.664 75.6744 79.192 77.7544 80.248C79.8344 81.272 81.4824 82.728 82.6984 84.616C83.9144 86.472 84.5224 88.648 84.5224 91.144C84.5224 93.704 83.8984 95.928 82.6504 97.816C81.4344 99.672 79.7864 101.112 77.7064 102.136C75.6264 103.128 73.3064 103.624 70.7464 103.624ZM68.2504 98.248C70.0424 98.248 71.5944 97.96 72.9064 97.384C74.2184 96.776 75.2264 95.944 75.9304 94.888C76.6664 93.832 77.0344 92.584 77.0344 91.144C77.0344 88.936 76.2664 87.192 74.7304 85.912C73.2264 84.6 71.0664 83.944 68.2504 83.944C66.3944 83.944 64.6984 84.216 63.1624 84.76C61.6584 85.304 60.4584 86.104 59.5624 87.16C58.6984 88.216 58.2664 89.544 58.2664 91.144C58.2664 92.616 58.6824 93.896 59.5144 94.984C60.3464 96.04 61.5144 96.856 63.0184 97.432C64.5224 97.976 66.2664 98.248 68.2504 98.248ZM50.9704 79.192H57.8824L58.2664 86.104V112.6H50.9704V79.192ZM108.762 103.624C106.49 103.624 104.522 103.272 102.858 102.568C101.226 101.832 99.866 100.856 98.778 99.64C97.722 98.424 96.922 97.08 96.378 95.608C95.866 94.104 95.61 92.616 95.61 91.144C95.61 89.352 95.866 87.704 96.378 86.2C96.89 84.696 97.674 83.384 98.73 82.264C99.818 81.112 101.178 80.232 102.81 79.624C104.474 78.984 106.458 78.664 108.762 78.664C111.354 78.664 113.69 79.192 115.77 80.248C117.85 81.272 119.498 82.728 120.714 84.616C121.93 86.472 122.538 88.648 122.538 91.144C122.538 93.704 121.914 95.928 120.666 97.816C119.45 99.672 117.802 101.112 115.722 102.136C113.642 103.128 111.322 103.624 108.762 103.624ZM106.266 98.248C108.058 98.248 109.61 97.96 110.922 97.384C112.234 96.776 113.242 95.944 113.946 94.888C114.682 93.832 115.05 92.584 115.05 91.144C115.05 88.936 114.282 87.192 112.746 85.912C111.242 84.6 109.082 83.944 106.266 83.944C104.41 83.944 102.714 84.216 101.178 84.76C99.674 85.304 98.474 86.104 97.578 87.16C96.714 88.216 96.282 89.544 96.282 91.144C96.282 92.616 96.698 93.896 97.53 94.984C98.362 96.04 99.53 96.856 101.034 97.432C102.538 97.976 104.282 98.248 106.266 98.248ZM88.986 79.192H95.898L96.282 86.104V112.6H88.986V79.192ZM142.698 103.624C139.274 103.624 136.314 103.16 133.818 102.232C131.322 101.272 129.386 99.88 128.01 98.056C126.666 96.2 125.994 93.912 125.994 91.192C125.994 88.44 126.666 86.136 128.01 84.28C129.386 82.392 131.322 80.984 133.818 80.056C136.314 79.128 139.274 78.664 142.698 78.664C146.122 78.664 149.066 79.128 151.53 80.056C154.026 80.984 155.946 82.392 157.29 84.28C158.666 86.136 159.354 88.44 159.354 91.192C159.354 93.912 158.666 96.2 157.29 98.056C155.946 99.88 154.026 101.272 151.53 102.232C149.066 103.16 146.122 103.624 142.698 103.624ZM142.698 98.392C144.522 98.392 146.122 98.12 147.498 97.576C148.874 97 149.946 96.184 150.714 95.128C151.514 94.04 151.914 92.728 151.914 91.192C151.914 89.624 151.514 88.296 150.714 87.208C149.946 86.088 148.874 85.256 147.498 84.712C146.154 84.136 144.554 83.848 142.698 83.848C140.906 83.848 139.306 84.136 137.898 84.712C136.49 85.256 135.386 86.072 134.586 87.16C133.786 88.248 133.386 89.592 133.386 91.192C133.386 92.728 133.77 94.04 134.538 95.128C135.338 96.184 136.442 97 137.85 97.576C139.258 98.12 140.874 98.392 142.698 98.392ZM163.752 79.192H171.048V103H163.752V79.192ZM180.84 85.096C179.016 85.096 177.4 85.416 175.992 86.056C174.584 86.664 173.432 87.416 172.536 88.312C171.672 89.208 171.048 90.088 170.664 90.952L170.616 88.36C170.68 87.912 170.84 87.304 171.096 86.536C171.352 85.736 171.72 84.888 172.2 83.992C172.712 83.096 173.368 82.248 174.168 81.448C174.968 80.616 175.912 79.944 177 79.432C178.12 78.92 179.4 78.664 180.84 78.664V85.096ZM183.168 79.192H203.616V84.52H183.168V79.192ZM189.744 72.568H197.04V103H189.744V72.568ZM238.255 103H230.959V79.192H238.255V103ZM231.295 91.384L231.343 93.16C231.279 93.64 231.087 94.312 230.767 95.176C230.479 96.04 230.031 96.952 229.423 97.912C228.815 98.872 228.031 99.784 227.071 100.648C226.143 101.512 225.023 102.232 223.711 102.808C222.399 103.352 220.863 103.624 219.103 103.624C217.631 103.624 216.191 103.448 214.783 103.096C213.407 102.744 212.159 102.168 211.039 101.368C209.951 100.568 209.071 99.496 208.399 98.152C207.759 96.776 207.439 95.064 207.439 93.016V79.192H214.735V91.912C214.735 93.48 214.991 94.712 215.503 95.608C216.015 96.504 216.783 97.144 217.807 97.528C218.831 97.88 220.079 98.056 221.551 98.056C223.311 98.056 224.847 97.704 226.159 97C227.471 96.264 228.559 95.384 229.423 94.36C230.319 93.336 230.943 92.344 231.295 91.384ZM243.627 79.192H250.923V103H243.627V79.192ZM263.259 78.664C264.795 78.664 266.235 78.856 267.579 79.24C268.955 79.624 270.155 80.232 271.179 81.064C272.203 81.896 273.003 82.968 273.579 84.28C274.155 85.592 274.443 87.176 274.443 89.032V103H267.147V90.232C267.147 88.12 266.619 86.6 265.563 85.672C264.539 84.712 262.827 84.232 260.427 84.232C258.731 84.232 257.179 84.52 255.771 85.096C254.395 85.672 253.243 86.408 252.315 87.304C251.387 88.2 250.795 89.112 250.539 90.04L250.491 87.736C250.651 86.712 251.035 85.688 251.643 84.664C252.251 83.608 253.083 82.616 254.139 81.688C255.227 80.76 256.523 80.024 258.027 79.48C259.563 78.936 261.307 78.664 263.259 78.664ZM288.07 68.392V74.2H279.814V68.392H288.07ZM280.294 79.192H287.59V103H280.294V79.192ZM292.011 79.192H312.459V84.52H292.011V79.192ZM298.587 72.568H305.883V103H298.587V72.568ZM324.539 68.392V74.2H316.283V68.392H324.539ZM316.763 79.192H324.059V103H316.763V79.192ZM353.968 94.984H361.072C360.784 96.648 360.048 98.136 358.864 99.448C357.68 100.728 356.032 101.752 353.92 102.52C351.808 103.256 349.216 103.624 346.144 103.624C342.752 103.624 339.76 103.16 337.168 102.232C334.608 101.272 332.608 99.88 331.168 98.056C329.76 96.2 329.056 93.912 329.056 91.192C329.056 88.472 329.744 86.184 331.12 84.328C332.528 82.44 334.496 81.032 337.024 80.104C339.552 79.144 342.544 78.664 346 78.664C349.456 78.664 352.32 79.144 354.592 80.104C356.896 81.064 358.592 82.536 359.68 84.52C360.8 86.504 361.296 89.064 361.168 92.2H336.4C336.56 93.352 337.008 94.392 337.744 95.32C338.512 96.248 339.568 97 340.912 97.576C342.288 98.12 343.952 98.392 345.904 98.392C348.048 98.392 349.824 98.072 351.232 97.432C352.672 96.792 353.584 95.976 353.968 94.984ZM345.664 83.848C343.136 83.848 341.12 84.328 339.616 85.288C338.112 86.216 337.152 87.352 336.736 88.696H353.968C353.776 87.256 352.976 86.088 351.568 85.192C350.192 84.296 348.224 83.848 345.664 83.848ZM364.826 94.984H371.546C371.93 96.008 372.682 96.84 373.802 97.48C374.954 98.088 376.474 98.392 378.362 98.392C379.706 98.392 380.73 98.28 381.434 98.056C382.17 97.832 382.666 97.512 382.922 97.096C383.178 96.68 383.306 96.232 383.306 95.752C383.306 95.08 383.082 94.584 382.634 94.264C382.186 93.912 381.466 93.656 380.474 93.496C379.514 93.304 378.25 93.128 376.682 92.968C375.146 92.776 373.69 92.536 372.314 92.248C370.938 91.96 369.738 91.56 368.714 91.048C367.69 90.504 366.89 89.832 366.314 89.032C365.738 88.2 365.45 87.192 365.45 86.008C365.45 84.76 365.77 83.688 366.41 82.792C367.05 81.864 367.946 81.096 369.098 80.488C370.25 79.88 371.594 79.432 373.13 79.144C374.666 78.824 376.298 78.664 378.026 78.664C380.746 78.664 382.986 79.016 384.746 79.72C386.506 80.424 387.818 81.416 388.682 82.696C389.546 83.944 389.978 85.384 389.978 87.016H383.498C383.242 85.896 382.698 85.096 381.866 84.616C381.066 84.136 379.786 83.896 378.026 83.896C376.33 83.896 375.05 84.12 374.186 84.568C373.354 85.016 372.938 85.64 372.938 86.44C372.938 87.08 373.178 87.576 373.658 87.928C374.17 88.248 374.954 88.52 376.01 88.744C377.098 88.936 378.49 89.128 380.186 89.32C381.562 89.544 382.874 89.8 384.122 90.088C385.402 90.344 386.538 90.712 387.53 91.192C388.554 91.672 389.354 92.328 389.93 93.16C390.506 93.992 390.794 95.048 390.794 96.328C390.794 97.928 390.298 99.272 389.306 100.36C388.314 101.416 386.89 102.232 385.034 102.808C383.178 103.352 380.97 103.624 378.41 103.624C376.17 103.624 374.234 103.416 372.602 103C371.002 102.552 369.674 101.992 368.618 101.32C367.562 100.616 366.746 99.864 366.17 99.064C365.626 98.264 365.242 97.512 365.018 96.808C364.826 96.072 364.762 95.464 364.826 94.984Z" fill="#FFEEED"/>
<path d="M6 166V150.736H0.096V149.2H13.68V150.736H7.776V166H6ZM22.5893 153.28C23.6133 153.28 24.5093 153.48 25.2773 153.88C26.0613 154.264 26.6693 154.856 27.1013 155.656C27.5493 156.456 27.7733 157.464 27.7733 158.68V166H26.0693V158.848C26.0693 157.52 25.7333 156.52 25.0613 155.848C24.4053 155.16 23.4773 154.816 22.2773 154.816C21.3813 154.816 20.5973 155 19.9253 155.368C19.2693 155.72 18.7573 156.24 18.3893 156.928C18.0373 157.6 17.8613 158.416 17.8613 159.376V166H16.1573V148.192H17.8613V156.856L17.5253 156.208C17.9253 155.296 18.5653 154.584 19.4453 154.072C20.3253 153.544 21.3733 153.28 22.5893 153.28ZM37.728 166.12C36.416 166.12 35.264 165.848 34.272 165.304C33.28 164.744 32.504 163.984 31.944 163.024C31.384 162.048 31.104 160.936 31.104 159.688C31.104 158.44 31.368 157.336 31.896 156.376C32.44 155.416 33.176 154.664 34.104 154.12C35.048 153.56 36.104 153.28 37.272 153.28C38.456 153.28 39.504 153.552 40.416 154.096C41.344 154.624 42.072 155.376 42.6 156.352C43.128 157.312 43.392 158.424 43.392 159.688C43.392 159.768 43.384 159.856 43.368 159.952C43.368 160.032 43.368 160.12 43.368 160.216H32.4V158.944H42.456L41.784 159.448C41.784 158.536 41.584 157.728 41.184 157.024C40.8 156.304 40.272 155.744 39.6 155.344C38.928 154.944 38.152 154.744 37.272 154.744C36.408 154.744 35.632 154.944 34.944 155.344C34.256 155.744 33.72 156.304 33.336 157.024C32.952 157.744 32.76 158.568 32.76 159.496V159.76C32.76 160.72 32.968 161.568 33.384 162.304C33.816 163.024 34.408 163.592 35.16 164.008C35.928 164.408 36.8 164.608 37.776 164.608C38.544 164.608 39.256 164.472 39.912 164.2C40.584 163.928 41.16 163.512 41.64 162.952L42.6 164.056C42.04 164.728 41.336 165.24 40.488 165.592C39.656 165.944 38.736 166.12 37.728 166.12ZM60.2696 166.144C58.1256 166.144 56.4376 165.528 55.2056 164.296C53.9736 163.064 53.3576 161.24 53.3576 158.824V149.2H55.1336V158.752C55.1336 160.736 55.5816 162.2 56.4776 163.144C57.3736 164.088 58.6376 164.56 60.2696 164.56C61.9176 164.56 63.1896 164.088 64.0856 163.144C64.9816 162.2 65.4296 160.736 65.4296 158.752V149.2H67.1576V158.824C67.1576 161.24 66.5416 163.064 65.3096 164.296C64.0936 165.528 62.4136 166.144 60.2696 166.144ZM76.3254 166L70.6614 149.2H72.4854L77.7894 165.016H76.8774L82.3494 149.2H83.9814L89.3814 165.016H88.5174L93.8694 149.2H95.5734L89.9094 166H88.0374L82.8774 151H83.3574L78.1734 166H76.3254ZM105.463 166V149.2H111.751C113.175 149.2 114.399 149.432 115.423 149.896C116.447 150.344 117.231 151 117.775 151.864C118.335 152.712 118.615 153.744 118.615 154.96C118.615 156.144 118.335 157.168 117.775 158.032C117.231 158.88 116.447 159.536 115.423 160C114.399 160.464 113.175 160.696 111.751 160.696H106.447L107.239 159.856V166H105.463ZM107.239 160L106.447 159.136H111.703C113.383 159.136 114.655 158.776 115.519 158.056C116.399 157.32 116.839 156.288 116.839 154.96C116.839 153.616 116.399 152.576 115.519 151.84C114.655 151.104 113.383 150.736 111.703 150.736H106.447L107.239 149.896V160ZM122.455 166V149.2H123.919L131.599 162.304H130.831L138.439 149.2H139.903V166H138.199V151.864H138.607L131.599 163.864H130.759L123.703 151.864H124.159V166H122.455ZM155.282 166.12C154.098 166.12 153.186 165.8 152.546 165.16C151.906 164.52 151.586 163.616 151.586 162.448V150.616H153.29V162.352C153.29 163.088 153.474 163.656 153.842 164.056C154.226 164.456 154.77 164.656 155.474 164.656C156.226 164.656 156.85 164.44 157.346 164.008L157.946 165.232C157.61 165.536 157.202 165.76 156.722 165.904C156.258 166.048 155.778 166.12 155.282 166.12ZM149.33 154.816V153.4H157.13V154.816H149.33ZM165.955 166.12C164.643 166.12 163.491 165.848 162.499 165.304C161.507 164.744 160.731 163.984 160.171 163.024C159.611 162.048 159.331 160.936 159.331 159.688C159.331 158.44 159.595 157.336 160.123 156.376C160.667 155.416 161.403 154.664 162.331 154.12C163.275 153.56 164.331 153.28 165.499 153.28C166.683 153.28 167.731 153.552 168.643 154.096C169.571 154.624 170.299 155.376 170.827 156.352C171.355 157.312 171.619 158.424 171.619 159.688C171.619 159.768 171.611 159.856 171.595 159.952C171.595 160.032 171.595 160.12 171.595 160.216H160.627V158.944H170.683L170.011 159.448C170.011 158.536 169.811 157.728 169.411 157.024C169.027 156.304 168.499 155.744 167.827 155.344C167.155 154.944 166.379 154.744 165.499 154.744C164.635 154.744 163.859 154.944 163.171 155.344C162.483 155.744 161.947 156.304 161.563 157.024C161.179 157.744 160.987 158.568 160.987 159.496V159.76C160.987 160.72 161.195 161.568 161.611 162.304C162.043 163.024 162.635 163.592 163.387 164.008C164.155 164.408 165.027 164.608 166.003 164.608C166.771 164.608 167.483 164.472 168.139 164.2C168.811 163.928 169.387 163.512 169.867 162.952L170.827 164.056C170.267 164.728 169.563 165.24 168.715 165.592C167.883 165.944 166.963 166.12 165.955 166.12ZM182.631 166V163.216L182.559 162.76V158.104C182.559 157.032 182.255 156.208 181.647 155.632C181.055 155.056 180.167 154.768 178.983 154.768C178.167 154.768 177.391 154.904 176.655 155.176C175.919 155.448 175.295 155.808 174.783 156.256L174.015 154.984C174.655 154.44 175.423 154.024 176.319 153.736C177.215 153.432 178.159 153.28 179.151 153.28C180.783 153.28 182.039 153.688 182.919 154.504C183.815 155.304 184.263 156.528 184.263 158.176V166H182.631ZM178.287 166.12C177.343 166.12 176.519 165.968 175.815 165.664C175.127 165.344 174.599 164.912 174.231 164.368C173.863 163.808 173.679 163.168 173.679 162.448C173.679 161.792 173.831 161.2 174.135 160.672C174.455 160.128 174.967 159.696 175.671 159.376C176.391 159.04 177.351 158.872 178.551 158.872H182.895V160.144H178.599C177.383 160.144 176.535 160.36 176.055 160.792C175.591 161.224 175.359 161.76 175.359 162.4C175.359 163.12 175.639 163.696 176.199 164.128C176.759 164.56 177.543 164.776 178.551 164.776C179.511 164.776 180.335 164.56 181.023 164.128C181.727 163.68 182.239 163.04 182.559 162.208L182.943 163.384C182.623 164.216 182.063 164.88 181.263 165.376C180.479 165.872 179.487 166.12 178.287 166.12ZM204.636 153.28C205.66 153.28 206.548 153.48 207.3 153.88C208.068 154.264 208.66 154.856 209.076 155.656C209.508 156.456 209.724 157.464 209.724 158.68V166H208.02V158.848C208.02 157.52 207.7 156.52 207.06 155.848C206.436 155.16 205.548 154.816 204.396 154.816C203.532 154.816 202.78 155 202.14 155.368C201.516 155.72 201.028 156.24 200.676 156.928C200.34 157.6 200.172 158.416 200.172 159.376V166H198.468V158.848C198.468 157.52 198.148 156.52 197.508 155.848C196.868 155.16 195.972 154.816 194.82 154.816C193.972 154.816 193.228 155 192.588 155.368C191.948 155.72 191.452 156.24 191.1 156.928C190.764 157.6 190.596 158.416 190.596 159.376V166H188.892V153.4H190.524V156.808L190.26 156.208C190.644 155.296 191.26 154.584 192.108 154.072C192.972 153.544 193.988 153.28 195.156 153.28C196.388 153.28 197.436 153.592 198.3 154.216C199.164 154.824 199.724 155.744 199.98 156.976L199.308 156.712C199.676 155.688 200.324 154.864 201.252 154.24C202.196 153.6 203.324 153.28 204.636 153.28ZM227.058 153.28C228.082 153.28 228.978 153.48 229.746 153.88C230.53 154.264 231.138 154.856 231.57 155.656C232.018 156.456 232.242 157.464 232.242 158.68V166H230.538V158.848C230.538 157.52 230.202 156.52 229.53 155.848C228.874 155.16 227.946 154.816 226.746 154.816C225.85 154.816 225.066 155 224.394 155.368C223.738 155.72 223.226 156.24 222.858 156.928C222.506 157.6 222.33 158.416 222.33 159.376V166H220.626V148.192H222.33V156.856L221.994 156.208C222.394 155.296 223.034 154.584 223.914 154.072C224.794 153.544 225.842 153.28 227.058 153.28ZM244.741 166V163.216L244.669 162.76V158.104C244.669 157.032 244.365 156.208 243.757 155.632C243.165 155.056 242.277 154.768 241.093 154.768C240.277 154.768 239.501 154.904 238.765 155.176C238.029 155.448 237.405 155.808 236.893 156.256L236.125 154.984C236.765 154.44 237.533 154.024 238.429 153.736C239.325 153.432 240.269 153.28 241.261 153.28C242.893 153.28 244.149 153.688 245.029 154.504C245.925 155.304 246.373 156.528 246.373 158.176V166H244.741ZM240.397 166.12C239.453 166.12 238.629 165.968 237.925 165.664C237.237 165.344 236.709 164.912 236.341 164.368C235.973 163.808 235.789 163.168 235.789 162.448C235.789 161.792 235.941 161.2 236.245 160.672C236.565 160.128 237.077 159.696 237.781 159.376C238.501 159.04 239.461 158.872 240.661 158.872H245.005V160.144H240.709C239.493 160.144 238.645 160.36 238.165 160.792C237.701 161.224 237.469 161.76 237.469 162.4C237.469 163.12 237.749 163.696 238.309 164.128C238.869 164.56 239.653 164.776 240.661 164.776C241.621 164.776 242.445 164.56 243.133 164.128C243.837 163.68 244.349 163.04 244.669 162.208L245.053 163.384C244.733 164.216 244.173 164.88 243.373 165.376C242.589 165.872 241.597 166.12 240.397 166.12ZM254.385 166.12C253.345 166.12 252.361 165.976 251.433 165.688C250.505 165.384 249.777 165.008 249.249 164.56L250.017 163.216C250.529 163.6 251.185 163.936 251.985 164.224C252.785 164.496 253.625 164.632 254.505 164.632C255.705 164.632 256.569 164.448 257.097 164.08C257.625 163.696 257.889 163.192 257.889 162.568C257.889 162.104 257.737 161.744 257.433 161.488C257.145 161.216 256.761 161.016 256.281 160.888C255.801 160.744 255.265 160.624 254.673 160.528C254.081 160.432 253.489 160.32 252.897 160.192C252.321 160.064 251.793 159.88 251.313 159.64C250.833 159.384 250.441 159.04 250.137 158.608C249.849 158.176 249.705 157.6 249.705 156.88C249.705 156.192 249.897 155.576 250.281 155.032C250.665 154.488 251.225 154.064 251.961 153.76C252.713 153.44 253.625 153.28 254.697 153.28C255.513 153.28 256.329 153.392 257.145 153.616C257.961 153.824 258.633 154.104 259.161 154.456L258.417 155.824C257.857 155.44 257.257 155.168 256.617 155.008C255.977 154.832 255.337 154.744 254.697 154.744C253.561 154.744 252.721 154.944 252.177 155.344C251.649 155.728 251.385 156.224 251.385 156.832C251.385 157.312 251.529 157.688 251.817 157.96C252.121 158.232 252.513 158.448 252.993 158.608C253.489 158.752 254.025 158.872 254.601 158.968C255.193 159.064 255.777 159.184 256.353 159.328C256.945 159.456 257.481 159.64 257.961 159.88C258.457 160.104 258.849 160.432 259.137 160.864C259.441 161.28 259.593 161.832 259.593 162.52C259.593 163.256 259.385 163.896 258.969 164.44C258.569 164.968 257.977 165.384 257.193 165.688C256.425 165.976 255.489 166.12 254.385 166.12ZM275.505 166.12C274.417 166.12 273.433 165.872 272.553 165.376C271.673 164.864 270.969 164.136 270.441 163.192C269.929 162.232 269.673 161.064 269.673 159.688C269.673 158.312 269.929 157.152 270.441 156.208C270.953 155.248 271.649 154.52 272.529 154.024C273.409 153.528 274.401 153.28 275.505 153.28C276.705 153.28 277.777 153.552 278.721 154.096C279.681 154.624 280.433 155.376 280.977 156.352C281.521 157.312 281.793 158.424 281.793 159.688C281.793 160.968 281.521 162.088 280.977 163.048C280.433 164.008 279.681 164.76 278.721 165.304C277.777 165.848 276.705 166.12 275.505 166.12ZM269.001 170.656V153.4H270.633V157.192L270.465 159.712L270.705 162.256V170.656H269.001ZM275.385 164.608C276.281 164.608 277.081 164.408 277.785 164.008C278.489 163.592 279.049 163.016 279.465 162.28C279.881 161.528 280.089 160.664 280.089 159.688C280.089 158.712 279.881 157.856 279.465 157.12C279.049 156.384 278.489 155.808 277.785 155.392C277.081 154.976 276.281 154.768 275.385 154.768C274.489 154.768 273.681 154.976 272.961 155.392C272.257 155.808 271.697 156.384 271.281 157.12C270.881 157.856 270.681 158.712 270.681 159.688C270.681 160.664 270.881 161.528 271.281 162.28C271.697 163.016 272.257 163.592 272.961 164.008C273.681 164.408 274.489 164.608 275.385 164.608ZM290.475 166.12C289.403 166.12 288.467 165.92 287.667 165.52C286.867 165.12 286.243 164.52 285.795 163.72C285.363 162.92 285.147 161.92 285.147 160.72V153.4H286.851V160.528C286.851 161.872 287.179 162.888 287.835 163.576C288.507 164.248 289.443 164.584 290.643 164.584C291.523 164.584 292.283 164.408 292.923 164.056C293.579 163.688 294.075 163.16 294.411 162.472C294.763 161.784 294.939 160.96 294.939 160V153.4H296.643V166H295.011V162.544L295.275 163.168C294.875 164.096 294.251 164.824 293.403 165.352C292.571 165.864 291.595 166.12 290.475 166.12ZM305.376 166.12C304.192 166.12 303.28 165.8 302.64 165.16C302 164.52 301.68 163.616 301.68 162.448V150.616H303.384V162.352C303.384 163.088 303.568 163.656 303.936 164.056C304.32 164.456 304.864 164.656 305.568 164.656C306.32 164.656 306.944 164.44 307.44 164.008L308.04 165.232C307.704 165.536 307.296 165.76 306.816 165.904C306.352 166.048 305.872 166.12 305.376 166.12ZM299.424 154.816V153.4H307.224V154.816H299.424ZM321.407 166.12C320.223 166.12 319.311 165.8 318.671 165.16C318.031 164.52 317.711 163.616 317.711 162.448V150.616H319.415V162.352C319.415 163.088 319.599 163.656 319.967 164.056C320.351 164.456 320.895 164.656 321.599 164.656C322.351 164.656 322.975 164.44 323.471 164.008L324.071 165.232C323.735 165.536 323.327 165.76 322.847 165.904C322.383 166.048 321.903 166.12 321.407 166.12ZM315.455 154.816V153.4H323.255V154.816H315.455ZM331.864 166.12C330.648 166.12 329.552 165.848 328.576 165.304C327.616 164.744 326.856 163.984 326.296 163.024C325.736 162.048 325.456 160.936 325.456 159.688C325.456 158.424 325.736 157.312 326.296 156.352C326.856 155.392 327.616 154.64 328.576 154.096C329.536 153.552 330.632 153.28 331.864 153.28C333.112 153.28 334.216 153.552 335.176 154.096C336.152 154.64 336.912 155.392 337.456 156.352C338.016 157.312 338.296 158.424 338.296 159.688C338.296 160.936 338.016 162.048 337.456 163.024C336.912 163.984 336.152 164.744 335.176 165.304C334.2 165.848 333.096 166.12 331.864 166.12ZM331.864 164.608C332.776 164.608 333.584 164.408 334.288 164.008C334.992 163.592 335.544 163.016 335.944 162.28C336.36 161.528 336.568 160.664 336.568 159.688C336.568 158.696 336.36 157.832 335.944 157.096C335.544 156.36 334.992 155.792 334.288 155.392C333.584 154.976 332.784 154.768 331.888 154.768C330.992 154.768 330.192 154.976 329.488 155.392C328.784 155.792 328.224 156.36 327.808 157.096C327.392 157.832 327.184 158.696 327.184 159.688C327.184 160.664 327.392 161.528 327.808 162.28C328.224 163.016 328.784 163.592 329.488 164.008C330.192 164.408 330.984 164.608 331.864 164.608ZM347.15 170.776C345.998 170.776 344.894 170.608 343.838 170.272C342.782 169.936 341.926 169.456 341.27 168.832L342.134 167.536C342.726 168.064 343.454 168.48 344.318 168.784C345.198 169.104 346.126 169.264 347.102 169.264C348.702 169.264 349.878 168.888 350.63 168.136C351.382 167.4 351.758 166.248 351.758 164.68V161.536L351.998 159.376L351.83 157.216V153.4H353.462V164.464C353.462 166.64 352.926 168.232 351.854 169.24C350.798 170.264 349.23 170.776 347.15 170.776ZM346.838 165.52C345.638 165.52 344.558 165.264 343.598 164.752C342.638 164.224 341.878 163.496 341.318 162.568C340.774 161.64 340.502 160.576 340.502 159.376C340.502 158.176 340.774 157.12 341.318 156.208C341.878 155.28 342.638 154.56 343.598 154.048C344.558 153.536 345.638 153.28 346.838 153.28C347.958 153.28 348.966 153.512 349.862 153.976C350.758 154.44 351.47 155.128 351.998 156.04C352.526 156.952 352.79 158.064 352.79 159.376C352.79 160.688 352.526 161.8 351.998 162.712C351.47 163.624 350.758 164.32 349.862 164.8C348.966 165.28 347.958 165.52 346.838 165.52ZM347.006 164.008C347.934 164.008 348.758 163.816 349.478 163.432C350.198 163.032 350.766 162.488 351.182 161.8C351.598 161.096 351.806 160.288 351.806 159.376C351.806 158.464 351.598 157.664 351.182 156.976C350.766 156.288 350.198 155.752 349.478 155.368C348.758 154.968 347.934 154.768 347.006 154.768C346.094 154.768 345.27 154.968 344.534 155.368C343.814 155.752 343.246 156.288 342.83 156.976C342.43 157.664 342.23 158.464 342.23 159.376C342.23 160.288 342.43 161.096 342.83 161.8C343.246 162.488 343.814 163.032 344.534 163.432C345.27 163.816 346.094 164.008 347.006 164.008ZM363.556 166.12C362.244 166.12 361.092 165.848 360.1 165.304C359.108 164.744 358.332 163.984 357.772 163.024C357.212 162.048 356.932 160.936 356.932 159.688C356.932 158.44 357.196 157.336 357.724 156.376C358.268 155.416 359.004 154.664 359.932 154.12C360.876 153.56 361.932 153.28 363.1 153.28C364.284 153.28 365.332 153.552 366.244 154.096C367.172 154.624 367.9 155.376 368.428 156.352C368.956 157.312 369.22 158.424 369.22 159.688C369.22 159.768 369.212 159.856 369.196 159.952C369.196 160.032 369.196 160.12 369.196 160.216H358.228V158.944H368.284L367.612 159.448C367.612 158.536 367.412 157.728 367.012 157.024C366.628 156.304 366.1 155.744 365.428 155.344C364.756 154.944 363.98 154.744 363.1 154.744C362.236 154.744 361.46 154.944 360.772 155.344C360.084 155.744 359.548 156.304 359.164 157.024C358.78 157.744 358.588 158.568 358.588 159.496V159.76C358.588 160.72 358.796 161.568 359.212 162.304C359.644 163.024 360.236 163.592 360.988 164.008C361.756 164.408 362.628 164.608 363.604 164.608C364.372 164.608 365.084 164.472 365.74 164.2C366.412 163.928 366.988 163.512 367.468 162.952L368.428 164.056C367.868 164.728 367.164 165.24 366.316 165.592C365.484 165.944 364.564 166.12 363.556 166.12ZM376.673 166.12C375.489 166.12 374.577 165.8 373.937 165.16C373.297 164.52 372.977 163.616 372.977 162.448V150.616H374.681V162.352C374.681 163.088 374.865 163.656 375.233 164.056C375.617 164.456 376.161 164.656 376.865 164.656C377.617 164.656 378.241 164.44 378.737 164.008L379.337 165.232C379.001 165.536 378.593 165.76 378.113 165.904C377.649 166.048 377.169 166.12 376.673 166.12ZM370.721 154.816V153.4H378.521V154.816H370.721ZM388.871 153.28C389.895 153.28 390.791 153.48 391.559 153.88C392.343 154.264 392.951 154.856 393.383 155.656C393.831 156.456 394.055 157.464 394.055 158.68V166H392.351V158.848C392.351 157.52 392.015 156.52 391.343 155.848C390.687 155.16 389.759 154.816 388.559 154.816C387.663 154.816 386.879 155 386.207 155.368C385.551 155.72 385.039 156.24 384.671 156.928C384.319 157.6 384.143 158.416 384.143 159.376V166H382.439V148.192H384.143V156.856L383.807 156.208C384.207 155.296 384.847 154.584 385.727 154.072C386.607 153.544 387.655 153.28 388.871 153.28ZM404.009 166.12C402.697 166.12 401.545 165.848 400.553 165.304C399.561 164.744 398.785 163.984 398.225 163.024C397.665 162.048 397.385 160.936 397.385 159.688C397.385 158.44 397.649 157.336 398.177 156.376C398.721 155.416 399.457 154.664 400.385 154.12C401.329 153.56 402.385 153.28 403.553 153.28C404.737 153.28 405.785 153.552 406.697 154.096C407.625 154.624 408.353 155.376 408.881 156.352C409.409 157.312 409.673 158.424 409.673 159.688C409.673 159.768 409.665 159.856 409.649 159.952C409.649 160.032 409.649 160.12 409.649 160.216H398.681V158.944H408.737L408.065 159.448C408.065 158.536 407.865 157.728 407.465 157.024C407.081 156.304 406.553 155.744 405.881 155.344C405.209 154.944 404.433 154.744 403.553 154.744C402.689 154.744 401.913 154.944 401.225 155.344C400.537 155.744 400.001 156.304 399.617 157.024C399.233 157.744 399.041 158.568 399.041 159.496V159.76C399.041 160.72 399.249 161.568 399.665 162.304C400.097 163.024 400.689 163.592 401.441 164.008C402.209 164.408 403.081 164.608 404.057 164.608C404.825 164.608 405.537 164.472 406.193 164.2C406.865 163.928 407.441 163.512 407.921 162.952L408.881 164.056C408.321 164.728 407.617 165.24 406.769 165.592C405.937 165.944 405.017 166.12 404.009 166.12ZM413.142 166V153.4H414.774V156.832L414.606 156.232C414.958 155.272 415.55 154.544 416.382 154.048C417.214 153.536 418.246 153.28 419.478 153.28V154.936C419.414 154.936 419.35 154.936 419.286 154.936C419.222 154.92 419.158 154.912 419.094 154.912C417.766 154.912 416.726 155.32 415.974 156.136C415.222 156.936 414.846 158.08 414.846 159.568V166H413.142ZM436.952 166V163.216L436.88 162.76V158.104C436.88 157.032 436.576 156.208 435.968 155.632C435.376 155.056 434.488 154.768 433.304 154.768C432.488 154.768 431.712 154.904 430.976 155.176C430.24 155.448 429.616 155.808 429.104 156.256L428.336 154.984C428.976 154.44 429.744 154.024 430.64 153.736C431.536 153.432 432.48 153.28 433.472 153.28C435.104 153.28 436.36 153.688 437.24 154.504C438.136 155.304 438.584 156.528 438.584 158.176V166H436.952ZM432.608 166.12C431.664 166.12 430.84 165.968 430.136 165.664C429.448 165.344 428.92 164.912 428.552 164.368C428.184 163.808 428 163.168 428 162.448C428 161.792 428.152 161.2 428.456 160.672C428.776 160.128 429.288 159.696 429.992 159.376C430.712 159.04 431.672 158.872 432.872 158.872H437.216V160.144H432.92C431.704 160.144 430.856 160.36 430.376 160.792C429.912 161.224 429.68 161.76 429.68 162.4C429.68 163.12 429.96 163.696 430.52 164.128C431.08 164.56 431.864 164.776 432.872 164.776C433.832 164.776 434.656 164.56 435.344 164.128C436.048 163.68 436.56 163.04 436.88 162.208L437.264 163.384C436.944 164.216 436.384 164.88 435.584 165.376C434.8 165.872 433.808 166.12 432.608 166.12ZM449.493 166V148.192H451.197V166H449.493ZM455.939 166V153.4H457.643V166H455.939ZM456.803 150.616C456.451 150.616 456.155 150.496 455.915 150.256C455.675 150.016 455.555 149.728 455.555 149.392C455.555 149.056 455.675 148.776 455.915 148.552C456.155 148.312 456.451 148.192 456.803 148.192C457.155 148.192 457.451 148.304 457.691 148.528C457.931 148.752 458.051 149.032 458.051 149.368C458.051 149.72 457.931 150.016 457.691 150.256C457.467 150.496 457.171 150.616 456.803 150.616ZM465.768 166.12C464.728 166.12 463.744 165.976 462.816 165.688C461.888 165.384 461.16 165.008 460.632 164.56L461.4 163.216C461.912 163.6 462.568 163.936 463.368 164.224C464.168 164.496 465.008 164.632 465.888 164.632C467.088 164.632 467.952 164.448 468.48 164.08C469.008 163.696 469.272 163.192 469.272 162.568C469.272 162.104 469.12 161.744 468.816 161.488C468.528 161.216 468.144 161.016 467.664 160.888C467.184 160.744 466.648 160.624 466.056 160.528C465.464 160.432 464.872 160.32 464.28 160.192C463.704 160.064 463.176 159.88 462.696 159.64C462.216 159.384 461.824 159.04 461.52 158.608C461.232 158.176 461.088 157.6 461.088 156.88C461.088 156.192 461.28 155.576 461.664 155.032C462.048 154.488 462.608 154.064 463.344 153.76C464.096 153.44 465.008 153.28 466.08 153.28C466.896 153.28 467.712 153.392 468.528 153.616C469.344 153.824 470.016 154.104 470.544 154.456L469.8 155.824C469.24 155.44 468.64 155.168 468 155.008C467.36 154.832 466.72 154.744 466.08 154.744C464.944 154.744 464.104 154.944 463.56 155.344C463.032 155.728 462.768 156.224 462.768 156.832C462.768 157.312 462.912 157.688 463.2 157.96C463.504 158.232 463.896 158.448 464.376 158.608C464.872 158.752 465.408 158.872 465.984 158.968C466.576 159.064 467.16 159.184 467.736 159.328C468.328 159.456 468.864 159.64 469.344 159.88C469.84 160.104 470.232 160.432 470.52 160.864C470.824 161.28 470.976 161.832 470.976 162.52C470.976 163.256 470.768 163.896 470.352 164.44C469.952 164.968 469.36 165.384 468.576 165.688C467.808 165.976 466.872 166.12 465.768 166.12ZM478.087 166.12C476.903 166.12 475.991 165.8 475.351 165.16C474.711 164.52 474.391 163.616 474.391 162.448V150.616H476.095V162.352C476.095 163.088 476.279 163.656 476.647 164.056C477.031 164.456 477.575 164.656 478.279 164.656C479.031 164.656 479.655 164.44 480.151 164.008L480.751 165.232C480.415 165.536 480.007 165.76 479.527 165.904C479.063 166.048 478.583 166.12 478.087 166.12ZM472.135 154.816V153.4H479.935V154.816H472.135ZM495.27 166.12C494.054 166.12 492.958 165.848 491.982 165.304C491.022 164.744 490.262 163.984 489.702 163.024C489.142 162.048 488.862 160.936 488.862 159.688C488.862 158.424 489.142 157.312 489.702 156.352C490.262 155.392 491.022 154.64 491.982 154.096C492.942 153.552 494.038 153.28 495.27 153.28C496.518 153.28 497.622 153.552 498.582 154.096C499.558 154.64 500.318 155.392 500.862 156.352C501.422 157.312 501.702 158.424 501.702 159.688C501.702 160.936 501.422 162.048 500.862 163.024C500.318 163.984 499.558 164.744 498.582 165.304C497.606 165.848 496.502 166.12 495.27 166.12ZM495.27 164.608C496.182 164.608 496.99 164.408 497.694 164.008C498.398 163.592 498.95 163.016 499.35 162.28C499.766 161.528 499.974 160.664 499.974 159.688C499.974 158.696 499.766 157.832 499.35 157.096C498.95 156.36 498.398 155.792 497.694 155.392C496.99 154.976 496.19 154.768 495.294 154.768C494.398 154.768 493.598 154.976 492.894 155.392C492.19 155.792 491.63 156.36 491.214 157.096C490.798 157.832 490.59 158.696 490.59 159.688C490.59 160.664 490.798 161.528 491.214 162.28C491.63 163.016 492.19 163.592 492.894 164.008C493.598 164.408 494.39 164.608 495.27 164.608ZM505.469 166V151.816C505.469 150.696 505.797 149.792 506.453 149.104C507.109 148.416 508.053 148.072 509.285 148.072C509.765 148.072 510.229 148.136 510.677 148.264C511.125 148.392 511.501 148.592 511.805 148.864L511.229 150.136C510.989 149.928 510.709 149.776 510.389 149.68C510.069 149.568 509.725 149.512 509.357 149.512C508.637 149.512 508.085 149.712 507.701 150.112C507.317 150.512 507.125 151.104 507.125 151.888V153.808L507.173 154.6V166H505.469ZM503.213 154.816V153.4H511.013V154.816H503.213ZM8.88 195.12C7.792 195.12 6.808 194.872 5.928 194.376C5.048 193.864 4.344 193.136 3.816 192.192C3.304 191.232 3.048 190.064 3.048 188.688C3.048 187.312 3.304 186.152 3.816 185.208C4.328 184.248 5.024 183.52 5.904 183.024C6.784 182.528 7.776 182.28 8.88 182.28C10.08 182.28 11.152 182.552 12.096 183.096C13.056 183.624 13.808 184.376 14.352 185.352C14.896 186.312 15.168 187.424 15.168 188.688C15.168 189.968 14.896 191.088 14.352 192.048C13.808 193.008 13.056 193.76 12.096 194.304C11.152 194.848 10.08 195.12 8.88 195.12ZM2.376 199.656V182.4H4.008V186.192L3.84 188.712L4.08 191.256V199.656H2.376ZM8.76 193.608C9.656 193.608 10.456 193.408 11.16 193.008C11.864 192.592 12.424 192.016 12.84 191.28C13.256 190.528 13.464 189.664 13.464 188.688C13.464 187.712 13.256 186.856 12.84 186.12C12.424 185.384 11.864 184.808 11.16 184.392C10.456 183.976 9.656 183.768 8.76 183.768C7.864 183.768 7.056 183.976 6.336 184.392C5.632 184.808 5.072 185.384 4.656 186.12C4.256 186.856 4.056 187.712 4.056 188.688C4.056 189.664 4.256 190.528 4.656 191.28C5.072 192.016 5.632 192.592 6.336 193.008C7.056 193.408 7.864 193.608 8.76 193.608ZM18.6416 195V182.4H20.2736V185.832L20.1056 185.232C20.4576 184.272 21.0496 183.544 21.8816 183.048C22.7136 182.536 23.7456 182.28 24.9776 182.28V183.936C24.9136 183.936 24.8496 183.936 24.7856 183.936C24.7216 183.92 24.6576 183.912 24.5936 183.912C23.2656 183.912 22.2256 184.32 21.4736 185.136C20.7216 185.936 20.3456 187.08 20.3456 188.568V195H18.6416ZM33.1058 195.12C31.8898 195.12 30.7938 194.848 29.8178 194.304C28.8578 193.744 28.0978 192.984 27.5378 192.024C26.9778 191.048 26.6978 189.936 26.6978 188.688C26.6978 187.424 26.9778 186.312 27.5378 185.352C28.0978 184.392 28.8578 183.64 29.8178 183.096C30.7778 182.552 31.8738 182.28 33.1058 182.28C34.3538 182.28 35.4578 182.552 36.4178 183.096C37.3938 183.64 38.1538 184.392 38.6978 185.352C39.2578 186.312 39.5378 187.424 39.5378 188.688C39.5378 189.936 39.2578 191.048 38.6978 192.024C38.1538 192.984 37.3938 193.744 36.4178 194.304C35.4418 194.848 34.3378 195.12 33.1058 195.12ZM33.1058 193.608C34.0178 193.608 34.8258 193.408 35.5298 193.008C36.2338 192.592 36.7858 192.016 37.1858 191.28C37.6018 190.528 37.8098 189.664 37.8098 188.688C37.8098 187.696 37.6018 186.832 37.1858 186.096C36.7858 185.36 36.2338 184.792 35.5298 184.392C34.8258 183.976 34.0258 183.768 33.1298 183.768C32.2338 183.768 31.4338 183.976 30.7298 184.392C30.0258 184.792 29.4658 185.36 29.0498 186.096C28.6338 186.832 28.4258 187.696 28.4258 188.688C28.4258 189.664 28.6338 190.528 29.0498 191.28C29.4658 192.016 30.0258 192.592 30.7298 193.008C31.4338 193.408 32.2258 193.608 33.1058 193.608ZM48.0326 195.12C46.8326 195.12 45.7526 194.848 44.7926 194.304C43.8486 193.76 43.1046 193.008 42.5606 192.048C42.0166 191.072 41.7446 189.952 41.7446 188.688C41.7446 187.408 42.0166 186.288 42.5606 185.328C43.1046 184.368 43.8486 183.624 44.7926 183.096C45.7526 182.552 46.8326 182.28 48.0326 182.28C49.1366 182.28 50.1206 182.528 50.9846 183.024C51.8646 183.52 52.5606 184.248 53.0726 185.208C53.6006 186.152 53.8646 187.312 53.8646 188.688C53.8646 190.048 53.6086 191.208 53.0966 192.168C52.5846 193.128 51.8886 193.864 51.0086 194.376C50.1446 194.872 49.1526 195.12 48.0326 195.12ZM48.1526 193.608C49.0486 193.608 49.8486 193.408 50.5526 193.008C51.2726 192.592 51.8326 192.016 52.2326 191.28C52.6486 190.528 52.8566 189.664 52.8566 188.688C52.8566 187.696 52.6486 186.832 52.2326 186.096C51.8326 185.36 51.2726 184.792 50.5526 184.392C49.8486 183.976 49.0486 183.768 48.1526 183.768C47.2726 183.768 46.4806 183.976 45.7766 184.392C45.0726 184.792 44.5126 185.36 44.0966 186.096C43.6806 186.832 43.4726 187.696 43.4726 188.688C43.4726 189.664 43.6806 190.528 44.0966 191.28C44.5126 192.016 45.0726 192.592 45.7766 193.008C46.4806 193.408 47.2726 193.608 48.1526 193.608ZM52.9046 195V191.208L53.0726 188.664L52.8326 186.12V177.192H54.5366V195H52.9046ZM64.4903 195.12C63.4183 195.12 62.4823 194.92 61.6823 194.52C60.8823 194.12 60.2583 193.52 59.8103 192.72C59.3783 191.92 59.1623 190.92 59.1623 189.72V182.4H60.8663V189.528C60.8663 190.872 61.1943 191.888 61.8503 192.576C62.5223 193.248 63.4583 193.584 64.6583 193.584C65.5383 193.584 66.2983 193.408 66.9383 193.056C67.5943 192.688 68.0903 192.16 68.4263 191.472C68.7783 190.784 68.9543 189.96 68.9543 189V182.4H70.6583V195H69.0262V191.544L69.2903 192.168C68.8903 193.096 68.2663 193.824 67.4183 194.352C66.5863 194.864 65.6103 195.12 64.4903 195.12ZM80.6393 195.12C79.3913 195.12 78.2713 194.848 77.2793 194.304C76.3033 193.744 75.5353 192.984 74.9753 192.024C74.4153 191.048 74.1353 189.936 74.1353 188.688C74.1353 187.424 74.4153 186.312 74.9753 185.352C75.5353 184.392 76.3033 183.64 77.2793 183.096C78.2713 182.552 79.3913 182.28 80.6393 182.28C81.7113 182.28 82.6793 182.488 83.5433 182.904C84.4073 183.32 85.0873 183.944 85.5833 184.776L84.3113 185.64C83.8793 185 83.3433 184.528 82.7033 184.224C82.0633 183.92 81.3673 183.768 80.6153 183.768C79.7193 183.768 78.9113 183.976 78.1913 184.392C77.4713 184.792 76.9033 185.36 76.4873 186.096C76.0713 186.832 75.8633 187.696 75.8633 188.688C75.8633 189.68 76.0713 190.544 76.4873 191.28C76.9033 192.016 77.4713 192.592 78.1913 193.008C78.9113 193.408 79.7193 193.608 80.6153 193.608C81.3673 193.608 82.0633 193.456 82.7033 193.152C83.3433 192.848 83.8793 192.384 84.3113 191.76L85.5833 192.624C85.0873 193.44 84.4073 194.064 83.5433 194.496C82.6793 194.912 81.7113 195.12 80.6393 195.12ZM93.0553 195.12C91.8713 195.12 90.9593 194.8 90.3193 194.16C89.6793 193.52 89.3593 192.616 89.3593 191.448V179.616H91.0633V191.352C91.0633 192.088 91.2473 192.656 91.6153 193.056C91.9993 193.456 92.5433 193.656 93.2473 193.656C93.9993 193.656 94.6233 193.44 95.1193 193.008L95.7193 194.232C95.3833 194.536 94.9753 194.76 94.4953 194.904C94.0313 195.048 93.5513 195.12 93.0553 195.12ZM87.1033 183.816V182.4H94.9033V183.816H87.1033ZM120.847 182.28C121.871 182.28 122.759 182.48 123.511 182.88C124.279 183.264 124.871 183.856 125.287 184.656C125.719 185.456 125.935 186.464 125.935 187.68V195H124.231V187.848C124.231 186.52 123.911 185.52 123.271 184.848C122.647 184.16 121.759 183.816 120.607 183.816C119.743 183.816 118.991 184 118.351 184.368C117.727 184.72 117.239 185.24 116.887 185.928C116.551 186.6 116.383 187.416 116.383 188.376V195H114.679V187.848C114.679 186.52 114.359 185.52 113.719 184.848C113.079 184.16 112.183 183.816 111.031 183.816C110.183 183.816 109.439 184 108.799 184.368C108.159 184.72 107.663 185.24 107.311 185.928C106.975 186.6 106.807 187.416 106.807 188.376V195H105.103V182.4H106.735V185.808L106.471 185.208C106.855 184.296 107.471 183.584 108.319 183.072C109.183 182.544 110.199 182.28 111.367 182.28C112.599 182.28 113.647 182.592 114.511 183.216C115.375 183.824 115.935 184.744 116.191 185.976L115.519 185.712C115.887 184.688 116.535 183.864 117.463 183.24C118.407 182.6 119.535 182.28 120.847 182.28ZM138.452 195V192.216L138.38 191.76V187.104C138.38 186.032 138.076 185.208 137.468 184.632C136.876 184.056 135.988 183.768 134.804 183.768C133.988 183.768 133.212 183.904 132.476 184.176C131.74 184.448 131.116 184.808 130.604 185.256L129.836 183.984C130.476 183.44 131.244 183.024 132.14 182.736C133.036 182.432 133.98 182.28 134.972 182.28C136.604 182.28 137.86 182.688 138.74 183.504C139.636 184.304 140.084 185.528 140.084 187.176V195H138.452ZM134.108 195.12C133.164 195.12 132.34 194.968 131.636 194.664C130.948 194.344 130.42 193.912 130.052 193.368C129.684 192.808 129.5 192.168 129.5 191.448C129.5 190.792 129.652 190.2 129.956 189.672C130.276 189.128 130.788 188.696 131.492 188.376C132.212 188.04 133.172 187.872 134.372 187.872H138.716V189.144H134.42C133.204 189.144 132.356 189.36 131.876 189.792C131.412 190.224 131.18 190.76 131.18 191.4C131.18 192.12 131.46 192.696 132.02 193.128C132.58 193.56 133.364 193.776 134.372 193.776C135.332 193.776 136.156 193.56 136.844 193.128C137.548 192.68 138.06 192.04 138.38 191.208L138.764 192.384C138.444 193.216 137.884 193.88 137.084 194.376C136.3 194.872 135.308 195.12 134.108 195.12ZM151.144 182.28C152.168 182.28 153.064 182.48 153.832 182.88C154.616 183.264 155.224 183.856 155.656 184.656C156.104 185.456 156.328 186.464 156.328 187.68V195H154.624V187.848C154.624 186.52 154.288 185.52 153.616 184.848C152.96 184.16 152.032 183.816 150.832 183.816C149.936 183.816 149.152 184 148.48 184.368C147.824 184.72 147.312 185.24 146.944 185.928C146.592 186.6 146.416 187.416 146.416 188.376V195H144.712V182.4H146.344V185.856L146.08 185.208C146.48 184.296 147.12 183.584 148 183.072C148.88 182.544 149.928 182.28 151.144 182.28ZM168.827 195V192.216L168.755 191.76V187.104C168.755 186.032 168.451 185.208 167.843 184.632C167.251 184.056 166.363 183.768 165.179 183.768C164.363 183.768 163.587 183.904 162.851 184.176C162.115 184.448 161.491 184.808 160.979 185.256L160.211 183.984C160.851 183.44 161.619 183.024 162.515 182.736C163.411 182.432 164.355 182.28 165.347 182.28C166.979 182.28 168.235 182.688 169.115 183.504C170.011 184.304 170.459 185.528 170.459 187.176V195H168.827ZM164.483 195.12C163.539 195.12 162.715 194.968 162.011 194.664C161.323 194.344 160.795 193.912 160.427 193.368C160.059 192.808 159.875 192.168 159.875 191.448C159.875 190.792 160.027 190.2 160.331 189.672C160.651 189.128 161.163 188.696 161.867 188.376C162.587 188.04 163.547 187.872 164.747 187.872H169.091V189.144H164.795C163.579 189.144 162.731 189.36 162.251 189.792C161.787 190.224 161.555 190.76 161.555 191.4C161.555 192.12 161.835 192.696 162.395 193.128C162.955 193.56 163.739 193.776 164.747 193.776C165.707 193.776 166.531 193.56 167.219 193.128C167.923 192.68 168.435 192.04 168.755 191.208L169.139 192.384C168.819 193.216 168.259 193.88 167.459 194.376C166.675 194.872 165.683 195.12 164.483 195.12ZM180.463 199.776C179.311 199.776 178.207 199.608 177.151 199.272C176.095 198.936 175.239 198.456 174.583 197.832L175.447 196.536C176.039 197.064 176.767 197.48 177.631 197.784C178.511 198.104 179.439 198.264 180.415 198.264C182.015 198.264 183.191 197.888 183.943 197.136C184.695 196.4 185.071 195.248 185.071 193.68V190.536L185.311 188.376L185.143 186.216V182.4H186.775V193.464C186.775 195.64 186.239 197.232 185.167 198.24C184.111 199.264 182.543 199.776 180.463 199.776ZM180.151 194.52C178.951 194.52 177.871 194.264 176.911 193.752C175.951 193.224 175.191 192.496 174.631 191.568C174.087 190.64 173.815 189.576 173.815 188.376C173.815 187.176 174.087 186.12 174.631 185.208C175.191 184.28 175.951 183.56 176.911 183.048C177.871 182.536 178.951 182.28 180.151 182.28C181.271 182.28 182.279 182.512 183.175 182.976C184.071 183.44 184.783 184.128 185.311 185.04C185.839 185.952 186.103 187.064 186.103 188.376C186.103 189.688 185.839 190.8 185.311 191.712C184.783 192.624 184.071 193.32 183.175 193.8C182.279 194.28 181.271 194.52 180.151 194.52ZM180.319 193.008C181.247 193.008 182.071 192.816 182.791 192.432C183.511 192.032 184.079 191.488 184.495 190.8C184.911 190.096 185.119 189.288 185.119 188.376C185.119 187.464 184.911 186.664 184.495 185.976C184.079 185.288 183.511 184.752 182.791 184.368C182.071 183.968 181.247 183.768 180.319 183.768C179.407 183.768 178.583 183.968 177.847 184.368C177.127 184.752 176.559 185.288 176.143 185.976C175.743 186.664 175.543 187.464 175.543 188.376C175.543 189.288 175.743 190.096 176.143 190.8C176.559 191.488 177.127 192.032 177.847 192.432C178.583 192.816 179.407 193.008 180.319 193.008ZM196.869 195.12C195.557 195.12 194.405 194.848 193.413 194.304C192.421 193.744 191.645 192.984 191.085 192.024C190.525 191.048 190.245 189.936 190.245 188.688C190.245 187.44 190.509 186.336 191.037 185.376C191.581 184.416 192.317 183.664 193.245 183.12C194.189 182.56 195.245 182.28 196.413 182.28C197.597 182.28 198.645 182.552 199.557 183.096C200.485 183.624 201.213 184.376 201.741 185.352C202.269 186.312 202.533 187.424 202.533 188.688C202.533 188.768 202.525 188.856 202.509 188.952C202.509 189.032 202.509 189.12 202.509 189.216H191.541V187.944H201.597L200.925 188.448C200.925 187.536 200.725 186.728 200.325 186.024C199.941 185.304 199.413 184.744 198.741 184.344C198.069 183.944 197.293 183.744 196.413 183.744C195.549 183.744 194.773 183.944 194.085 184.344C193.397 184.744 192.861 185.304 192.477 186.024C192.093 186.744 191.901 187.568 191.901 188.496V188.76C191.901 189.72 192.109 190.568 192.525 191.304C192.957 192.024 193.549 192.592 194.301 193.008C195.069 193.408 195.941 193.608 196.917 193.608C197.685 193.608 198.397 193.472 199.053 193.2C199.725 192.928 200.301 192.512 200.781 191.952L201.741 193.056C201.181 193.728 200.477 194.24 199.629 194.592C198.797 194.944 197.877 195.12 196.869 195.12ZM221.745 182.28C222.769 182.28 223.657 182.48 224.409 182.88C225.177 183.264 225.769 183.856 226.185 184.656C226.617 185.456 226.833 186.464 226.833 187.68V195H225.129V187.848C225.129 186.52 224.809 185.52 224.169 184.848C223.545 184.16 222.657 183.816 221.505 183.816C220.641 183.816 219.889 184 219.249 184.368C218.625 184.72 218.137 185.24 217.785 185.928C217.449 186.6 217.281 187.416 217.281 188.376V195H215.577V187.848C215.577 186.52 215.257 185.52 214.617 184.848C213.977 184.16 213.081 183.816 211.929 183.816C211.081 183.816 210.337 184 209.697 184.368C209.057 184.72 208.561 185.24 208.209 185.928C207.873 186.6 207.705 187.416 207.705 188.376V195H206.001V182.4H207.633V185.808L207.369 185.208C207.753 184.296 208.369 183.584 209.217 183.072C210.081 182.544 211.097 182.28 212.265 182.28C213.497 182.28 214.545 182.592 215.409 183.216C216.273 183.824 216.833 184.744 217.089 185.976L216.417 185.712C216.785 184.688 217.433 183.864 218.361 183.24C219.305 182.6 220.433 182.28 221.745 182.28ZM236.806 195.12C235.494 195.12 234.342 194.848 233.35 194.304C232.358 193.744 231.582 192.984 231.022 192.024C230.462 191.048 230.182 189.936 230.182 188.688C230.182 187.44 230.446 186.336 230.974 185.376C231.518 184.416 232.254 183.664 233.182 183.12C234.126 182.56 235.182 182.28 236.35 182.28C237.534 182.28 238.582 182.552 239.494 183.096C240.422 183.624 241.15 184.376 241.678 185.352C242.206 186.312 242.47 187.424 242.47 188.688C242.47 188.768 242.462 188.856 242.446 188.952C242.446 189.032 242.446 189.12 242.446 189.216H231.478V187.944H241.534L240.862 188.448C240.862 187.536 240.662 186.728 240.262 186.024C239.878 185.304 239.35 184.744 238.678 184.344C238.006 183.944 237.23 183.744 236.35 183.744C235.486 183.744 234.71 183.944 234.022 184.344C233.334 184.744 232.798 185.304 232.414 186.024C232.03 186.744 231.838 187.568 231.838 188.496V188.76C231.838 189.72 232.046 190.568 232.462 191.304C232.894 192.024 233.486 192.592 234.238 193.008C235.006 193.408 235.878 193.608 236.854 193.608C237.622 193.608 238.334 193.472 238.99 193.2C239.662 192.928 240.238 192.512 240.718 191.952L241.678 193.056C241.118 193.728 240.414 194.24 239.566 194.592C238.734 194.944 237.814 195.12 236.806 195.12ZM252.371 182.28C253.395 182.28 254.291 182.48 255.059 182.88C255.843 183.264 256.451 183.856 256.883 184.656C257.331 185.456 257.555 186.464 257.555 187.68V195H255.851V187.848C255.851 186.52 255.515 185.52 254.843 184.848C254.187 184.16 253.259 183.816 252.059 183.816C251.163 183.816 250.379 184 249.707 184.368C249.051 184.72 248.539 185.24 248.171 185.928C247.819 186.6 247.643 187.416 247.643 188.376V195H245.939V182.4H247.571V185.856L247.307 185.208C247.707 184.296 248.347 183.584 249.227 183.072C250.107 182.544 251.155 182.28 252.371 182.28ZM266.141 195.12C264.957 195.12 264.045 194.8 263.405 194.16C262.765 193.52 262.445 192.616 262.445 191.448V179.616H264.149V191.352C264.149 192.088 264.333 192.656 264.701 193.056C265.085 193.456 265.629 193.656 266.333 193.656C267.085 193.656 267.709 193.44 268.205 193.008L268.805 194.232C268.469 194.536 268.061 194.76 267.581 194.904C267.117 195.048 266.637 195.12 266.141 195.12ZM260.189 183.816V182.4H267.989V183.816H260.189ZM278.189 195V182.4H279.893V195H278.189ZM279.053 179.616C278.701 179.616 278.405 179.496 278.165 179.256C277.925 179.016 277.805 178.728 277.805 178.392C277.805 178.056 277.925 177.776 278.165 177.552C278.405 177.312 278.701 177.192 279.053 177.192C279.405 177.192 279.701 177.304 279.941 177.528C280.181 177.752 280.301 178.032 280.301 178.368C280.301 178.72 280.181 179.016 279.941 179.256C279.717 179.496 279.421 179.616 279.053 179.616ZM291.066 182.28C292.09 182.28 292.986 182.48 293.754 182.88C294.538 183.264 295.146 183.856 295.578 184.656C296.026 185.456 296.25 186.464 296.25 187.68V195H294.546V187.848C294.546 186.52 294.21 185.52 293.538 184.848C292.882 184.16 291.954 183.816 290.754 183.816C289.858 183.816 289.074 184 288.402 184.368C287.746 184.72 287.234 185.24 286.866 185.928C286.514 186.6 286.338 187.416 286.338 188.376V195H284.634V182.4H286.266V185.856L286.002 185.208C286.402 184.296 287.042 183.584 287.922 183.072C288.802 182.544 289.85 182.28 291.066 182.28ZM304.837 195.12C303.653 195.12 302.741 194.8 302.101 194.16C301.461 193.52 301.141 192.616 301.141 191.448V179.616H302.845V191.352C302.845 192.088 303.029 192.656 303.397 193.056C303.781 193.456 304.325 193.656 305.029 193.656C305.781 193.656 306.405 193.44 306.901 193.008L307.501 194.232C307.165 194.536 306.757 194.76 306.277 194.904C305.813 195.048 305.333 195.12 304.837 195.12ZM298.885 183.816V182.4H306.685V183.816H298.885ZM315.509 195.12C314.197 195.12 313.045 194.848 312.053 194.304C311.061 193.744 310.285 192.984 309.725 192.024C309.165 191.048 308.885 189.936 308.885 188.688C308.885 187.44 309.149 186.336 309.677 185.376C310.221 184.416 310.957 183.664 311.885 183.12C312.829 182.56 313.885 182.28 315.053 182.28C316.237 182.28 317.285 182.552 318.197 183.096C319.125 183.624 319.853 184.376 320.381 185.352C320.909 186.312 321.173 187.424 321.173 188.688C321.173 188.768 321.165 188.856 321.149 188.952C321.149 189.032 321.149 189.12 321.149 189.216H310.181V187.944H320.237L319.565 188.448C319.565 187.536 319.365 186.728 318.965 186.024C318.581 185.304 318.053 184.744 317.381 184.344C316.709 183.944 315.933 183.744 315.053 183.744C314.189 183.744 313.413 183.944 312.725 184.344C312.037 184.744 311.501 185.304 311.117 186.024C310.733 186.744 310.541 187.568 310.541 188.496V188.76C310.541 189.72 310.749 190.568 311.165 191.304C311.597 192.024 312.189 192.592 312.941 193.008C313.709 193.408 314.581 193.608 315.557 193.608C316.325 193.608 317.037 193.472 317.693 193.2C318.365 192.928 318.941 192.512 319.421 191.952L320.381 193.056C319.821 193.728 319.117 194.24 318.269 194.592C317.437 194.944 316.517 195.12 315.509 195.12ZM324.642 195V182.4H326.274V185.832L326.106 185.232C326.458 184.272 327.05 183.544 327.882 183.048C328.714 182.536 329.746 182.28 330.978 182.28V183.936C330.914 183.936 330.85 183.936 330.786 183.936C330.722 183.92 330.658 183.912 330.594 183.912C329.266 183.912 328.226 184.32 327.474 185.136C326.722 185.936 326.346 187.08 326.346 188.568V195H324.642ZM340.519 182.28C341.543 182.28 342.439 182.48 343.207 182.88C343.991 183.264 344.599 183.856 345.031 184.656C345.479 185.456 345.703 186.464 345.703 187.68V195H343.999V187.848C343.999 186.52 343.663 185.52 342.991 184.848C342.335 184.16 341.407 183.816 340.207 183.816C339.311 183.816 338.527 184 337.855 184.368C337.199 184.72 336.687 185.24 336.319 185.928C335.967 186.6 335.791 187.416 335.791 188.376V195H334.087V182.4H335.719V185.856L335.455 185.208C335.855 184.296 336.495 183.584 337.375 183.072C338.255 182.544 339.303 182.28 340.519 182.28ZM353.69 195.12C352.65 195.12 351.666 194.976 350.738 194.688C349.81 194.384 349.082 194.008 348.554 193.56L349.322 192.216C349.834 192.6 350.49 192.936 351.29 193.224C352.09 193.496 352.93 193.632 353.81 193.632C355.01 193.632 355.874 193.448 356.402 193.08C356.93 192.696 357.194 192.192 357.194 191.568C357.194 191.104 357.042 190.744 356.738 190.488C356.45 190.216 356.066 190.016 355.586 189.888C355.106 189.744 354.57 189.624 353.978 189.528C353.386 189.432 352.794 189.32 352.202 189.192C351.626 189.064 351.098 188.88 350.618 188.64C350.138 188.384 349.746 188.04 349.442 187.608C349.154 187.176 349.01 186.6 349.01 185.88C349.01 185.192 349.202 184.576 349.586 184.032C349.97 183.488 350.53 183.064 351.266 182.76C352.018 182.44 352.93 182.28 354.002 182.28C354.818 182.28 355.634 182.392 356.45 182.616C357.266 182.824 357.938 183.104 358.466 183.456L357.722 184.824C357.162 184.44 356.562 184.168 355.922 184.008C355.282 183.832 354.642 183.744 354.002 183.744C352.866 183.744 352.026 183.944 351.482 184.344C350.954 184.728 350.69 185.224 350.69 185.832C350.69 186.312 350.834 186.688 351.122 186.96C351.426 187.232 351.818 187.448 352.298 187.608C352.794 187.752 353.33 187.872 353.906 187.968C354.498 188.064 355.082 188.184 355.658 188.328C356.25 188.456 356.786 188.64 357.266 188.88C357.762 189.104 358.154 189.432 358.442 189.864C358.746 190.28 358.898 190.832 358.898 191.52C358.898 192.256 358.69 192.896 358.274 193.44C357.874 193.968 357.282 194.384 356.498 194.688C355.73 194.976 354.794 195.12 353.69 195.12ZM368.456 182.28C369.48 182.28 370.376 182.48 371.144 182.88C371.928 183.264 372.536 183.856 372.968 184.656C373.416 185.456 373.64 186.464 373.64 187.68V195H371.936V187.848C371.936 186.52 371.6 185.52 370.928 184.848C370.272 184.16 369.344 183.816 368.144 183.816C367.248 183.816 366.464 184 365.792 184.368C365.136 184.72 364.624 185.24 364.256 185.928C363.904 186.6 363.728 187.416 363.728 188.376V195H362.024V177.192H363.728V185.856L363.392 185.208C363.792 184.296 364.432 183.584 365.312 183.072C366.192 182.544 367.24 182.28 368.456 182.28ZM378.243 195V182.4H379.947V195H378.243ZM379.107 179.616C378.755 179.616 378.459 179.496 378.219 179.256C377.979 179.016 377.859 178.728 377.859 178.392C377.859 178.056 377.979 177.776 378.219 177.552C378.459 177.312 378.755 177.192 379.107 177.192C379.459 177.192 379.755 177.304 379.995 177.528C380.235 177.752 380.355 178.032 380.355 178.368C380.355 178.72 380.235 179.016 379.995 179.256C379.771 179.496 379.475 179.616 379.107 179.616ZM391.193 195.12C390.105 195.12 389.121 194.872 388.241 194.376C387.361 193.864 386.657 193.136 386.129 192.192C385.617 191.232 385.361 190.064 385.361 188.688C385.361 187.312 385.617 186.152 386.129 185.208C386.641 184.248 387.337 183.52 388.217 183.024C389.097 182.528 390.089 182.28 391.193 182.28C392.393 182.28 393.465 182.552 394.409 183.096C395.369 183.624 396.121 184.376 396.665 185.352C397.209 186.312 397.481 187.424 397.481 188.688C397.481 189.968 397.209 191.088 396.665 192.048C396.121 193.008 395.369 193.76 394.409 194.304C393.465 194.848 392.393 195.12 391.193 195.12ZM384.689 199.656V182.4H386.321V186.192L386.153 188.712L386.393 191.256V199.656H384.689ZM391.073 193.608C391.969 193.608 392.769 193.408 393.473 193.008C394.177 192.592 394.737 192.016 395.153 191.28C395.569 190.528 395.777 189.664 395.777 188.688C395.777 187.712 395.569 186.856 395.153 186.12C394.737 185.384 394.177 184.808 393.473 184.392C392.769 183.976 391.969 183.768 391.073 183.768C390.177 183.768 389.369 183.976 388.648 184.392C387.945 184.808 387.385 185.384 386.969 186.12C386.569 186.856 386.369 187.712 386.369 188.688C386.369 189.664 386.569 190.528 386.969 191.28C387.385 192.016 387.945 192.592 388.648 193.008C389.369 193.408 390.177 193.608 391.073 193.608ZM404.338 195.12C403.298 195.12 402.314 194.976 401.386 194.688C400.458 194.384 399.73 194.008 399.202 193.56L399.97 192.216C400.482 192.6 401.138 192.936 401.938 193.224C402.738 193.496 403.578 193.632 404.458 193.632C405.658 193.632 406.522 193.448 407.05 193.08C407.578 192.696 407.842 192.192 407.842 191.568C407.842 191.104 407.69 190.744 407.386 190.488C407.098 190.216 406.714 190.016 406.234 189.888C405.754 189.744 405.218 189.624 404.626 189.528C404.034 189.432 403.442 189.32 402.85 189.192C402.274 189.064 401.746 188.88 401.266 188.64C400.786 188.384 400.394 188.04 400.09 187.608C399.802 187.176 399.658 186.6 399.658 185.88C399.658 185.192 399.85 184.576 400.234 184.032C400.618 183.488 401.178 183.064 401.914 182.76C402.666 182.44 403.578 182.28 404.65 182.28C405.466 182.28 406.282 182.392 407.098 182.616C407.914 182.824 408.586 183.104 409.114 183.456L408.37 184.824C407.81 184.44 407.21 184.168 406.57 184.008C405.93 183.832 405.29 183.744 404.65 183.744C403.514 183.744 402.674 183.944 402.13 184.344C401.602 184.728 401.338 185.224 401.338 185.832C401.338 186.312 401.482 186.688 401.77 186.96C402.074 187.232 402.466 187.448 402.946 187.608C403.442 187.752 403.978 187.872 404.554 187.968C405.146 188.064 405.73 188.184 406.306 188.328C406.898 188.456 407.434 188.64 407.914 188.88C408.41 189.104 408.802 189.432 409.09 189.864C409.394 190.28 409.546 190.832 409.546 191.52C409.546 192.256 409.338 192.896 408.922 193.44C408.522 193.968 407.93 194.384 407.146 194.688C406.378 194.976 405.442 195.12 404.338 195.12ZM426.85 195V192.216L426.778 191.76V187.104C426.778 186.032 426.474 185.208 425.866 184.632C425.274 184.056 424.386 183.768 423.202 183.768C422.386 183.768 421.61 183.904 420.874 184.176C420.138 184.448 419.514 184.808 419.002 185.256L418.234 183.984C418.874 183.44 419.642 183.024 420.538 182.736C421.434 182.432 422.378 182.28 423.37 182.28C425.002 182.28 426.258 182.688 427.138 183.504C428.034 184.304 428.482 185.528 428.482 187.176V195H426.85ZM422.506 195.12C421.562 195.12 420.738 194.968 420.034 194.664C419.346 194.344 418.818 193.912 418.45 193.368C418.082 192.808 417.898 192.168 417.898 191.448C417.898 190.792 418.05 190.2 418.354 189.672C418.674 189.128 419.186 188.696 419.89 188.376C420.61 188.04 421.57 187.872 422.77 187.872H427.114V189.144H422.818C421.602 189.144 420.754 189.36 420.274 189.792C419.81 190.224 419.578 190.76 419.578 191.4C419.578 192.12 419.858 192.696 420.418 193.128C420.978 193.56 421.762 193.776 422.77 193.776C423.73 193.776 424.554 193.56 425.242 193.128C425.946 192.68 426.458 192.04 426.778 191.208L427.162 192.384C426.842 193.216 426.282 193.88 425.482 194.376C424.698 194.872 423.706 195.12 422.506 195.12ZM439.542 182.28C440.566 182.28 441.462 182.48 442.23 182.88C443.014 183.264 443.622 183.856 444.054 184.656C444.502 185.456 444.726 186.464 444.726 187.68V195H443.022V187.848C443.022 186.52 442.686 185.52 442.014 184.848C441.358 184.16 440.43 183.816 439.23 183.816C438.334 183.816 437.55 184 436.878 184.368C436.222 184.72 435.71 185.24 435.342 185.928C434.99 186.6 434.814 187.416 434.814 188.376V195H433.11V182.4H434.742V185.856L434.478 185.208C434.878 184.296 435.518 183.584 436.398 183.072C437.278 182.544 438.326 182.28 439.542 182.28ZM454.345 195.12C453.145 195.12 452.065 194.848 451.105 194.304C450.161 193.76 449.417 193.008 448.873 192.048C448.329 191.072 448.057 189.952 448.057 188.688C448.057 187.408 448.329 186.288 448.873 185.328C449.417 184.368 450.161 183.624 451.105 183.096C452.065 182.552 453.145 182.28 454.345 182.28C455.449 182.28 456.433 182.528 457.297 183.024C458.177 183.52 458.873 184.248 459.385 185.208C459.913 186.152 460.177 187.312 460.177 188.688C460.177 190.048 459.921 191.208 459.409 192.168C458.897 193.128 458.201 193.864 457.321 194.376C456.457 194.872 455.465 195.12 454.345 195.12ZM454.465 193.608C455.361 193.608 456.161 193.408 456.865 193.008C457.585 192.592 458.145 192.016 458.545 191.28C458.961 190.528 459.169 189.664 459.169 188.688C459.169 187.696 458.961 186.832 458.545 186.096C458.145 185.36 457.585 184.792 456.865 184.392C456.161 183.976 455.361 183.768 454.465 183.768C453.585 183.768 452.793 183.976 452.089 184.392C451.385 184.792 450.825 185.36 450.409 186.096C449.993 186.832 449.785 187.696 449.785 188.688C449.785 189.664 449.993 190.528 450.409 191.28C450.825 192.016 451.385 192.592 452.089 193.008C452.793 193.408 453.585 193.608 454.465 193.608ZM459.217 195V191.208L459.385 188.664L459.145 186.12V177.192H460.849V195H459.217ZM478.308 182.28C479.332 182.28 480.228 182.48 480.996 182.88C481.78 183.264 482.388 183.856 482.82 184.656C483.268 185.456 483.492 186.464 483.492 187.68V195H481.788V187.848C481.788 186.52 481.452 185.52 480.78 184.848C480.124 184.16 479.196 183.816 477.996 183.816C477.1 183.816 476.316 184 475.644 184.368C474.988 184.72 474.476 185.24 474.108 185.928C473.756 186.6 473.58 187.416 473.58 188.376V195H471.876V182.4H473.508V185.856L473.244 185.208C473.644 184.296 474.284 183.584 475.164 183.072C476.044 182.544 477.092 182.28 478.308 182.28ZM493.447 195.12C492.135 195.12 490.983 194.848 489.991 194.304C488.999 193.744 488.223 192.984 487.663 192.024C487.103 191.048 486.823 189.936 486.823 188.688C486.823 187.44 487.087 186.336 487.615 185.376C488.159 184.416 488.895 183.664 489.823 183.12C490.767 182.56 491.823 182.28 492.991 182.28C494.175 182.28 495.223 182.552 496.135 183.096C497.063 183.624 497.791 184.376 498.319 185.352C498.847 186.312 499.111 187.424 499.111 188.688C499.111 188.768 499.103 188.856 499.087 188.952C499.087 189.032 499.087 189.12 499.087 189.216H488.119V187.944H498.175L497.503 188.448C497.503 187.536 497.303 186.728 496.903 186.024C496.519 185.304 495.991 184.744 495.319 184.344C494.647 183.944 493.871 183.744 492.991 183.744C492.127 183.744 491.351 183.944 490.663 184.344C489.975 184.744 489.439 185.304 489.055 186.024C488.671 186.744 488.479 187.568 488.479 188.496V188.76C488.479 189.72 488.687 190.568 489.103 191.304C489.535 192.024 490.127 192.592 490.879 193.008C491.647 193.408 492.519 193.608 493.495 193.608C494.263 193.608 494.975 193.472 495.631 193.2C496.303 192.928 496.879 192.512 497.359 191.952L498.319 193.056C497.759 193.728 497.055 194.24 496.207 194.592C495.375 194.944 494.455 195.12 493.447 195.12ZM504.913 195L500.161 182.4H501.793L506.113 194.088H505.369L509.809 182.4H511.273L515.665 194.088H514.921L519.313 182.4H520.873L516.097 195H514.489L510.265 184.008H510.769L506.521 195H504.913ZM7.752 228.776C6.6 228.776 5.496 228.608 4.44 228.272C3.384 227.936 2.528 227.456 1.872 226.832L2.736 225.536C3.328 226.064 4.056 226.48 4.92 226.784C5.8 227.104 6.728 227.264 7.704 227.264C9.304 227.264 10.48 226.888 11.232 226.136C11.984 225.4 12.36 224.248 12.36 222.68V219.536L12.6 217.376L12.432 215.216V211.4H14.064V222.464C14.064 224.64 13.528 226.232 12.456 227.24C11.4 228.264 9.832 228.776 7.752 228.776ZM7.44 223.52C6.24 223.52 5.16 223.264 4.2 222.752C3.24 222.224 2.48 221.496 1.92 220.568C1.376 219.64 1.104 218.576 1.104 217.376C1.104 216.176 1.376 215.12 1.92 214.208C2.48 213.28 3.24 212.56 4.2 212.048C5.16 211.536 6.24 211.28 7.44 211.28C8.56 211.28 9.568 211.512 10.464 211.976C11.36 212.44 12.072 213.128 12.6 214.04C13.128 214.952 13.392 216.064 13.392 217.376C13.392 218.688 13.128 219.8 12.6 220.712C12.072 221.624 11.36 222.32 10.464 222.8C9.568 223.28 8.56 223.52 7.44 223.52ZM7.608 222.008C8.536 222.008 9.36 221.816 10.08 221.432C10.8 221.032 11.368 220.488 11.784 219.8C12.2 219.096 12.408 218.288 12.408 217.376C12.408 216.464 12.2 215.664 11.784 214.976C11.368 214.288 10.8 213.752 10.08 213.368C9.36 212.968 8.536 212.768 7.608 212.768C6.696 212.768 5.872 212.968 5.136 213.368C4.416 213.752 3.848 214.288 3.432 214.976C3.032 215.664 2.832 216.464 2.832 217.376C2.832 218.288 3.032 219.096 3.432 219.8C3.848 220.488 4.416 221.032 5.136 221.432C5.872 221.816 6.696 222.008 7.608 222.008ZM18.8057 224V211.4H20.4377V214.832L20.2697 214.232C20.6217 213.272 21.2137 212.544 22.0457 212.048C22.8777 211.536 23.9097 211.28 25.1417 211.28V212.936C25.0777 212.936 25.0137 212.936 24.9497 212.936C24.8857 212.92 24.8217 212.912 24.7577 212.912C23.4297 212.912 22.3897 213.32 21.6377 214.136C20.8857 214.936 20.5097 216.08 20.5097 217.568V224H18.8057ZM35.2095 224V221.216L35.1375 220.76V216.104C35.1375 215.032 34.8335 214.208 34.2255 213.632C33.6335 213.056 32.7455 212.768 31.5615 212.768C30.7455 212.768 29.9695 212.904 29.2335 213.176C28.4975 213.448 27.8735 213.808 27.3615 214.256L26.5935 212.984C27.2335 212.44 28.0015 212.024 28.8975 211.736C29.7935 211.432 30.7375 211.28 31.7295 211.28C33.3615 211.28 34.6175 211.688 35.4975 212.504C36.3935 213.304 36.8415 214.528 36.8415 216.176V224H35.2095ZM30.8655 224.12C29.9215 224.12 29.0975 223.968 28.3935 223.664C27.7055 223.344 27.1775 222.912 26.8095 222.368C26.4415 221.808 26.2575 221.168 26.2575 220.448C26.2575 219.792 26.4095 219.2 26.7135 218.672C27.0335 218.128 27.5455 217.696 28.2495 217.376C28.9695 217.04 29.9295 216.872 31.1295 216.872H35.4735V218.144H31.1775C29.9615 218.144 29.1135 218.36 28.6335 218.792C28.1695 219.224 27.9375 219.76 27.9375 220.4C27.9375 221.12 28.2175 221.696 28.7775 222.128C29.3375 222.56 30.1215 222.776 31.1295 222.776C32.0895 222.776 32.9135 222.56 33.6015 222.128C34.3055 221.68 34.8175 221.04 35.1375 220.208L35.5215 221.384C35.2015 222.216 34.6415 222.88 33.8415 223.376C33.0575 223.872 32.0655 224.12 30.8655 224.12ZM46.4858 224.12C45.2858 224.12 44.2058 223.848 43.2458 223.304C42.3018 222.76 41.5578 222.008 41.0138 221.048C40.4698 220.072 40.1978 218.952 40.1978 217.688C40.1978 216.408 40.4698 215.288 41.0138 214.328C41.5578 213.368 42.3018 212.624 43.2458 212.096C44.2058 211.552 45.2858 211.28 46.4858 211.28C47.5898 211.28 48.5738 211.528 49.4378 212.024C50.3178 212.52 51.0138 213.248 51.5258 214.208C52.0538 215.152 52.3177 216.312 52.3177 217.688C52.3177 219.048 52.0618 220.208 51.5498 221.168C51.0378 222.128 50.3418 222.864 49.4618 223.376C48.5978 223.872 47.6058 224.12 46.4858 224.12ZM46.6058 222.608C47.5018 222.608 48.3018 222.408 49.0058 222.008C49.7258 221.592 50.2858 221.016 50.6858 220.28C51.1018 219.528 51.3098 218.664 51.3098 217.688C51.3098 216.696 51.1018 215.832 50.6858 215.096C50.2858 214.36 49.7258 213.792 49.0058 213.392C48.3018 212.976 47.5018 212.768 46.6058 212.768C45.7258 212.768 44.9338 212.976 44.2298 213.392C43.5258 213.792 42.9658 214.36 42.5498 215.096C42.1338 215.832 41.9258 216.696 41.9258 217.688C41.9258 218.664 42.1338 219.528 42.5498 220.28C42.9658 221.016 43.5258 221.592 44.2298 222.008C44.9338 222.408 45.7258 222.608 46.6058 222.608ZM51.3578 224V220.208L51.5258 217.664L51.2858 215.12V206.192H52.9898V224H51.3578ZM64.0166 224V211.4H65.6486V214.832L65.4806 214.232C65.8326 213.272 66.4246 212.544 67.2566 212.048C68.0886 211.536 69.1206 211.28 70.3526 211.28V212.936C70.2886 212.936 70.2246 212.936 70.1606 212.936C70.0966 212.92 70.0326 212.912 69.9686 212.912C68.6406 212.912 67.6006 213.32 66.8486 214.136C66.0966 214.936 65.7206 216.08 65.7206 217.568V224H64.0166ZM78.4808 224.12C77.2648 224.12 76.1688 223.848 75.1928 223.304C74.2328 222.744 73.4728 221.984 72.9128 221.024C72.3528 220.048 72.0728 218.936 72.0728 217.688C72.0728 216.424 72.3528 215.312 72.9128 214.352C73.4728 213.392 74.2328 212.64 75.1928 212.096C76.1528 211.552 77.2488 211.28 78.4808 211.28C79.7288 211.28 80.8328 211.552 81.7928 212.096C82.7688 212.64 83.5288 213.392 84.0728 214.352C84.6328 215.312 84.9128 216.424 84.9128 217.688C84.9128 218.936 84.6328 220.048 84.0728 221.024C83.5288 221.984 82.7688 222.744 81.7928 223.304C80.8168 223.848 79.7128 224.12 78.4808 224.12ZM78.4808 222.608C79.3928 222.608 80.2008 222.408 80.9048 222.008C81.6088 221.592 82.1608 221.016 82.5608 220.28C82.9768 219.528 83.1848 218.664 83.1848 217.688C83.1848 216.696 82.9768 215.832 82.5608 215.096C82.1608 214.36 81.6088 213.792 80.9048 213.392C80.2008 212.976 79.4008 212.768 78.5048 212.768C77.6088 212.768 76.8088 212.976 76.1048 213.392C75.4008 213.792 74.8408 214.36 74.4248 215.096C74.0088 215.832 73.8008 216.696 73.8008 217.688C73.8008 218.664 74.0088 219.528 74.4248 220.28C74.8408 221.016 75.4008 221.592 76.1048 222.008C76.8088 222.408 77.6008 222.608 78.4808 222.608ZM88.3916 224V206.192H90.0956V224H88.3916ZM100.189 224.12C98.8769 224.12 97.7249 223.848 96.7329 223.304C95.7409 222.744 94.9649 221.984 94.4049 221.024C93.8449 220.048 93.5649 218.936 93.5649 217.688C93.5649 216.44 93.8289 215.336 94.3569 214.376C94.9009 213.416 95.6369 212.664 96.5649 212.12C97.5089 211.56 98.5649 211.28 99.7329 211.28C100.917 211.28 101.965 211.552 102.877 212.096C103.805 212.624 104.533 213.376 105.061 214.352C105.589 215.312 105.853 216.424 105.853 217.688C105.853 217.768 105.845 217.856 105.829 217.952C105.829 218.032 105.829 218.12 105.829 218.216H94.8609V216.944H104.917L104.245 217.448C104.245 216.536 104.045 215.728 103.645 215.024C103.261 214.304 102.733 213.744 102.061 213.344C101.389 212.944 100.613 212.744 99.7329 212.744C98.8689 212.744 98.0929 212.944 97.4049 213.344C96.7169 213.744 96.1809 214.304 95.7969 215.024C95.4129 215.744 95.2209 216.568 95.2209 217.496V217.76C95.2209 218.72 95.4289 219.568 95.8449 220.304C96.2769 221.024 96.8689 221.592 97.6209 222.008C98.3889 222.408 99.2609 222.608 100.237 222.608C101.005 222.608 101.717 222.472 102.373 222.2C103.045 221.928 103.621 221.512 104.101 220.952L105.061 222.056C104.501 222.728 103.797 223.24 102.949 223.592C102.117 223.944 101.197 224.12 100.189 224.12ZM112.705 224.12C111.665 224.12 110.681 223.976 109.753 223.688C108.825 223.384 108.097 223.008 107.569 222.56L108.337 221.216C108.849 221.6 109.505 221.936 110.305 222.224C111.105 222.496 111.945 222.632 112.825 222.632C114.025 222.632 114.889 222.448 115.417 222.08C115.945 221.696 116.209 221.192 116.209 220.568C116.209 220.104 116.057 219.744 115.753 219.488C115.465 219.216 115.081 219.016 114.601 218.888C114.121 218.744 113.585 218.624 112.993 218.528C112.401 218.432 111.809 218.32 111.217 218.192C110.641 218.064 110.113 217.88 109.633 217.64C109.153 217.384 108.761 217.04 108.457 216.608C108.169 216.176 108.025 215.6 108.025 214.88C108.025 214.192 108.217 213.576 108.601 213.032C108.985 212.488 109.545 212.064 110.281 211.76C111.033 211.44 111.945 211.28 113.017 211.28C113.833 211.28 114.649 211.392 115.465 211.616C116.281 211.824 116.953 212.104 117.481 212.456L116.737 213.824C116.177 213.44 115.577 213.168 114.937 213.008C114.297 212.832 113.657 212.744 113.017 212.744C111.881 212.744 111.041 212.944 110.497 213.344C109.969 213.728 109.705 214.224 109.705 214.832C109.705 215.312 109.849 215.688 110.137 215.96C110.441 216.232 110.833 216.448 111.313 216.608C111.809 216.752 112.345 216.872 112.921 216.968C113.513 217.064 114.097 217.184 114.673 217.328C115.265 217.456 115.801 217.64 116.281 217.88C116.777 218.104 117.169 218.432 117.457 218.864C117.761 219.28 117.913 219.832 117.913 220.52C117.913 221.256 117.705 221.896 117.289 222.44C116.889 222.968 116.297 223.384 115.513 223.688C114.745 223.976 113.809 224.12 112.705 224.12ZM127.321 224V211.4H129.025V224H127.321ZM128.185 208.616C127.833 208.616 127.537 208.496 127.297 208.256C127.057 208.016 126.937 207.728 126.937 207.392C126.937 207.056 127.057 206.776 127.297 206.552C127.537 206.312 127.833 206.192 128.185 206.192C128.537 206.192 128.833 206.304 129.073 206.528C129.313 206.752 129.433 207.032 129.433 207.368C129.433 207.72 129.313 208.016 129.073 208.256C128.849 208.496 128.553 208.616 128.185 208.616ZM140.199 211.28C141.223 211.28 142.119 211.48 142.887 211.88C143.671 212.264 144.279 212.856 144.711 213.656C145.159 214.456 145.383 215.464 145.383 216.68V224H143.679V216.848C143.679 215.52 143.343 214.52 142.671 213.848C142.015 213.16 141.087 212.816 139.887 212.816C138.991 212.816 138.207 213 137.535 213.368C136.879 213.72 136.367 214.24 135.999 214.928C135.647 215.6 135.471 216.416 135.471 217.376V224H133.767V211.4H135.399V214.856L135.135 214.208C135.535 213.296 136.175 212.584 137.055 212.072C137.935 211.544 138.983 211.28 140.199 211.28ZM160.251 224.12C159.067 224.12 158.155 223.8 157.515 223.16C156.875 222.52 156.555 221.616 156.555 220.448V208.616H158.259V220.352C158.259 221.088 158.443 221.656 158.811 222.056C159.195 222.456 159.739 222.656 160.443 222.656C161.195 222.656 161.819 222.44 162.315 222.008L162.915 223.232C162.579 223.536 162.171 223.76 161.691 223.904C161.227 224.048 160.747 224.12 160.251 224.12ZM154.299 212.816V211.4H162.099V212.816H154.299ZM172.449 211.28C173.473 211.28 174.369 211.48 175.137 211.88C175.921 212.264 176.529 212.856 176.961 213.656C177.409 214.456 177.633 215.464 177.633 216.68V224H175.929V216.848C175.929 215.52 175.593 214.52 174.921 213.848C174.265 213.16 173.337 212.816 172.137 212.816C171.241 212.816 170.457 213 169.785 213.368C169.129 213.72 168.617 214.24 168.249 214.928C167.897 215.6 167.721 216.416 167.721 217.376V224H166.017V206.192H167.721V214.856L167.385 214.208C167.785 213.296 168.425 212.584 169.305 212.072C170.185 211.544 171.233 211.28 172.449 211.28ZM187.587 224.12C186.275 224.12 185.123 223.848 184.131 223.304C183.139 222.744 182.363 221.984 181.803 221.024C181.243 220.048 180.963 218.936 180.963 217.688C180.963 216.44 181.227 215.336 181.755 214.376C182.299 213.416 183.035 212.664 183.963 212.12C184.907 211.56 185.963 211.28 187.131 211.28C188.315 211.28 189.363 211.552 190.275 212.096C191.203 212.624 191.931 213.376 192.459 214.352C192.987 215.312 193.251 216.424 193.251 217.688C193.251 217.768 193.243 217.856 193.227 217.952C193.227 218.032 193.227 218.12 193.227 218.216H182.259V216.944H192.315L191.643 217.448C191.643 216.536 191.443 215.728 191.043 215.024C190.659 214.304 190.131 213.744 189.459 213.344C188.787 212.944 188.011 212.744 187.131 212.744C186.267 212.744 185.491 212.944 184.803 213.344C184.115 213.744 183.579 214.304 183.195 215.024C182.811 215.744 182.619 216.568 182.619 217.496V217.76C182.619 218.72 182.827 219.568 183.243 220.304C183.675 221.024 184.267 221.592 185.019 222.008C185.787 222.408 186.659 222.608 187.635 222.608C188.403 222.608 189.115 222.472 189.771 222.2C190.443 221.928 191.019 221.512 191.499 220.952L192.459 222.056C191.899 222.728 191.195 223.24 190.347 223.592C189.515 223.944 188.595 224.12 187.587 224.12ZM210.129 224.144C207.985 224.144 206.297 223.528 205.065 222.296C203.833 221.064 203.217 219.24 203.217 216.824V207.2H204.993V216.752C204.993 218.736 205.441 220.2 206.337 221.144C207.233 222.088 208.497 222.56 210.129 222.56C211.777 222.56 213.049 222.088 213.945 221.144C214.841 220.2 215.289 218.736 215.289 216.752V207.2H217.017V216.824C217.017 219.24 216.401 221.064 215.169 222.296C213.953 223.528 212.273 224.144 210.129 224.144ZM227.001 224.144C225.753 224.144 224.553 223.944 223.401 223.544C222.265 223.128 221.385 222.6 220.761 221.96L221.457 220.592C222.049 221.168 222.841 221.656 223.833 222.056C224.841 222.44 225.897 222.632 227.001 222.632C228.057 222.632 228.913 222.504 229.569 222.248C230.241 221.976 230.729 221.616 231.033 221.168C231.353 220.72 231.513 220.224 231.513 219.68C231.513 219.024 231.321 218.496 230.937 218.096C230.569 217.696 230.081 217.384 229.473 217.16C228.865 216.92 228.193 216.712 227.457 216.536C226.721 216.36 225.985 216.176 225.249 215.984C224.513 215.776 223.833 215.504 223.209 215.168C222.601 214.832 222.105 214.392 221.721 213.848C221.353 213.288 221.169 212.56 221.169 211.664C221.169 210.832 221.385 210.072 221.817 209.384C222.265 208.68 222.945 208.12 223.857 207.704C224.769 207.272 225.937 207.056 227.361 207.056C228.305 207.056 229.241 207.192 230.169 207.464C231.097 207.72 231.897 208.08 232.569 208.544L231.969 209.96C231.249 209.48 230.481 209.128 229.665 208.904C228.865 208.68 228.089 208.568 227.337 208.568C226.329 208.568 225.497 208.704 224.841 208.976C224.185 209.248 223.697 209.616 223.377 210.08C223.073 210.528 222.921 211.04 222.921 211.616C222.921 212.272 223.105 212.8 223.473 213.2C223.857 213.6 224.353 213.912 224.961 214.136C225.585 214.36 226.265 214.56 227.001 214.736C227.737 214.912 228.465 215.104 229.185 215.312C229.921 215.52 230.593 215.792 231.201 216.128C231.825 216.448 232.321 216.88 232.689 217.424C233.073 217.968 233.265 218.68 233.265 219.56C233.265 220.376 233.041 221.136 232.593 221.84C232.145 222.528 231.457 223.088 230.529 223.52C229.617 223.936 228.441 224.144 227.001 224.144ZM247.496 224.144C246.408 224.144 245.44 223.968 244.592 223.616C243.744 223.248 243.072 222.744 242.576 222.104C242.096 221.464 241.856 220.72 241.856 219.872C241.856 219.152 242.016 218.496 242.336 217.904C242.656 217.296 243.168 216.704 243.872 216.128C244.592 215.536 245.544 214.92 246.728 214.28C247.736 213.72 248.52 213.24 249.08 212.84C249.656 212.424 250.064 212.032 250.304 211.664C250.544 211.28 250.664 210.872 250.664 210.44C250.664 209.816 250.448 209.312 250.016 208.928C249.6 208.544 249 208.352 248.216 208.352C247.368 208.352 246.712 208.568 246.248 209C245.784 209.416 245.552 209.96 245.552 210.632C245.552 210.968 245.6 211.288 245.696 211.592C245.808 211.896 246.008 212.232 246.296 212.6C246.6 212.968 247.016 213.432 247.544 213.992L256.424 223.136L255.44 224.264L246.176 214.736C245.616 214.144 245.168 213.632 244.832 213.2C244.512 212.752 244.288 212.328 244.16 211.928C244.032 211.528 243.968 211.104 243.968 210.656C243.968 209.936 244.136 209.312 244.472 208.784C244.824 208.24 245.32 207.824 245.96 207.536C246.6 207.232 247.352 207.08 248.216 207.08C249 207.08 249.68 207.216 250.256 207.488C250.848 207.744 251.304 208.12 251.624 208.616C251.96 209.112 252.128 209.712 252.128 210.416C252.128 211.024 251.976 211.592 251.672 212.12C251.384 212.648 250.904 213.168 250.232 213.68C249.56 214.176 248.648 214.736 247.496 215.36C246.488 215.92 245.688 216.432 245.096 216.896C244.52 217.36 244.112 217.816 243.872 218.264C243.632 218.696 243.512 219.176 243.512 219.704C243.512 220.312 243.68 220.848 244.016 221.312C244.368 221.76 244.848 222.112 245.456 222.368C246.08 222.608 246.792 222.728 247.592 222.728C248.712 222.728 249.712 222.496 250.592 222.032C251.472 221.568 252.208 220.864 252.8 219.92C253.408 218.976 253.848 217.792 254.12 216.368L255.488 216.8C255.184 218.4 254.664 219.744 253.928 220.832C253.192 221.92 252.28 222.744 251.192 223.304C250.104 223.864 248.872 224.144 247.496 224.144ZM273.048 224.144C271.784 224.144 270.616 223.936 269.544 223.52C268.472 223.088 267.544 222.488 266.76 221.72C265.976 220.952 265.36 220.048 264.912 219.008C264.48 217.968 264.264 216.832 264.264 215.6C264.264 214.368 264.48 213.232 264.912 212.192C265.36 211.152 265.976 210.248 266.76 209.48C267.56 208.712 268.496 208.12 269.568 207.704C270.64 207.272 271.808 207.056 273.072 207.056C274.288 207.056 275.432 207.264 276.504 207.68C277.576 208.08 278.48 208.688 279.216 209.504L278.088 210.632C277.4 209.928 276.64 209.424 275.808 209.12C274.976 208.8 274.08 208.64 273.12 208.64C272.112 208.64 271.176 208.816 270.312 209.168C269.448 209.504 268.696 209.992 268.056 210.632C267.416 211.256 266.912 211.992 266.544 212.84C266.192 213.672 266.016 214.592 266.016 215.6C266.016 216.608 266.192 217.536 266.544 218.384C266.912 219.216 267.416 219.952 268.056 220.592C268.696 221.216 269.448 221.704 270.312 222.056C271.176 222.392 272.112 222.56 273.12 222.56C274.08 222.56 274.976 222.4 275.808 222.08C276.64 221.76 277.4 221.248 278.088 220.544L279.216 221.672C278.48 222.488 277.576 223.104 276.504 223.52C275.432 223.936 274.28 224.144 273.048 224.144ZM290.35 224V221.216L290.278 220.76V216.104C290.278 215.032 289.974 214.208 289.366 213.632C288.774 213.056 287.886 212.768 286.702 212.768C285.886 212.768 285.11 212.904 284.374 213.176C283.638 213.448 283.014 213.808 282.502 214.256L281.734 212.984C282.374 212.44 283.142 212.024 284.038 211.736C284.934 211.432 285.878 211.28 286.87 211.28C288.502 211.28 289.758 211.688 290.638 212.504C291.534 213.304 291.982 214.528 291.982 216.176V224H290.35ZM286.006 224.12C285.062 224.12 284.238 223.968 283.534 223.664C282.846 223.344 282.318 222.912 281.95 222.368C281.582 221.808 281.398 221.168 281.398 220.448C281.398 219.792 281.55 219.2 281.854 218.672C282.174 218.128 282.686 217.696 283.39 217.376C284.11 217.04 285.07 216.872 286.27 216.872H290.614V218.144H286.318C285.102 218.144 284.254 218.36 283.774 218.792C283.31 219.224 283.078 219.76 283.078 220.4C283.078 221.12 283.358 221.696 283.918 222.128C284.478 222.56 285.262 222.776 286.27 222.776C287.23 222.776 288.054 222.56 288.742 222.128C289.446 221.68 289.958 221.04 290.278 220.208L290.662 221.384C290.342 222.216 289.782 222.88 288.982 223.376C288.198 223.872 287.206 224.12 286.006 224.12ZM303.042 211.28C304.066 211.28 304.962 211.48 305.73 211.88C306.514 212.264 307.122 212.856 307.554 213.656C308.002 214.456 308.226 215.464 308.226 216.68V224H306.522V216.848C306.522 215.52 306.186 214.52 305.514 213.848C304.858 213.16 303.93 212.816 302.73 212.816C301.834 212.816 301.05 213 300.378 213.368C299.722 213.72 299.21 214.24 298.842 214.928C298.49 215.6 298.314 216.416 298.314 217.376V224H296.61V211.4H298.242V214.856L297.978 214.208C298.378 213.296 299.018 212.584 299.898 212.072C300.778 211.544 301.826 211.28 303.042 211.28ZM320.725 224V221.216L320.653 220.76V216.104C320.653 215.032 320.349 214.208 319.741 213.632C319.149 213.056 318.261 212.768 317.077 212.768C316.261 212.768 315.485 212.904 314.749 213.176C314.013 213.448 313.389 213.808 312.877 214.256L312.109 212.984C312.749 212.44 313.517 212.024 314.413 211.736C315.309 211.432 316.253 211.28 317.245 211.28C318.877 211.28 320.133 211.688 321.013 212.504C321.909 213.304 322.357 214.528 322.357 216.176V224H320.725ZM316.381 224.12C315.437 224.12 314.613 223.968 313.909 223.664C313.221 223.344 312.693 222.912 312.325 222.368C311.957 221.808 311.773 221.168 311.773 220.448C311.773 219.792 311.925 219.2 312.229 218.672C312.549 218.128 313.061 217.696 313.765 217.376C314.485 217.04 315.445 216.872 316.645 216.872H320.989V218.144H316.693C315.477 218.144 314.629 218.36 314.149 218.792C313.685 219.224 313.453 219.76 313.453 220.4C313.453 221.12 313.733 221.696 314.293 222.128C314.853 222.56 315.637 222.776 316.645 222.776C317.605 222.776 318.429 222.56 319.117 222.128C319.821 221.68 320.333 221.04 320.653 220.208L321.037 221.384C320.717 222.216 320.157 222.88 319.357 223.376C318.573 223.872 317.581 224.12 316.381 224.12ZM332.001 224.12C330.801 224.12 329.721 223.848 328.761 223.304C327.817 222.76 327.073 222.008 326.529 221.048C325.985 220.072 325.713 218.952 325.713 217.688C325.713 216.408 325.985 215.288 326.529 214.328C327.073 213.368 327.817 212.624 328.761 212.096C329.721 211.552 330.801 211.28 332.001 211.28C333.105 211.28 334.089 211.528 334.953 212.024C335.833 212.52 336.529 213.248 337.041 214.208C337.569 215.152 337.833 216.312 337.833 217.688C337.833 219.048 337.577 220.208 337.065 221.168C336.553 222.128 335.857 222.864 334.977 223.376C334.113 223.872 333.121 224.12 332.001 224.12ZM332.121 222.608C333.017 222.608 333.817 222.408 334.521 222.008C335.241 221.592 335.801 221.016 336.201 220.28C336.617 219.528 336.825 218.664 336.825 217.688C336.825 216.696 336.617 215.832 336.201 215.096C335.801 214.36 335.241 213.792 334.521 213.392C333.817 212.976 333.017 212.768 332.121 212.768C331.241 212.768 330.449 212.976 329.745 213.392C329.041 213.792 328.481 214.36 328.065 215.096C327.649 215.832 327.441 216.696 327.441 217.688C327.441 218.664 327.649 219.528 328.065 220.28C328.481 221.016 329.041 221.592 329.745 222.008C330.449 222.408 331.241 222.608 332.121 222.608ZM336.873 224V220.208L337.041 217.664L336.801 215.12V206.192H338.505V224H336.873ZM351.147 224V221.216L351.075 220.76V216.104C351.075 215.032 350.771 214.208 350.163 213.632C349.571 213.056 348.683 212.768 347.499 212.768C346.683 212.768 345.907 212.904 345.171 213.176C344.435 213.448 343.811 213.808 343.299 214.256L342.531 212.984C343.171 212.44 343.939 212.024 344.835 211.736C345.731 211.432 346.675 211.28 347.667 211.28C349.299 211.28 350.555 211.688 351.435 212.504C352.331 213.304 352.779 214.528 352.779 216.176V224H351.147ZM346.803 224.12C345.859 224.12 345.035 223.968 344.331 223.664C343.643 223.344 343.115 222.912 342.747 222.368C342.379 221.808 342.195 221.168 342.195 220.448C342.195 219.792 342.347 219.2 342.651 218.672C342.971 218.128 343.483 217.696 344.187 217.376C344.907 217.04 345.867 216.872 347.067 216.872H351.411V218.144H347.115C345.899 218.144 345.051 218.36 344.571 218.792C344.107 219.224 343.875 219.76 343.875 220.4C343.875 221.12 344.155 221.696 344.715 222.128C345.275 222.56 346.059 222.776 347.067 222.776C348.027 222.776 348.851 222.56 349.539 222.128C350.243 221.68 350.755 221.04 351.075 220.208L351.459 221.384C351.139 222.216 350.579 222.88 349.779 223.376C348.995 223.872 348.003 224.12 346.803 224.12Z" fill="#FFEEED"/>
</svg>
