<svg width="91" height="34" viewBox="0 0 91 34" fill="none" xmlns="http://www.w3.org/2000/svg">
<path d="M1.64387 3.51401C1.10184 3.61998 0.748352 4.14528 0.85432 4.6873C0.960289 5.22933 1.48559 5.58282 2.02761 5.47685L1.64387 3.51401ZM42.339 9.76742L41.7807 10.5971L41.7807 10.5971L42.339 9.76742ZM47.5616 24.8131L48.3608 25.4142L47.5616 24.8131ZM87.4448 33.3399C87.9889 33.4345 88.5067 33.0701 88.6013 32.526L90.143 23.659C90.2376 23.1149 89.8732 22.5971 89.329 22.5025C88.7849 22.4079 88.2671 22.7723 88.1725 23.3164L86.8021 31.1982L78.9204 29.8278C78.3763 29.7332 77.8585 30.0976 77.7639 30.6417C77.6693 31.1859 78.0337 31.7036 78.5778 31.7983L87.4448 33.3399ZM2.02761 5.47685C5.6317 4.77223 10.6579 2.88479 17.4009 2.74206C24.0511 2.6013 32.2686 4.196 41.7807 10.5971L42.8973 8.93778C33.0353 2.30124 24.4113 0.593227 17.3586 0.742511C10.3986 0.889832 4.8602 2.8852 1.64387 3.51401L2.02761 5.47685ZM41.7807 10.5971C42.4513 11.0483 43.278 11.9187 44.1079 13.0953C44.927 14.2567 45.7052 15.6538 46.3014 17.0955C46.8997 18.5425 47.2977 19.9937 47.3909 21.2692C47.485 22.5563 47.2622 23.5476 46.7625 24.2119L48.3608 25.4142C49.2646 24.2127 49.4983 22.6644 49.3856 21.1234C49.2721 19.5708 48.8003 17.9051 48.1496 16.3313C47.4967 14.7523 46.6467 13.2249 45.7423 11.9426C44.8487 10.6756 43.8567 9.58337 42.8973 8.93778L41.7807 10.5971ZM46.7625 24.2119C44.9602 26.6079 42.6627 27.4653 40.8007 27.1725C38.977 26.8856 37.3004 25.4536 36.7545 22.6613L34.7916 23.0451C35.4741 26.5357 37.7149 28.7117 40.49 29.1482C43.2267 29.5786 46.2093 28.2744 48.3608 25.4142L46.7625 24.2119ZM36.7545 22.6613C36.2146 19.8997 36.8874 17.8524 38.2533 16.353C39.6563 14.8128 41.8842 13.7514 44.6009 13.2203L44.2172 11.2574C41.2519 11.8371 38.5667 13.0389 36.7747 15.0062C34.9456 17.0142 34.1413 19.7187 34.7916 23.0451L36.7545 22.6613ZM44.6009 13.2203C59.8239 10.2441 68.6876 12.9521 74.5361 17.3645C77.4858 19.5899 79.7215 22.2876 81.6358 25.0329C82.5939 26.4068 83.4656 27.7837 84.3099 29.1209C85.1496 30.4506 85.9672 31.7493 86.7983 32.9302L88.4338 31.7792C87.6373 30.6474 86.848 29.3945 86.001 28.0531C85.1588 26.7193 84.2643 25.3056 83.2764 23.8889C81.2987 21.0529 78.9233 18.1691 75.7407 15.768C69.3248 10.9275 59.8402 8.20302 44.2172 11.2574L44.6009 13.2203Z" fill="white"/>
</svg>
