<svg width="323" height="521" viewBox="0 0 323 521" fill="none" xmlns="http://www.w3.org/2000/svg">
<g opacity="0.5">
<path d="M25.656 241.44L25.2033 242.332L25.2143 242.337L25.656 241.44ZM12.472 229.792L11.6355 230.34L12.472 229.792ZM12.472 194.592L11.6421 194.034L11.6355 194.044L12.472 194.592ZM25.912 183.2L26.3372 184.105L26.3483 184.1L25.912 183.2ZM64.568 183.456L64.0687 184.322L64.075 184.326L64.568 183.456ZM75.832 195.36L74.9285 195.789L74.9346 195.801L75.832 195.36ZM77.368 224.16L76.43 223.813L76.4267 223.822L76.4235 223.831L77.368 224.16ZM70.968 234.912L70.2228 234.245L70.2178 234.251L70.213 234.256L70.968 234.912ZM60.088 242.72L60.4776 243.641L60.4851 243.638L60.4925 243.635L60.088 242.72ZM64.952 229.024L65.3097 229.958L64.952 229.024ZM74.296 222.496L73.522 221.863L73.5162 221.87L73.5105 221.877L74.296 222.496ZM74.296 201.76L73.5105 202.379L73.5162 202.386L73.522 202.393L74.296 201.76ZM64.952 195.488L64.6119 196.428L64.6208 196.432L64.6297 196.435L64.952 195.488ZM33.72 198.432L34.3602 199.2L33.72 198.432ZM30.392 222.368L29.56 222.923L29.5657 222.931L29.5716 222.94L30.392 222.368ZM38.584 229.024L38.1635 229.931L38.1767 229.937L38.1901 229.943L38.584 229.024ZM77.752 180.512V179.512H76.752V180.512H77.752ZM97.208 180.512H98.208V179.512H97.208V180.512ZM97.208 244V245H98.208V244H97.208ZM79.032 244L78.0431 244.148L78.1708 245H79.032V244ZM78.008 234.656L79.0062 234.596L78.008 234.656ZM44.344 244.536C37.5669 244.536 31.4915 243.198 26.0977 240.543L25.2143 242.337C30.9139 245.143 37.2971 246.536 44.344 246.536V244.536ZM26.1087 240.548C20.7095 237.807 16.4504 234.04 13.3085 229.244L11.6355 230.34C14.9789 235.443 19.5092 239.441 25.2033 242.332L26.1087 240.548ZM13.3085 229.244C10.1855 224.477 8.608 218.87 8.608 212.384H6.608C6.608 219.21 8.27319 225.208 11.6355 230.34L13.3085 229.244ZM8.608 212.384C8.608 205.633 10.1895 199.901 13.3085 195.14L11.6355 194.044C8.26921 199.182 6.608 205.311 6.608 212.384H8.608ZM13.3018 195.15C16.5244 190.358 20.8616 186.677 26.3371 184.105L25.4869 182.295C19.6984 185.014 15.0756 188.928 11.6422 194.034L13.3018 195.15ZM26.3483 184.1C31.8258 181.444 38.0731 180.104 45.112 180.104V178.104C37.8149 178.104 31.2622 179.495 25.4757 182.3L26.3483 184.1ZM45.112 180.104C52.9342 180.104 59.2315 181.535 64.0687 184.322L65.0673 182.59C59.8352 179.574 53.1618 178.104 45.112 178.104V180.104ZM64.075 184.326C69.0267 187.132 72.6325 190.951 74.9286 195.789L76.7354 194.931C74.2528 189.7 70.3493 185.583 65.061 182.586L64.075 184.326ZM74.9346 195.801C77.3337 200.682 78.544 206.203 78.544 212.384H80.544C80.544 205.936 79.2796 200.107 76.7294 194.919L74.9346 195.801ZM78.544 212.384C78.544 216.183 77.8424 219.992 76.43 223.813L78.306 224.507C79.7949 220.478 80.544 216.435 80.544 212.384H78.544ZM76.4235 223.831C75.1036 227.626 73.0402 231.096 70.2228 234.245L71.7132 235.579C74.6985 232.242 76.9017 228.545 78.3125 224.489L76.4235 223.831ZM70.213 234.256C67.5052 237.374 64.0039 239.895 59.6835 241.805L60.4925 243.635C65.0468 241.62 68.7988 238.935 71.723 235.568L70.213 234.256ZM59.6984 241.799C55.4116 243.613 50.3021 244.536 44.344 244.536V246.536C50.5033 246.536 55.8897 245.582 60.4776 243.641L59.6984 241.799ZM51 232.328C56.3855 232.328 61.1617 231.546 65.3097 229.958L64.5944 228.09C60.7209 229.574 56.1958 230.328 51 230.328V232.328ZM65.3097 229.958C69.4552 228.37 72.7309 226.098 75.0815 223.115L73.5105 221.877C71.4237 224.526 68.4701 226.606 64.5944 228.09L65.3097 229.958ZM75.07 223.129C77.5321 220.12 78.752 216.521 78.752 212.384H76.752C76.752 216.098 75.668 219.24 73.522 221.863L75.07 223.129ZM78.752 212.384C78.752 207.928 77.5446 204.151 75.07 201.127L73.522 202.393C75.6555 205.001 76.752 208.306 76.752 212.384H78.752ZM75.0815 201.141C72.723 198.148 69.434 195.957 65.2743 194.541L64.6297 196.435C68.4914 197.749 71.4317 199.74 73.5105 202.379L75.0815 201.141ZM65.2921 194.548C61.1497 193.049 56.3798 192.312 51 192.312V194.312C56.2015 194.312 60.7329 195.025 64.6119 196.428L65.2921 194.548ZM51 192.312C43.433 192.312 37.4148 194.051 33.0798 197.664L34.3602 199.2C38.2172 195.986 43.719 194.312 51 194.312V192.312ZM33.0798 197.664C28.7302 201.288 26.576 206.234 26.576 212.384H28.576C28.576 206.758 30.5178 202.402 34.3602 199.2L33.0798 197.664ZM26.576 212.384C26.576 216.394 27.5588 219.921 29.56 222.923L31.2241 221.813C29.4705 219.183 28.576 216.054 28.576 212.384H26.576ZM29.5716 222.94C31.6476 225.918 34.5245 228.245 38.1635 229.931L39.0045 228.117C35.6462 226.56 33.0618 224.45 31.2124 221.796L29.5716 222.94ZM38.1901 229.943C41.9212 231.542 46.1982 232.328 51 232.328V230.328C46.4151 230.328 42.4148 229.578 38.9779 228.105L38.1901 229.943ZM77.752 181.512H97.208V179.512H77.752V181.512ZM96.208 180.512V244H98.208V180.512H96.208ZM97.208 243H79.032V245H97.208V243ZM79.032 244C80.0209 243.852 80.0209 243.852 80.0209 243.852C80.0209 243.852 80.0209 243.852 80.0209 243.852C80.0209 243.852 80.0209 243.852 80.0209 243.852C80.0209 243.852 80.0209 243.852 80.0209 243.852C80.0209 243.851 80.0209 243.851 80.0209 243.851C80.0209 243.851 80.0209 243.851 80.0209 243.851C80.0209 243.851 80.0209 243.851 80.0209 243.851C80.0208 243.851 80.0208 243.851 80.0208 243.851C80.0207 243.85 80.0208 243.851 80.0207 243.85C80.0207 243.85 80.0207 243.85 80.0207 243.85C80.0207 243.85 80.0207 243.85 80.0207 243.85C80.0206 243.85 80.0206 243.849 80.0206 243.849C80.0205 243.849 80.0204 243.848 80.0204 243.848C80.0203 243.848 80.0201 243.846 80.0201 243.846C80.0201 243.846 80.0201 243.846 80.02 243.846C80.02 243.845 80.02 243.845 80.02 243.845C80.0199 243.845 80.0199 243.845 80.0199 243.845C80.0198 243.844 80.0198 243.844 80.0198 243.844C80.0198 243.844 80.0197 243.844 80.0197 243.843C80.0197 243.843 80.0197 243.843 80.0196 243.843C80.0196 243.843 80.0194 243.842 80.0194 243.842C80.0194 243.842 80.0159 243.818 80.0149 243.812C80.0141 243.806 80.0127 243.797 80.0116 243.789C80.0094 243.774 80.0099 243.778 80.0074 243.762C80.006 243.752 80.0078 243.764 80.0063 243.754C80.0061 243.753 80.0053 243.747 80.0051 243.746C80.0049 243.745 80.0028 243.731 80.0026 243.729C80.0015 243.722 80.0009 243.718 79.9998 243.711C79.9991 243.706 79.9992 243.707 79.9984 243.701C79.9983 243.701 79.9982 243.7 79.9981 243.699C79.9979 243.698 79.9978 243.697 79.9977 243.697C79.9976 243.696 79.9974 243.695 79.9973 243.694C79.9972 243.693 79.9971 243.692 79.9969 243.692C79.9883 243.634 79.9796 243.576 79.9669 243.492C79.9526 243.396 79.9432 243.334 79.9249 243.212C79.8842 242.94 79.8617 242.79 79.8049 242.412C79.7982 242.366 79.7752 242.214 79.7674 242.162C79.7504 242.048 79.7649 242.145 79.7476 242.029C79.747 242.025 79.7456 242.016 79.745 242.012C79.745 242.012 79.7426 241.996 79.7425 241.995C79.7406 241.983 79.7392 241.973 79.7373 241.961C79.7371 241.959 79.7272 241.894 79.7269 241.892C79.6969 241.692 79.6709 241.518 79.6369 241.292L77.6591 241.588C77.6709 241.667 77.6592 241.589 77.671 241.668C77.6741 241.689 77.6737 241.686 77.6769 241.707C77.6773 241.71 77.6778 241.713 77.6783 241.717C77.6788 241.72 77.6793 241.723 77.6798 241.726C77.6803 241.73 77.6807 241.733 77.6812 241.736C77.6817 241.739 77.6822 241.743 77.6827 241.746C77.6957 241.832 77.6928 241.814 77.7056 241.898C77.7209 242.001 77.7014 241.871 77.7167 241.973C77.7172 241.976 77.7176 241.979 77.7181 241.982C77.7186 241.985 77.719 241.988 77.7195 241.991C77.7199 241.994 77.7204 241.997 77.7209 242C77.7213 242.003 77.7218 242.006 77.7222 242.009C77.7227 242.012 77.7231 242.016 77.7236 242.019C77.7241 242.022 77.7245 242.025 77.725 242.028C77.7254 242.031 77.7259 242.034 77.7263 242.037C77.7268 242.04 77.7272 242.043 77.7277 242.046C77.7425 242.144 77.7238 242.02 77.7385 242.118C77.751 242.201 77.7366 242.105 77.7491 242.188C77.7647 242.293 77.7543 242.223 77.7697 242.326C77.7794 242.391 77.7701 242.328 77.7797 242.393C77.7835 242.418 77.781 242.401 77.7847 242.426C77.7851 242.428 77.7855 242.431 77.7859 242.434C77.7863 242.437 77.7867 242.439 77.7871 242.442C77.7875 242.445 77.7879 242.447 77.7883 242.45C77.7888 242.453 77.7892 242.456 77.7896 242.458C77.7908 242.466 77.7908 242.467 77.792 242.475C77.7924 242.477 77.7928 242.48 77.7932 242.483C77.7936 242.485 77.794 242.488 77.7944 242.491C77.7948 242.493 77.7952 242.496 77.7956 242.499C77.796 242.501 77.7964 242.504 77.7968 242.507C77.7986 242.519 77.7974 242.511 77.7992 242.523C77.806 242.568 77.802 242.541 77.8087 242.586C77.8091 242.588 77.8095 242.591 77.8099 242.594C77.8102 242.596 77.8106 242.599 77.811 242.601C77.8141 242.622 77.8103 242.597 77.8134 242.617C77.8137 242.62 77.8141 242.622 77.8145 242.625C77.8149 242.627 77.8153 242.63 77.8157 242.632C77.8161 242.635 77.8164 242.637 77.8168 242.64C77.8172 242.643 77.8176 242.645 77.818 242.648C77.8185 242.651 77.8197 242.659 77.8203 242.663C77.8206 242.666 77.821 242.668 77.8214 242.671C77.8218 242.673 77.8222 242.676 77.8225 242.678C77.8238 242.687 77.8258 242.7 77.8271 242.708C77.829 242.721 77.8607 242.932 77.8616 242.938C77.8669 242.974 77.8604 242.931 77.8657 242.966C77.8679 242.981 77.8654 242.964 77.8677 242.979C77.868 242.981 77.8684 242.984 77.8687 242.986C77.869 242.988 77.8694 242.99 77.8697 242.993C77.8701 242.995 77.8704 242.997 77.8707 242.999C77.8711 243.002 77.8714 243.004 77.8717 243.006C77.8732 243.016 77.8723 243.01 77.8737 243.019C77.875 243.028 77.8764 243.037 77.8777 243.046C77.8854 243.097 77.8778 243.047 77.8855 243.098C77.8883 243.116 77.8865 243.105 77.8893 243.123C77.8956 243.166 77.8867 243.106 77.8931 243.148C77.8974 243.177 77.9182 243.316 77.9216 243.338C77.922 243.341 77.9278 243.38 77.9282 243.383C77.9285 243.385 77.9288 243.386 77.929 243.388C77.9293 243.39 77.9296 243.392 77.9299 243.394C77.9322 243.409 77.9291 243.389 77.9315 243.404C77.9348 243.426 77.9314 243.404 77.9347 243.426C77.9358 243.433 77.9352 243.429 77.9363 243.436C77.9388 243.453 77.9353 243.43 77.9379 243.447C77.9381 243.449 77.9384 243.45 77.9386 243.452C77.9389 243.454 77.9392 243.456 77.9394 243.457C77.9415 243.471 77.9389 243.454 77.941 243.468C77.9457 243.499 77.9424 243.477 77.9471 243.508C77.9591 243.588 77.9469 243.507 77.9587 243.586C77.9719 243.674 77.9566 243.572 77.9696 243.658C77.9863 243.77 77.9734 243.684 77.9891 243.788C78.0014 243.87 77.9856 243.766 77.9977 243.846C77.9991 243.855 78.0044 243.891 78.0056 243.898C78.0073 243.91 78.0183 243.983 78.0191 243.988C78.0327 244.079 78.017 243.974 78.0296 244.058C78.0379 244.114 78.0297 244.059 78.0371 244.108C78.0387 244.119 78.0383 244.117 78.0397 244.126C78.04 244.128 78.0397 244.126 78.04 244.128C78.04 244.128 78.0401 244.128 78.0401 244.129C78.0401 244.129 78.0402 244.129 78.0402 244.129C78.0403 244.13 78.0406 244.132 78.0407 244.133C78.0409 244.134 78.0415 244.138 78.0416 244.138C78.0422 244.142 78.0417 244.139 78.0422 244.143C78.0427 244.146 78.0423 244.143 78.0427 244.146C78.0428 244.146 78.0428 244.146 78.0429 244.147C78.043 244.148 78.0428 244.147 78.043 244.148C78.043 244.148 78.043 244.148 78.043 244.148C78.043 244.148 78.043 244.148 78.043 244.148C78.043 244.148 78.043 244.148 78.043 244.148C78.0431 244.148 78.0431 244.148 78.0431 244.148C78.0431 244.148 78.0431 244.148 78.0431 244.148C78.0431 244.148 78.0431 244.148 78.0431 244.148C78.0431 244.148 78.0431 244.148 79.032 244ZM79.6369 241.292C79.3872 239.626 79.176 237.398 79.0062 234.596L77.0098 234.716C77.1813 237.546 77.3968 239.84 77.6591 241.588L79.6369 241.292ZM79.0062 234.596C78.8368 231.8 78.752 228.962 78.752 226.08H76.752C76.752 229.001 76.8379 231.88 77.0098 234.716L79.0062 234.596ZM78.752 226.08V180.512H76.752V226.08H78.752ZM111.546 180.512V179.512H110.546V180.512H111.546ZM131.002 180.512H132.002V179.512H131.002V180.512ZM131.002 244V245H132.002V244H131.002ZM111.546 244H110.546V245H111.546V244ZM157.114 196.256V197.256H158.114V196.256H157.114ZM144.186 198.816L144.582 199.734L144.591 199.73L144.6 199.726L144.186 198.816ZM134.97 204.832L134.263 204.125L134.256 204.131L134.25 204.138L134.97 204.832ZM129.978 211.872L128.978 211.891L130.892 212.278L129.978 211.872ZM129.85 204.96L128.86 204.819L128.849 204.898L128.85 204.979L129.85 204.96ZM131.13 200.096L132.079 200.412L132.082 200.401L131.13 200.096ZM134.074 193.312L133.206 192.816L133.199 192.828L133.193 192.84L134.074 193.312ZM139.322 186.528L140.029 187.235L140.036 187.228L140.043 187.221L139.322 186.528ZM146.874 181.152L146.458 180.242L146.448 180.247L146.874 181.152ZM157.114 179.104H158.114V178.104H157.114V179.104ZM111.546 181.512H131.002V179.512H111.546V181.512ZM130.002 180.512V244H132.002V180.512H130.002ZM131.002 243H111.546V245H131.002V243ZM112.546 244V180.512H110.546V244H112.546ZM157.114 195.256C152.133 195.256 147.678 196.13 143.772 197.906L144.6 199.726C148.203 198.088 152.367 197.256 157.114 197.256V195.256ZM143.79 197.898C139.943 199.559 136.758 201.63 134.263 204.125L135.677 205.539C137.961 203.256 140.92 201.316 144.582 199.734L143.79 197.898ZM134.25 204.138C131.889 206.586 130.148 209.028 129.064 211.466L130.892 212.278C131.856 210.108 133.443 207.857 135.69 205.526L134.25 204.138ZM130.978 211.853L130.85 204.941L128.85 204.979L128.978 211.891L130.978 211.853ZM130.84 205.101C130.998 203.995 131.403 202.44 132.079 200.412L130.181 199.78C129.492 201.848 129.043 203.536 128.86 204.819L130.84 205.101ZM132.082 200.401C132.743 198.336 133.698 196.131 134.955 193.784L133.193 192.84C131.89 195.272 130.882 197.589 130.178 199.791L132.082 200.401ZM134.942 193.808C136.259 191.503 137.953 189.312 140.029 187.235L138.615 185.821C136.425 188.011 134.619 190.342 133.206 192.816L134.942 193.808ZM140.043 187.221C142.088 185.094 144.504 183.372 147.3 182.057L146.448 180.247C143.441 181.662 140.823 183.525 138.601 185.835L140.043 187.221ZM147.29 182.061C150.126 180.765 153.393 180.104 157.114 180.104V178.104C153.155 178.104 149.596 178.808 146.458 180.243L147.29 182.061ZM156.114 179.104V196.256H158.114V179.104H156.114ZM230.665 222.624V221.624H229.98L229.732 222.263L230.665 222.624ZM249.609 222.624L250.594 222.795L250.797 221.624H249.609V222.624ZM243.721 234.528L244.455 235.207L244.463 235.198L243.721 234.528ZM230.537 242.72L230.866 243.664L230.879 243.66L230.537 242.72ZM185.865 241.952L185.514 242.888L185.521 242.891L185.528 242.893L185.865 241.952ZM169.865 230.816L169.068 231.42L169.074 231.428L169.08 231.436L169.865 230.816ZM169.737 194.208L168.935 193.61L168.934 193.612L169.737 194.208ZM185.481 182.944L185.826 183.883L185.836 183.879L185.481 182.944ZM232.329 182.944L231.94 183.865L231.944 183.867L232.329 182.944ZM245.897 194.72L245.02 195.201L245.026 195.212L245.897 194.72ZM249.865 215.2V216.2H250.825L250.864 215.241L249.865 215.2ZM183.817 215.2V214.2H182.669L182.827 215.338L183.817 215.2ZM187.401 223.52L186.618 224.141L186.624 224.15L186.631 224.158L187.401 223.52ZM195.849 229.536L195.455 230.455L195.468 230.461L195.481 230.466L195.849 229.536ZM223.369 229.152L222.963 228.238L222.955 228.242L223.369 229.152ZM192.393 196.768L192.918 197.619L192.925 197.615L192.931 197.611L192.393 196.768ZM184.713 205.856L183.758 205.56L183.357 206.856H184.713V205.856ZM230.665 205.856V206.856H231.807L231.656 205.724L230.665 205.856ZM224.265 196.512L223.719 197.35L223.728 197.356L224.265 196.512ZM230.665 223.624H249.609V221.624H230.665V223.624ZM248.624 222.453C247.889 226.696 246.016 230.493 242.979 233.858L244.463 235.198C247.741 231.566 249.793 227.427 250.594 222.795L248.624 222.453ZM242.987 233.849C239.964 237.117 235.719 239.771 230.195 241.78L230.879 243.66C236.619 241.573 241.163 238.766 244.455 235.207L242.987 233.849ZM230.208 241.776C224.713 243.691 217.92 244.664 209.801 244.664V246.664C218.066 246.664 225.097 245.675 230.866 243.664L230.208 241.776ZM209.801 244.664C200.845 244.664 192.984 243.439 186.202 241.011L185.528 242.893C192.57 245.415 200.666 246.664 209.801 246.664V244.664ZM186.216 241.016C179.53 238.508 174.358 234.894 170.65 230.196L169.08 231.436C173.052 236.466 178.547 240.276 185.514 242.888L186.216 241.016ZM170.662 230.212C167.06 225.464 165.233 219.585 165.233 212.512H163.233C163.233 219.946 165.16 226.269 169.068 231.42L170.662 230.212ZM165.233 212.512C165.233 205.434 167.02 199.552 170.54 194.804L168.934 193.612C165.115 198.763 163.233 205.083 163.233 212.512H165.233ZM170.539 194.806C174.161 189.948 179.24 186.3 185.826 183.883L185.136 182.005C178.24 184.537 172.822 188.398 168.935 193.61L170.539 194.806ZM185.836 183.879C192.437 181.372 200.29 180.104 209.417 180.104V178.104C200.112 178.104 192.007 179.396 185.126 182.009L185.836 183.879ZM209.417 180.104C218.549 180.104 226.043 181.374 231.94 183.865L232.718 182.023C226.498 179.394 218.717 178.104 209.417 178.104V180.104ZM231.944 183.867C237.902 186.349 242.239 190.13 245.02 195.201L246.774 194.239C243.752 188.729 239.044 184.659 232.714 182.021L231.944 183.867ZM245.026 195.212C247.893 200.29 249.202 206.915 248.866 215.159L250.864 215.241C251.21 206.76 249.874 199.731 246.768 194.228L245.026 195.212ZM249.865 214.2H183.817V216.2H249.865V214.2ZM182.827 215.338C183.278 218.59 184.546 221.53 186.618 224.141L188.184 222.899C186.331 220.561 185.209 217.954 184.807 215.062L182.827 215.338ZM186.631 224.158C188.799 226.778 191.756 228.87 195.455 230.455L196.243 228.617C192.774 227.13 190.099 225.211 188.171 222.882L186.631 224.158ZM195.481 230.466C199.299 231.975 203.868 232.712 209.161 232.712V230.712C204.044 230.712 199.738 229.998 196.217 228.606L195.481 230.466ZM209.161 232.712C214.969 232.712 219.858 231.846 223.783 230.062L222.955 228.242C219.37 229.871 214.787 230.712 209.161 230.712V232.712ZM223.775 230.066C227.741 228.303 230.441 225.974 231.598 222.985L229.732 222.263C228.841 224.565 226.677 226.588 222.963 228.238L223.775 230.066ZM208.521 191.928C201.665 191.928 196.08 193.228 191.855 195.925L192.931 197.611C196.727 195.188 201.894 193.928 208.521 193.928V191.928ZM191.868 195.917C187.706 198.485 184.955 201.691 183.758 205.56L185.668 206.152C186.689 202.853 189.059 200 192.918 197.619L191.868 195.917ZM184.713 206.856H230.665V204.856H184.713V206.856ZM231.656 205.724C231.099 201.546 228.764 198.19 224.802 195.668L223.728 197.356C227.275 199.613 229.207 202.486 229.674 205.988L231.656 205.724ZM224.811 195.674C220.912 193.135 215.442 191.928 208.521 191.928V193.928C215.254 193.928 220.28 195.11 223.719 197.35L224.811 195.674Z" fill="url(#paint0_linear_2659_1755)"/>
<g filter="url(#filter0_f_2659_1755)">
<path d="M25.656 241.44L25.2033 242.332L25.2143 242.337L25.656 241.44ZM12.472 229.792L11.6355 230.34L12.472 229.792ZM12.472 194.592L11.6421 194.034L11.6355 194.044L12.472 194.592ZM25.912 183.2L26.3372 184.105L26.3483 184.1L25.912 183.2ZM64.568 183.456L64.0687 184.322L64.075 184.326L64.568 183.456ZM75.832 195.36L74.9285 195.789L74.9346 195.801L75.832 195.36ZM77.368 224.16L76.43 223.813L76.4267 223.822L76.4235 223.831L77.368 224.16ZM70.968 234.912L70.2228 234.245L70.2178 234.251L70.213 234.256L70.968 234.912ZM60.088 242.72L60.4776 243.641L60.4851 243.638L60.4925 243.635L60.088 242.72ZM64.952 229.024L65.3097 229.958L64.952 229.024ZM74.296 222.496L73.522 221.863L73.5162 221.87L73.5105 221.877L74.296 222.496ZM74.296 201.76L73.5105 202.379L73.5162 202.386L73.522 202.393L74.296 201.76ZM64.952 195.488L64.6119 196.428L64.6208 196.432L64.6297 196.435L64.952 195.488ZM33.72 198.432L34.3602 199.2L33.72 198.432ZM30.392 222.368L29.56 222.923L29.5657 222.931L29.5716 222.94L30.392 222.368ZM38.584 229.024L38.1635 229.931L38.1767 229.937L38.1901 229.943L38.584 229.024ZM77.752 180.512V179.512H76.752V180.512H77.752ZM97.208 180.512H98.208V179.512H97.208V180.512ZM97.208 244V245H98.208V244H97.208ZM79.032 244L78.0431 244.148L78.1708 245H79.032V244ZM78.008 234.656L79.0062 234.596L78.008 234.656ZM44.344 244.536C37.5669 244.536 31.4915 243.198 26.0977 240.543L25.2143 242.337C30.9139 245.143 37.2971 246.536 44.344 246.536V244.536ZM26.1087 240.548C20.7095 237.807 16.4504 234.04 13.3085 229.244L11.6355 230.34C14.9789 235.443 19.5092 239.441 25.2033 242.332L26.1087 240.548ZM13.3085 229.244C10.1855 224.477 8.608 218.87 8.608 212.384H6.608C6.608 219.21 8.27319 225.208 11.6355 230.34L13.3085 229.244ZM8.608 212.384C8.608 205.633 10.1895 199.901 13.3085 195.14L11.6355 194.044C8.26921 199.182 6.608 205.311 6.608 212.384H8.608ZM13.3018 195.15C16.5244 190.358 20.8616 186.677 26.3371 184.105L25.4869 182.295C19.6984 185.014 15.0756 188.928 11.6422 194.034L13.3018 195.15ZM26.3483 184.1C31.8258 181.444 38.0731 180.104 45.112 180.104V178.104C37.8149 178.104 31.2622 179.495 25.4757 182.3L26.3483 184.1ZM45.112 180.104C52.9342 180.104 59.2315 181.535 64.0687 184.322L65.0673 182.59C59.8352 179.574 53.1618 178.104 45.112 178.104V180.104ZM64.075 184.326C69.0267 187.132 72.6325 190.951 74.9286 195.789L76.7354 194.931C74.2528 189.7 70.3493 185.583 65.061 182.586L64.075 184.326ZM74.9346 195.801C77.3337 200.682 78.544 206.203 78.544 212.384H80.544C80.544 205.936 79.2796 200.107 76.7294 194.919L74.9346 195.801ZM78.544 212.384C78.544 216.183 77.8424 219.992 76.43 223.813L78.306 224.507C79.7949 220.478 80.544 216.435 80.544 212.384H78.544ZM76.4235 223.831C75.1036 227.626 73.0402 231.096 70.2228 234.245L71.7132 235.579C74.6985 232.242 76.9017 228.545 78.3125 224.489L76.4235 223.831ZM70.213 234.256C67.5052 237.374 64.0039 239.895 59.6835 241.805L60.4925 243.635C65.0468 241.62 68.7988 238.935 71.723 235.568L70.213 234.256ZM59.6984 241.799C55.4116 243.613 50.3021 244.536 44.344 244.536V246.536C50.5033 246.536 55.8897 245.582 60.4776 243.641L59.6984 241.799ZM51 232.328C56.3855 232.328 61.1617 231.546 65.3097 229.958L64.5944 228.09C60.7209 229.574 56.1958 230.328 51 230.328V232.328ZM65.3097 229.958C69.4552 228.37 72.7309 226.098 75.0815 223.115L73.5105 221.877C71.4237 224.526 68.4701 226.606 64.5944 228.09L65.3097 229.958ZM75.07 223.129C77.5321 220.12 78.752 216.521 78.752 212.384H76.752C76.752 216.098 75.668 219.24 73.522 221.863L75.07 223.129ZM78.752 212.384C78.752 207.928 77.5446 204.151 75.07 201.127L73.522 202.393C75.6555 205.001 76.752 208.306 76.752 212.384H78.752ZM75.0815 201.141C72.723 198.148 69.434 195.957 65.2743 194.541L64.6297 196.435C68.4914 197.749 71.4317 199.74 73.5105 202.379L75.0815 201.141ZM65.2921 194.548C61.1497 193.049 56.3798 192.312 51 192.312V194.312C56.2015 194.312 60.7329 195.025 64.6119 196.428L65.2921 194.548ZM51 192.312C43.433 192.312 37.4148 194.051 33.0798 197.664L34.3602 199.2C38.2172 195.986 43.719 194.312 51 194.312V192.312ZM33.0798 197.664C28.7302 201.288 26.576 206.234 26.576 212.384H28.576C28.576 206.758 30.5178 202.402 34.3602 199.2L33.0798 197.664ZM26.576 212.384C26.576 216.394 27.5588 219.921 29.56 222.923L31.2241 221.813C29.4705 219.183 28.576 216.054 28.576 212.384H26.576ZM29.5716 222.94C31.6476 225.918 34.5245 228.245 38.1635 229.931L39.0045 228.117C35.6462 226.56 33.0618 224.45 31.2124 221.796L29.5716 222.94ZM38.1901 229.943C41.9212 231.542 46.1982 232.328 51 232.328V230.328C46.4151 230.328 42.4148 229.578 38.9779 228.105L38.1901 229.943ZM77.752 181.512H97.208V179.512H77.752V181.512ZM96.208 180.512V244H98.208V180.512H96.208ZM97.208 243H79.032V245H97.208V243ZM79.032 244C80.0209 243.852 80.0209 243.852 80.0209 243.852C80.0209 243.852 80.0209 243.852 80.0209 243.852C80.0209 243.852 80.0209 243.852 80.0209 243.852C80.0209 243.852 80.0209 243.852 80.0209 243.852C80.0209 243.851 80.0209 243.851 80.0209 243.851C80.0209 243.851 80.0209 243.851 80.0209 243.851C80.0209 243.851 80.0209 243.851 80.0209 243.851C80.0208 243.851 80.0208 243.851 80.0208 243.851C80.0207 243.85 80.0208 243.851 80.0207 243.85C80.0207 243.85 80.0207 243.85 80.0207 243.85C80.0207 243.85 80.0207 243.85 80.0207 243.85C80.0206 243.85 80.0206 243.849 80.0206 243.849C80.0205 243.849 80.0204 243.848 80.0204 243.848C80.0203 243.848 80.0201 243.846 80.0201 243.846C80.0201 243.846 80.0201 243.846 80.02 243.846C80.02 243.845 80.02 243.845 80.02 243.845C80.0199 243.845 80.0199 243.845 80.0199 243.845C80.0198 243.844 80.0198 243.844 80.0198 243.844C80.0198 243.844 80.0197 243.844 80.0197 243.843C80.0197 243.843 80.0197 243.843 80.0196 243.843C80.0196 243.843 80.0194 243.842 80.0194 243.842C80.0194 243.842 80.0159 243.818 80.0149 243.812C80.0141 243.806 80.0127 243.797 80.0116 243.789C80.0094 243.774 80.0099 243.778 80.0074 243.762C80.006 243.752 80.0078 243.764 80.0063 243.754C80.0061 243.753 80.0053 243.747 80.0051 243.746C80.0049 243.745 80.0028 243.731 80.0026 243.729C80.0015 243.722 80.0009 243.718 79.9998 243.711C79.9991 243.706 79.9992 243.707 79.9984 243.701C79.9983 243.701 79.9982 243.7 79.9981 243.699C79.9979 243.698 79.9978 243.697 79.9977 243.697C79.9976 243.696 79.9974 243.695 79.9973 243.694C79.9972 243.693 79.9971 243.692 79.9969 243.692C79.9883 243.634 79.9796 243.576 79.9669 243.492C79.9526 243.396 79.9432 243.334 79.9249 243.212C79.8842 242.94 79.8617 242.79 79.8049 242.412C79.7982 242.366 79.7752 242.214 79.7674 242.162C79.7504 242.048 79.7649 242.145 79.7476 242.029C79.747 242.025 79.7456 242.016 79.745 242.012C79.745 242.012 79.7426 241.996 79.7425 241.995C79.7406 241.983 79.7392 241.973 79.7373 241.961C79.7371 241.959 79.7272 241.894 79.7269 241.892C79.6969 241.692 79.6709 241.518 79.6369 241.292L77.6591 241.588C77.6709 241.667 77.6592 241.589 77.671 241.668C77.6741 241.689 77.6737 241.686 77.6769 241.707C77.6773 241.71 77.6778 241.713 77.6783 241.717C77.6788 241.72 77.6793 241.723 77.6798 241.726C77.6803 241.73 77.6807 241.733 77.6812 241.736C77.6817 241.739 77.6822 241.743 77.6827 241.746C77.6957 241.832 77.6928 241.814 77.7056 241.898C77.7209 242.001 77.7014 241.871 77.7167 241.973C77.7172 241.976 77.7176 241.979 77.7181 241.982C77.7186 241.985 77.719 241.988 77.7195 241.991C77.7199 241.994 77.7204 241.997 77.7209 242C77.7213 242.003 77.7218 242.006 77.7222 242.009C77.7227 242.012 77.7231 242.016 77.7236 242.019C77.7241 242.022 77.7245 242.025 77.725 242.028C77.7254 242.031 77.7259 242.034 77.7263 242.037C77.7268 242.04 77.7272 242.043 77.7277 242.046C77.7425 242.144 77.7238 242.02 77.7385 242.118C77.751 242.201 77.7366 242.105 77.7491 242.188C77.7647 242.293 77.7543 242.223 77.7697 242.326C77.7794 242.391 77.7701 242.328 77.7797 242.393C77.7835 242.418 77.781 242.401 77.7847 242.426C77.7851 242.428 77.7855 242.431 77.7859 242.434C77.7863 242.437 77.7867 242.439 77.7871 242.442C77.7875 242.445 77.7879 242.447 77.7883 242.45C77.7888 242.453 77.7892 242.456 77.7896 242.458C77.7908 242.466 77.7908 242.467 77.792 242.475C77.7924 242.477 77.7928 242.48 77.7932 242.483C77.7936 242.485 77.794 242.488 77.7944 242.491C77.7948 242.493 77.7952 242.496 77.7956 242.499C77.796 242.501 77.7964 242.504 77.7968 242.507C77.7986 242.519 77.7974 242.511 77.7992 242.523C77.806 242.568 77.802 242.541 77.8087 242.586C77.8091 242.588 77.8095 242.591 77.8099 242.594C77.8102 242.596 77.8106 242.599 77.811 242.601C77.8141 242.622 77.8103 242.597 77.8134 242.617C77.8137 242.62 77.8141 242.622 77.8145 242.625C77.8149 242.627 77.8153 242.63 77.8157 242.632C77.8161 242.635 77.8164 242.637 77.8168 242.64C77.8172 242.643 77.8176 242.645 77.818 242.648C77.8185 242.651 77.8197 242.659 77.8203 242.663C77.8206 242.666 77.821 242.668 77.8214 242.671C77.8218 242.673 77.8222 242.676 77.8225 242.678C77.8238 242.687 77.8258 242.7 77.8271 242.708C77.829 242.721 77.8607 242.932 77.8616 242.938C77.8669 242.974 77.8604 242.931 77.8657 242.966C77.8679 242.981 77.8654 242.964 77.8677 242.979C77.868 242.981 77.8684 242.984 77.8687 242.986C77.869 242.988 77.8694 242.99 77.8697 242.993C77.8701 242.995 77.8704 242.997 77.8707 242.999C77.8711 243.002 77.8714 243.004 77.8717 243.006C77.8732 243.016 77.8723 243.01 77.8737 243.019C77.875 243.028 77.8764 243.037 77.8777 243.046C77.8854 243.097 77.8778 243.047 77.8855 243.098C77.8883 243.116 77.8865 243.105 77.8893 243.123C77.8956 243.166 77.8867 243.106 77.8931 243.148C77.8974 243.177 77.9182 243.316 77.9216 243.338C77.922 243.341 77.9278 243.38 77.9282 243.383C77.9285 243.385 77.9288 243.386 77.929 243.388C77.9293 243.39 77.9296 243.392 77.9299 243.394C77.9322 243.409 77.9291 243.389 77.9315 243.404C77.9348 243.426 77.9314 243.404 77.9347 243.426C77.9358 243.433 77.9352 243.429 77.9363 243.436C77.9388 243.453 77.9353 243.43 77.9379 243.447C77.9381 243.449 77.9384 243.45 77.9386 243.452C77.9389 243.454 77.9392 243.456 77.9394 243.457C77.9415 243.471 77.9389 243.454 77.941 243.468C77.9457 243.499 77.9424 243.477 77.9471 243.508C77.9591 243.588 77.9469 243.507 77.9587 243.586C77.9719 243.674 77.9566 243.572 77.9696 243.658C77.9863 243.77 77.9734 243.684 77.9891 243.788C78.0014 243.87 77.9856 243.766 77.9977 243.846C77.9991 243.855 78.0044 243.891 78.0056 243.898C78.0073 243.91 78.0183 243.983 78.0191 243.988C78.0327 244.079 78.017 243.974 78.0296 244.058C78.0379 244.114 78.0297 244.059 78.0371 244.108C78.0387 244.119 78.0383 244.117 78.0397 244.126C78.04 244.128 78.0397 244.126 78.04 244.128C78.04 244.128 78.0401 244.128 78.0401 244.129C78.0401 244.129 78.0402 244.129 78.0402 244.129C78.0403 244.13 78.0406 244.132 78.0407 244.133C78.0409 244.134 78.0415 244.138 78.0416 244.138C78.0422 244.142 78.0417 244.139 78.0422 244.143C78.0427 244.146 78.0423 244.143 78.0427 244.146C78.0428 244.146 78.0428 244.146 78.0429 244.147C78.043 244.148 78.0428 244.147 78.043 244.148C78.043 244.148 78.043 244.148 78.043 244.148C78.043 244.148 78.043 244.148 78.043 244.148C78.043 244.148 78.043 244.148 78.043 244.148C78.0431 244.148 78.0431 244.148 78.0431 244.148C78.0431 244.148 78.0431 244.148 78.0431 244.148C78.0431 244.148 78.0431 244.148 78.0431 244.148C78.0431 244.148 78.0431 244.148 79.032 244ZM79.6369 241.292C79.3872 239.626 79.176 237.398 79.0062 234.596L77.0098 234.716C77.1813 237.546 77.3968 239.84 77.6591 241.588L79.6369 241.292ZM79.0062 234.596C78.8368 231.8 78.752 228.962 78.752 226.08H76.752C76.752 229.001 76.8379 231.88 77.0098 234.716L79.0062 234.596ZM78.752 226.08V180.512H76.752V226.08H78.752ZM111.546 180.512V179.512H110.546V180.512H111.546ZM131.002 180.512H132.002V179.512H131.002V180.512ZM131.002 244V245H132.002V244H131.002ZM111.546 244H110.546V245H111.546V244ZM157.114 196.256V197.256H158.114V196.256H157.114ZM144.186 198.816L144.582 199.734L144.591 199.73L144.6 199.726L144.186 198.816ZM134.97 204.832L134.263 204.125L134.256 204.131L134.25 204.138L134.97 204.832ZM129.978 211.872L128.978 211.891L130.892 212.278L129.978 211.872ZM129.85 204.96L128.86 204.819L128.849 204.898L128.85 204.979L129.85 204.96ZM131.13 200.096L132.079 200.412L132.082 200.401L131.13 200.096ZM134.074 193.312L133.206 192.816L133.199 192.828L133.193 192.84L134.074 193.312ZM139.322 186.528L140.029 187.235L140.036 187.228L140.043 187.221L139.322 186.528ZM146.874 181.152L146.458 180.242L146.448 180.247L146.874 181.152ZM157.114 179.104H158.114V178.104H157.114V179.104ZM111.546 181.512H131.002V179.512H111.546V181.512ZM130.002 180.512V244H132.002V180.512H130.002ZM131.002 243H111.546V245H131.002V243ZM112.546 244V180.512H110.546V244H112.546ZM157.114 195.256C152.133 195.256 147.678 196.13 143.772 197.906L144.6 199.726C148.203 198.088 152.367 197.256 157.114 197.256V195.256ZM143.79 197.898C139.943 199.559 136.758 201.63 134.263 204.125L135.677 205.539C137.961 203.256 140.92 201.316 144.582 199.734L143.79 197.898ZM134.25 204.138C131.889 206.586 130.148 209.028 129.064 211.466L130.892 212.278C131.856 210.108 133.443 207.857 135.69 205.526L134.25 204.138ZM130.978 211.853L130.85 204.941L128.85 204.979L128.978 211.891L130.978 211.853ZM130.84 205.101C130.998 203.995 131.403 202.44 132.079 200.412L130.181 199.78C129.492 201.848 129.043 203.536 128.86 204.819L130.84 205.101ZM132.082 200.401C132.743 198.336 133.698 196.131 134.955 193.784L133.193 192.84C131.89 195.272 130.882 197.589 130.178 199.791L132.082 200.401ZM134.942 193.808C136.259 191.503 137.953 189.312 140.029 187.235L138.615 185.821C136.425 188.011 134.619 190.342 133.206 192.816L134.942 193.808ZM140.043 187.221C142.088 185.094 144.504 183.372 147.3 182.057L146.448 180.247C143.441 181.662 140.823 183.525 138.601 185.835L140.043 187.221ZM147.29 182.061C150.126 180.765 153.393 180.104 157.114 180.104V178.104C153.155 178.104 149.596 178.808 146.458 180.243L147.29 182.061ZM156.114 179.104V196.256H158.114V179.104H156.114ZM230.665 222.624V221.624H229.98L229.732 222.263L230.665 222.624ZM249.609 222.624L250.594 222.795L250.797 221.624H249.609V222.624ZM243.721 234.528L244.455 235.207L244.463 235.198L243.721 234.528ZM230.537 242.72L230.866 243.664L230.879 243.66L230.537 242.72ZM185.865 241.952L185.514 242.888L185.521 242.891L185.528 242.893L185.865 241.952ZM169.865 230.816L169.068 231.42L169.074 231.428L169.08 231.436L169.865 230.816ZM169.737 194.208L168.935 193.61L168.934 193.612L169.737 194.208ZM185.481 182.944L185.826 183.883L185.836 183.879L185.481 182.944ZM232.329 182.944L231.94 183.865L231.944 183.867L232.329 182.944ZM245.897 194.72L245.02 195.201L245.026 195.212L245.897 194.72ZM249.865 215.2V216.2H250.825L250.864 215.241L249.865 215.2ZM183.817 215.2V214.2H182.669L182.827 215.338L183.817 215.2ZM187.401 223.52L186.618 224.141L186.624 224.15L186.631 224.158L187.401 223.52ZM195.849 229.536L195.455 230.455L195.468 230.461L195.481 230.466L195.849 229.536ZM223.369 229.152L222.963 228.238L222.955 228.242L223.369 229.152ZM192.393 196.768L192.918 197.619L192.925 197.615L192.931 197.611L192.393 196.768ZM184.713 205.856L183.758 205.56L183.357 206.856H184.713V205.856ZM230.665 205.856V206.856H231.807L231.656 205.724L230.665 205.856ZM224.265 196.512L223.719 197.35L223.728 197.356L224.265 196.512ZM230.665 223.624H249.609V221.624H230.665V223.624ZM248.624 222.453C247.889 226.696 246.016 230.493 242.979 233.858L244.463 235.198C247.741 231.566 249.793 227.427 250.594 222.795L248.624 222.453ZM242.987 233.849C239.964 237.117 235.719 239.771 230.195 241.78L230.879 243.66C236.619 241.573 241.163 238.766 244.455 235.207L242.987 233.849ZM230.208 241.776C224.713 243.691 217.92 244.664 209.801 244.664V246.664C218.066 246.664 225.097 245.675 230.866 243.664L230.208 241.776ZM209.801 244.664C200.845 244.664 192.984 243.439 186.202 241.011L185.528 242.893C192.57 245.415 200.666 246.664 209.801 246.664V244.664ZM186.216 241.016C179.53 238.508 174.358 234.894 170.65 230.196L169.08 231.436C173.052 236.466 178.547 240.276 185.514 242.888L186.216 241.016ZM170.662 230.212C167.06 225.464 165.233 219.585 165.233 212.512H163.233C163.233 219.946 165.16 226.269 169.068 231.42L170.662 230.212ZM165.233 212.512C165.233 205.434 167.02 199.552 170.54 194.804L168.934 193.612C165.115 198.763 163.233 205.083 163.233 212.512H165.233ZM170.539 194.806C174.161 189.948 179.24 186.3 185.826 183.883L185.136 182.005C178.24 184.537 172.822 188.398 168.935 193.61L170.539 194.806ZM185.836 183.879C192.437 181.372 200.29 180.104 209.417 180.104V178.104C200.112 178.104 192.007 179.396 185.126 182.009L185.836 183.879ZM209.417 180.104C218.549 180.104 226.043 181.374 231.94 183.865L232.718 182.023C226.498 179.394 218.717 178.104 209.417 178.104V180.104ZM231.944 183.867C237.902 186.349 242.239 190.13 245.02 195.201L246.774 194.239C243.752 188.729 239.044 184.659 232.714 182.021L231.944 183.867ZM245.026 195.212C247.893 200.29 249.202 206.915 248.866 215.159L250.864 215.241C251.21 206.76 249.874 199.731 246.768 194.228L245.026 195.212ZM249.865 214.2H183.817V216.2H249.865V214.2ZM182.827 215.338C183.278 218.59 184.546 221.53 186.618 224.141L188.184 222.899C186.331 220.561 185.209 217.954 184.807 215.062L182.827 215.338ZM186.631 224.158C188.799 226.778 191.756 228.87 195.455 230.455L196.243 228.617C192.774 227.13 190.099 225.211 188.171 222.882L186.631 224.158ZM195.481 230.466C199.299 231.975 203.868 232.712 209.161 232.712V230.712C204.044 230.712 199.738 229.998 196.217 228.606L195.481 230.466ZM209.161 232.712C214.969 232.712 219.858 231.846 223.783 230.062L222.955 228.242C219.37 229.871 214.787 230.712 209.161 230.712V232.712ZM223.775 230.066C227.741 228.303 230.441 225.974 231.598 222.985L229.732 222.263C228.841 224.565 226.677 226.588 222.963 228.238L223.775 230.066ZM208.521 191.928C201.665 191.928 196.08 193.228 191.855 195.925L192.931 197.611C196.727 195.188 201.894 193.928 208.521 193.928V191.928ZM191.868 195.917C187.706 198.485 184.955 201.691 183.758 205.56L185.668 206.152C186.689 202.853 189.059 200 192.918 197.619L191.868 195.917ZM184.713 206.856H230.665V204.856H184.713V206.856ZM231.656 205.724C231.099 201.546 228.764 198.19 224.802 195.668L223.728 197.356C227.275 199.613 229.207 202.486 229.674 205.988L231.656 205.724ZM224.811 195.674C220.912 193.135 215.442 191.928 208.521 191.928V193.928C215.254 193.928 220.28 195.11 223.719 197.35L224.811 195.674Z" fill="url(#paint1_linear_2659_1755)"/>
</g>
<path d="M103.096 107.48L103.058 108.479L104.57 108.536L104.03 107.123L103.096 107.48ZM96.312 107.224L95.3927 106.83L94.8198 108.168L96.2743 108.223L96.312 107.224ZM118.456 55.512V54.512H117.796L117.537 55.1184L118.456 55.512ZM139.832 55.512L140.734 55.9431L141.418 54.512H139.832V55.512ZM109.496 119V120H110.126L110.398 119.431L109.496 119ZM91.192 119L90.2795 119.409L90.5444 120H91.192V119ZM68.408 68.184V67.184H66.8637L67.4955 68.5931L68.408 68.184ZM75.832 68.184L76.7393 68.6045L77.3977 67.184H75.832V68.184ZM52.28 119V120H52.9187L53.1873 119.421L52.28 119ZM33.976 119L33.0681 119.419L33.3363 120H33.976V119ZM4.664 55.512V54.512H3.10087L3.75609 55.9312L4.664 55.512ZM26.04 55.512L26.9653 55.1327L26.7109 54.512H26.04V55.512ZM47.288 107.352V108.352H48.7786L48.2133 106.973L47.288 107.352ZM40.376 107.352L39.4475 106.981L38.899 108.352H40.376V107.352ZM61.112 55.512V54.512H60.435L60.1835 55.1406L61.112 55.512ZM83.256 55.512L84.1902 55.1553L83.9446 54.512H83.256V55.512ZM103.134 106.481L96.3497 106.225L96.2743 108.223L103.058 108.479L103.134 106.481ZM97.2313 107.618L119.375 55.9056L117.537 55.1184L95.3927 106.83L97.2313 107.618ZM118.456 56.512H139.832V54.512H118.456V56.512ZM138.93 55.0809L108.594 118.569L110.398 119.431L140.734 55.9431L138.93 55.0809ZM109.496 118H91.192V120H109.496V118ZM92.1045 118.591L69.3205 67.7749L67.4955 68.5931L90.2795 119.409L92.1045 118.591ZM68.408 69.184H75.832V67.184H68.408V69.184ZM74.9247 67.7635L51.3727 118.579L53.1873 119.421L76.7393 68.6045L74.9247 67.7635ZM52.28 118H33.976V120H52.28V118ZM34.8839 118.581L5.57191 55.0928L3.75609 55.9312L33.0681 119.419L34.8839 118.581ZM4.664 56.512H26.04V54.512H4.664V56.512ZM25.1147 55.8913L46.3627 107.731L48.2133 106.973L26.9653 55.1327L25.1147 55.8913ZM47.288 106.352H40.376V108.352H47.288V106.352ZM41.3045 107.723L62.0405 55.8834L60.1835 55.1406L39.4475 106.981L41.3045 107.723ZM61.112 56.512H83.256V54.512H61.112V56.512ZM82.3218 55.8687L102.162 107.837L104.03 107.123L84.1902 55.1553L82.3218 55.8687ZM209.29 97.624V96.624H208.605L208.357 97.263L209.29 97.624ZM228.234 97.624L229.219 97.7945L229.422 96.624H228.234V97.624ZM222.346 109.528L223.08 110.207L223.088 110.198L222.346 109.528ZM209.162 117.72L209.491 118.664L209.504 118.66L209.162 117.72ZM164.49 116.952L164.139 117.888L164.146 117.891L164.153 117.893L164.49 116.952ZM148.49 105.816L147.693 106.42L147.699 106.428L147.705 106.436L148.49 105.816ZM148.362 69.208L147.56 68.6102L147.559 68.6124L148.362 69.208ZM164.106 57.944L164.451 58.8828L164.461 58.8789L164.106 57.944ZM210.954 57.944L210.565 58.8652L210.569 58.8671L210.954 57.944ZM224.522 69.72L223.645 70.2009L223.651 70.2116L224.522 69.72ZM228.49 90.2V91.2H229.45L229.489 90.2408L228.49 90.2ZM162.442 90.2V89.2H161.294L161.452 90.3376L162.442 90.2ZM166.026 98.52L165.243 99.1414L165.249 99.1496L165.256 99.1576L166.026 98.52ZM174.474 104.536L174.08 105.455L174.093 105.461L174.106 105.466L174.474 104.536ZM201.994 104.152L201.588 103.238L201.58 103.242L201.994 104.152ZM171.018 71.768L171.543 72.619L171.55 72.615L171.556 72.6109L171.018 71.768ZM163.338 80.856L162.383 80.5603L161.982 81.856H163.338V80.856ZM209.29 80.856V81.856H210.432L210.281 80.7238L209.29 80.856ZM202.89 71.512L202.344 72.35L202.353 72.3557L202.89 71.512ZM209.29 98.624H228.234V96.624H209.29V98.624ZM227.249 97.4535C226.514 101.696 224.641 105.493 221.604 108.858L223.088 110.198C226.366 106.566 228.418 102.427 229.219 97.7945L227.249 97.4535ZM221.612 108.849C218.589 112.117 214.344 114.771 208.82 116.78L209.504 118.66C215.244 116.573 219.788 113.766 223.08 110.207L221.612 108.849ZM208.833 116.776C203.338 118.691 196.545 119.664 188.426 119.664V121.664C196.691 121.664 203.722 120.675 209.491 118.664L208.833 116.776ZM188.426 119.664C179.47 119.664 171.609 118.439 164.827 116.011L164.153 117.893C171.195 120.415 179.291 121.664 188.426 121.664V119.664ZM164.841 116.016C158.155 113.508 152.983 109.894 149.275 105.196L147.705 106.436C151.677 111.466 157.172 115.276 164.139 117.888L164.841 116.016ZM149.287 105.212C145.685 100.464 143.858 94.5851 143.858 87.512H141.858C141.858 94.9456 143.785 101.269 147.693 106.42L149.287 105.212ZM143.858 87.512C143.858 80.4339 145.645 74.5515 149.165 69.8036L147.559 68.6124C143.74 73.7631 141.858 80.0835 141.858 87.512H143.858ZM149.164 69.8058C152.786 64.9482 157.865 61.3004 164.451 58.8827L163.761 57.0052C156.865 59.5369 151.447 63.3985 147.56 68.6102L149.164 69.8058ZM164.461 58.8789C171.062 56.372 178.915 55.104 188.042 55.104V53.104C178.737 53.104 170.632 54.396 163.751 57.0091L164.461 58.8789ZM188.042 55.104C197.174 55.104 204.668 56.3736 210.565 58.8651L211.343 57.0229C205.123 54.3944 197.342 53.104 188.042 53.104V55.104ZM210.569 58.8671C216.527 61.3493 220.864 65.1299 223.645 70.2008L225.399 69.2392C222.377 63.7287 217.669 59.6586 211.339 57.0209L210.569 58.8671ZM223.651 70.2116C226.518 75.29 227.827 81.915 227.491 90.1592L229.489 90.2408C229.835 81.7597 228.499 74.7313 225.393 69.2284L223.651 70.2116ZM228.49 89.2H162.442V91.2H228.49V89.2ZM161.452 90.3376C161.903 93.5898 163.171 96.5295 165.243 99.1414L166.809 97.8986C164.956 95.5611 163.834 92.9542 163.432 90.0624L161.452 90.3376ZM165.256 99.1576C167.424 101.778 170.381 103.87 174.08 105.455L174.868 103.617C171.399 102.13 168.724 100.211 166.796 97.8824L165.256 99.1576ZM174.106 105.466C177.924 106.975 182.493 107.712 187.786 107.712V105.712C182.669 105.712 178.363 104.998 174.842 103.606L174.106 105.466ZM187.786 107.712C193.594 107.712 198.483 106.846 202.408 105.062L201.58 103.242C197.995 104.871 193.412 105.712 187.786 105.712V107.712ZM202.4 105.066C206.366 103.303 209.066 100.974 210.223 97.985L208.357 97.263C207.466 99.5647 205.302 101.588 201.588 103.238L202.4 105.066ZM187.146 66.928C180.29 66.928 174.705 68.2282 170.48 70.9251L171.556 72.6109C175.352 70.1878 180.519 68.928 187.146 68.928V66.928ZM170.493 70.917C166.331 73.485 163.58 76.6907 162.383 80.5603L164.293 81.1517C165.314 77.8533 167.684 75.0003 171.543 72.619L170.493 70.917ZM163.338 81.856H209.29V79.856H163.338V81.856ZM210.281 80.7238C209.724 76.5459 207.389 73.1898 203.427 70.6683L202.353 72.3557C205.9 74.6128 207.832 77.4861 208.299 80.9882L210.281 80.7238ZM203.436 70.674C199.537 68.1352 194.067 66.928 187.146 66.928V68.928C193.879 68.928 198.905 70.1101 202.344 72.35L203.436 70.674Z" fill="url(#paint2_linear_2659_1755)"/>
<g filter="url(#filter1_f_2659_1755)">
<path d="M103.096 107.48L103.058 108.479L104.57 108.536L104.03 107.123L103.096 107.48ZM96.312 107.224L95.3927 106.83L94.8198 108.168L96.2743 108.223L96.312 107.224ZM118.456 55.512V54.512H117.796L117.537 55.1184L118.456 55.512ZM139.832 55.512L140.734 55.9431L141.418 54.512H139.832V55.512ZM109.496 119V120H110.126L110.398 119.431L109.496 119ZM91.192 119L90.2795 119.409L90.5444 120H91.192V119ZM68.408 68.184V67.184H66.8637L67.4955 68.5931L68.408 68.184ZM75.832 68.184L76.7393 68.6045L77.3977 67.184H75.832V68.184ZM52.28 119V120H52.9187L53.1873 119.421L52.28 119ZM33.976 119L33.0681 119.419L33.3363 120H33.976V119ZM4.664 55.512V54.512H3.10087L3.75609 55.9312L4.664 55.512ZM26.04 55.512L26.9653 55.1327L26.7109 54.512H26.04V55.512ZM47.288 107.352V108.352H48.7786L48.2133 106.973L47.288 107.352ZM40.376 107.352L39.4475 106.981L38.899 108.352H40.376V107.352ZM61.112 55.512V54.512H60.435L60.1835 55.1406L61.112 55.512ZM83.256 55.512L84.1902 55.1553L83.9446 54.512H83.256V55.512ZM103.134 106.481L96.3497 106.225L96.2743 108.223L103.058 108.479L103.134 106.481ZM97.2313 107.618L119.375 55.9056L117.537 55.1184L95.3927 106.83L97.2313 107.618ZM118.456 56.512H139.832V54.512H118.456V56.512ZM138.93 55.0809L108.594 118.569L110.398 119.431L140.734 55.9431L138.93 55.0809ZM109.496 118H91.192V120H109.496V118ZM92.1045 118.591L69.3205 67.7749L67.4955 68.5931L90.2795 119.409L92.1045 118.591ZM68.408 69.184H75.832V67.184H68.408V69.184ZM74.9247 67.7635L51.3727 118.579L53.1873 119.421L76.7393 68.6045L74.9247 67.7635ZM52.28 118H33.976V120H52.28V118ZM34.8839 118.581L5.57191 55.0928L3.75609 55.9312L33.0681 119.419L34.8839 118.581ZM4.664 56.512H26.04V54.512H4.664V56.512ZM25.1147 55.8913L46.3627 107.731L48.2133 106.973L26.9653 55.1327L25.1147 55.8913ZM47.288 106.352H40.376V108.352H47.288V106.352ZM41.3045 107.723L62.0405 55.8834L60.1835 55.1406L39.4475 106.981L41.3045 107.723ZM61.112 56.512H83.256V54.512H61.112V56.512ZM82.3218 55.8687L102.162 107.837L104.03 107.123L84.1902 55.1553L82.3218 55.8687ZM209.29 97.624V96.624H208.605L208.357 97.263L209.29 97.624ZM228.234 97.624L229.219 97.7945L229.422 96.624H228.234V97.624ZM222.346 109.528L223.08 110.207L223.088 110.198L222.346 109.528ZM209.162 117.72L209.491 118.664L209.504 118.66L209.162 117.72ZM164.49 116.952L164.139 117.888L164.146 117.891L164.153 117.893L164.49 116.952ZM148.49 105.816L147.693 106.42L147.699 106.428L147.705 106.436L148.49 105.816ZM148.362 69.208L147.56 68.6102L147.559 68.6124L148.362 69.208ZM164.106 57.944L164.451 58.8828L164.461 58.8789L164.106 57.944ZM210.954 57.944L210.565 58.8652L210.569 58.8671L210.954 57.944ZM224.522 69.72L223.645 70.2009L223.651 70.2116L224.522 69.72ZM228.49 90.2V91.2H229.45L229.489 90.2408L228.49 90.2ZM162.442 90.2V89.2H161.294L161.452 90.3376L162.442 90.2ZM166.026 98.52L165.243 99.1414L165.249 99.1496L165.256 99.1576L166.026 98.52ZM174.474 104.536L174.08 105.455L174.093 105.461L174.106 105.466L174.474 104.536ZM201.994 104.152L201.588 103.238L201.58 103.242L201.994 104.152ZM171.018 71.768L171.543 72.619L171.55 72.615L171.556 72.6109L171.018 71.768ZM163.338 80.856L162.383 80.5603L161.982 81.856H163.338V80.856ZM209.29 80.856V81.856H210.432L210.281 80.7238L209.29 80.856ZM202.89 71.512L202.344 72.35L202.353 72.3557L202.89 71.512ZM209.29 98.624H228.234V96.624H209.29V98.624ZM227.249 97.4535C226.514 101.696 224.641 105.493 221.604 108.858L223.088 110.198C226.366 106.566 228.418 102.427 229.219 97.7945L227.249 97.4535ZM221.612 108.849C218.589 112.117 214.344 114.771 208.82 116.78L209.504 118.66C215.244 116.573 219.788 113.766 223.08 110.207L221.612 108.849ZM208.833 116.776C203.338 118.691 196.545 119.664 188.426 119.664V121.664C196.691 121.664 203.722 120.675 209.491 118.664L208.833 116.776ZM188.426 119.664C179.47 119.664 171.609 118.439 164.827 116.011L164.153 117.893C171.195 120.415 179.291 121.664 188.426 121.664V119.664ZM164.841 116.016C158.155 113.508 152.983 109.894 149.275 105.196L147.705 106.436C151.677 111.466 157.172 115.276 164.139 117.888L164.841 116.016ZM149.287 105.212C145.685 100.464 143.858 94.5851 143.858 87.512H141.858C141.858 94.9456 143.785 101.269 147.693 106.42L149.287 105.212ZM143.858 87.512C143.858 80.4339 145.645 74.5515 149.165 69.8036L147.559 68.6124C143.74 73.7631 141.858 80.0835 141.858 87.512H143.858ZM149.164 69.8058C152.786 64.9482 157.865 61.3004 164.451 58.8827L163.761 57.0052C156.865 59.5369 151.447 63.3985 147.56 68.6102L149.164 69.8058ZM164.461 58.8789C171.062 56.372 178.915 55.104 188.042 55.104V53.104C178.737 53.104 170.632 54.396 163.751 57.0091L164.461 58.8789ZM188.042 55.104C197.174 55.104 204.668 56.3736 210.565 58.8651L211.343 57.0229C205.123 54.3944 197.342 53.104 188.042 53.104V55.104ZM210.569 58.8671C216.527 61.3493 220.864 65.1299 223.645 70.2008L225.399 69.2392C222.377 63.7287 217.669 59.6586 211.339 57.0209L210.569 58.8671ZM223.651 70.2116C226.518 75.29 227.827 81.915 227.491 90.1592L229.489 90.2408C229.835 81.7597 228.499 74.7313 225.393 69.2284L223.651 70.2116ZM228.49 89.2H162.442V91.2H228.49V89.2ZM161.452 90.3376C161.903 93.5898 163.171 96.5295 165.243 99.1414L166.809 97.8986C164.956 95.5611 163.834 92.9542 163.432 90.0624L161.452 90.3376ZM165.256 99.1576C167.424 101.778 170.381 103.87 174.08 105.455L174.868 103.617C171.399 102.13 168.724 100.211 166.796 97.8824L165.256 99.1576ZM174.106 105.466C177.924 106.975 182.493 107.712 187.786 107.712V105.712C182.669 105.712 178.363 104.998 174.842 103.606L174.106 105.466ZM187.786 107.712C193.594 107.712 198.483 106.846 202.408 105.062L201.58 103.242C197.995 104.871 193.412 105.712 187.786 105.712V107.712ZM202.4 105.066C206.366 103.303 209.066 100.974 210.223 97.985L208.357 97.263C207.466 99.5647 205.302 101.588 201.588 103.238L202.4 105.066ZM187.146 66.928C180.29 66.928 174.705 68.2282 170.48 70.9251L171.556 72.6109C175.352 70.1878 180.519 68.928 187.146 68.928V66.928ZM170.493 70.917C166.331 73.485 163.58 76.6907 162.383 80.5603L164.293 81.1517C165.314 77.8533 167.684 75.0003 171.543 72.619L170.493 70.917ZM163.338 81.856H209.29V79.856H163.338V81.856ZM210.281 80.7238C209.724 76.5459 207.389 73.1898 203.427 70.6683L202.353 72.3557C205.9 74.6128 207.832 77.4861 208.299 80.9882L210.281 80.7238ZM203.436 70.674C199.537 68.1352 194.067 66.928 187.146 66.928V68.928C193.879 68.928 198.905 70.1101 202.344 72.35L203.436 70.674Z" fill="url(#paint3_linear_2659_1755)"/>
</g>
<path d="M63.032 495.664C56.9733 495.664 51.7253 494.725 47.288 492.848C42.936 490.885 39.3093 488.283 36.408 485.04C33.592 481.797 31.4587 478.213 30.008 474.288C28.6427 470.277 27.96 466.309 27.96 462.384C27.96 457.605 28.6427 453.211 30.008 449.2C31.3733 445.189 33.464 441.691 36.28 438.704C39.1813 435.632 42.808 433.285 47.16 431.664C51.5973 429.957 56.888 429.104 63.032 429.104C69.944 429.104 76.1733 430.512 81.72 433.328C87.2667 436.059 91.6613 439.941 94.904 444.976C98.1467 449.925 99.768 455.728 99.768 462.384C99.768 469.211 98.104 475.141 94.776 480.176C91.5333 485.125 87.1387 488.965 81.592 491.696C76.0453 494.341 69.8587 495.664 63.032 495.664ZM56.376 481.328C61.1547 481.328 65.2933 480.56 68.792 479.024C72.2907 477.403 74.9787 475.184 76.856 472.368C78.8187 469.552 79.8 466.224 79.8 462.384C79.8 456.496 77.752 451.845 73.656 448.432C69.6453 444.933 63.8853 443.184 56.376 443.184C51.4267 443.184 46.904 443.909 42.808 445.36C38.7973 446.811 35.5973 448.944 33.208 451.76C30.904 454.576 29.752 458.117 29.752 462.384C29.752 466.309 30.8613 469.723 33.08 472.624C35.2987 475.44 38.4133 477.616 42.424 479.152C46.4347 480.603 51.0853 481.328 56.376 481.328ZM10.296 430.512H28.728L29.752 448.944V519.6H10.296V430.512ZM111.671 430.512H131.127V494H111.671V430.512ZM164.023 429.104C168.119 429.104 171.959 429.616 175.543 430.64C179.212 431.664 182.412 433.285 185.143 435.504C187.874 437.723 190.007 440.581 191.543 444.08C193.079 447.579 193.847 451.803 193.847 456.752V494H174.391V459.952C174.391 454.32 172.983 450.267 170.167 447.792C167.436 445.232 162.871 443.952 156.471 443.952C151.948 443.952 147.81 444.72 144.055 446.256C140.386 447.792 137.314 449.755 134.839 452.144C132.364 454.533 130.786 456.965 130.103 459.44L129.975 453.296C130.402 450.565 131.426 447.835 133.047 445.104C134.668 442.288 136.887 439.643 139.703 437.168C142.604 434.693 146.06 432.731 150.071 431.28C154.167 429.829 158.818 429.104 164.023 429.104ZM225.079 429.104C229.26 429.104 233.143 429.616 236.727 430.64C240.311 431.664 243.468 433.285 246.199 435.504C248.93 437.723 251.063 440.581 252.599 444.08C254.22 447.579 255.031 451.803 255.031 456.752V494H235.575V459.952C235.575 454.32 234.167 450.267 231.351 447.792C228.62 445.232 224.012 443.952 217.527 443.952C213.09 443.952 208.994 444.72 205.239 446.256C201.484 447.792 198.37 449.755 195.895 452.144C193.506 454.533 192.012 456.965 191.415 459.44L191.159 452.784C191.586 450.224 192.652 447.579 194.359 444.848C196.066 442.032 198.37 439.429 201.271 437.04C204.258 434.651 207.714 432.731 211.639 431.28C215.65 429.829 220.13 429.104 225.079 429.104ZM291.565 478.512V494H269.549V478.512H291.565Z" fill="url(#paint4_linear_2659_1755)"/>
<path d="M92.472 369H73.016V305.512H92.472V369ZM73.912 338.024L74.04 342.76C73.8693 344.04 73.3573 345.832 72.504 348.136C71.736 350.44 70.5413 352.872 68.92 355.432C67.2987 357.992 65.208 360.424 62.648 362.728C60.1733 365.032 57.1867 366.952 53.688 368.488C50.1893 369.939 46.0933 370.664 41.4 370.664C37.4747 370.664 33.6347 370.195 29.88 369.256C26.2107 368.317 22.8827 366.781 19.896 364.648C16.9947 362.515 14.648 359.656 12.856 356.072C11.1493 352.403 10.296 347.837 10.296 342.376V305.512H29.752V339.432C29.752 343.613 30.4347 346.899 31.8 349.288C33.1653 351.677 35.2133 353.384 37.944 354.408C40.6747 355.347 44.0027 355.816 47.928 355.816C52.6213 355.816 56.7173 354.877 60.216 353C63.7147 351.037 66.616 348.691 68.92 345.96C71.3093 343.229 72.9733 340.584 73.912 338.024ZM198.346 357.48L191.562 357.224L213.706 305.512H235.082L204.746 369H186.442L163.658 318.184H171.082L147.53 369H129.226L99.914 305.512H121.29L142.538 357.352H135.626L156.362 305.512H178.506L198.346 357.48Z" fill="url(#paint5_linear_2659_1755)"/>
</g>
<defs>
<filter id="filter0_f_2659_1755" x="3.6084" y="175.104" width="250.769" height="74.5601" filterUnits="userSpaceOnUse" color-interpolation-filters="sRGB">
<feFlood flood-opacity="0" result="BackgroundImageFix"/>
<feBlend mode="normal" in="SourceGraphic" in2="BackgroundImageFix" result="shape"/>
<feGaussianBlur stdDeviation="2" result="effect1_foregroundBlur_2659_1755"/>
</filter>
<filter id="filter1_f_2659_1755" x="0.664062" y="50.104" width="232.338" height="74.5601" filterUnits="userSpaceOnUse" color-interpolation-filters="sRGB">
<feFlood flood-opacity="0" result="BackgroundImageFix"/>
<feBlend mode="normal" in="SourceGraphic" in2="BackgroundImageFix" result="shape"/>
<feGaussianBlur stdDeviation="2" result="effect1_foregroundBlur_2659_1755"/>
</filter>
<linearGradient id="paint0_linear_2659_1755" x1="129" y1="125" x2="129" y2="279" gradientUnits="userSpaceOnUse">
<stop stop-color="#FFEEED"/>
<stop offset="1" stop-color="#FFEEED" stop-opacity="0.19"/>
</linearGradient>
<linearGradient id="paint1_linear_2659_1755" x1="129" y1="125" x2="129" y2="279" gradientUnits="userSpaceOnUse">
<stop stop-color="#FFEEED"/>
<stop offset="1" stop-color="#FFEEED" stop-opacity="0.19"/>
</linearGradient>
<linearGradient id="paint2_linear_2659_1755" x1="118.5" y1="0" x2="118.5" y2="154" gradientUnits="userSpaceOnUse">
<stop stop-color="#FFEEED"/>
<stop offset="1" stop-color="#FFEEED" stop-opacity="0.19"/>
</linearGradient>
<linearGradient id="paint3_linear_2659_1755" x1="118.5" y1="0" x2="118.5" y2="154" gradientUnits="userSpaceOnUse">
<stop stop-color="#FFEEED"/>
<stop offset="1" stop-color="#FFEEED" stop-opacity="0.19"/>
</linearGradient>
<linearGradient id="paint4_linear_2659_1755" x1="163" y1="375" x2="163" y2="521" gradientUnits="userSpaceOnUse">
<stop stop-color="#FFEEED"/>
<stop offset="0.989583" stop-color="#FFEEED" stop-opacity="0.2"/>
</linearGradient>
<linearGradient id="paint5_linear_2659_1755" x1="120" y1="250" x2="120" y2="404" gradientUnits="userSpaceOnUse">
<stop stop-color="#FFEEED"/>
<stop offset="0.989583" stop-color="#FFEEED" stop-opacity="0.2"/>
</linearGradient>
</defs>
</svg>
